<?xml version="1.0" standalone="no"?>
<!DOCTYPE svg PUBLIC "-//W3C//DTD SVG 20010904//EN"
 "http://www.w3.org/TR/2001/REC-SVG-20010904/DTD/svg10.dtd">
<svg version="1.0" xmlns="http://www.w3.org/2000/svg"
 width="160px" height="160px" viewBox="0 0 427.000000 240.000000"
 preserveAspectRatio="xMidYMid meet">

<g transform="translate(0.000000,240.000000) scale(0.100000,-0.100000)"
fill="#000000" stroke="none">
<path d="M0 1200 l0 -1200 2135 0 2135 0 0 1200 0 1200 -2135 0 -2135 0 0
-1200z m3703 1045 c12 -11 15 -41 15 -130 -1 -111 -2 -117 -26 -135 -13 -11
-33 -20 -44 -20 -10 0 -32 -7 -47 -15 -44 -22 -160 -38 -177 -24 -10 8 -14 39
-14 120 0 128 -7 120 140 169 52 18 102 36 110 41 21 12 26 11 43 -6z m-2655
-374 c5 -36 -25 -57 -50 -34 -21 19 -23 34 -6 51 20 20 53 10 56 -17z m2237
-31 c10 -11 26 -22 36 -25 30 -10 25 -59 -8 -83 l-27 -20 13 -248 c7 -137 15
-319 17 -404 8 -360 9 -331 -12 -347 -40 -29 -104 9 -104 64 0 22 -5 33 -15
33 -8 0 -29 13 -47 28 -24 22 -29 33 -23 48 4 10 7 25 6 32 -1 6 3 12 9 12 15
0 12 49 -5 66 -8 9 -15 30 -15 48 0 19 7 39 15 46 9 8 15 29 15 56 0 50 -6 53
-144 69 -21 2 -44 10 -52 16 -8 6 -25 8 -40 5 -45 -12 -57 11 -38 73 3 11 9
10 29 -3 13 -9 28 -16 33 -16 10 0 34 51 31 66 -4 23 3 31 29 30 16 -1 26 -6
24 -13 -3 -16 14 -17 24 -2 4 7 23 9 50 5 53 -7 68 12 58 74 -6 39 -13 47 -28
33 -10 -11 -36 -12 -36 -2 0 5 -11 9 -24 9 -27 0 -56 23 -56 45 0 7 -12 15
-26 18 -18 3 -24 1 -20 -9 3 -8 2 -15 -2 -15 -49 -8 -72 -7 -67 1 3 6 13 10
22 10 9 0 13 3 9 8 -4 4 -29 7 -54 7 -30 0 -47 4 -48 13 -3 24 -4 26 -16 14
-15 -15 -43 -15 -67 0 -15 9 -25 7 -52 -10 -23 -15 -28 -22 -16 -22 28 0 20
-15 -16 -28 -43 -15 -47 -15 -47 2 0 8 9 18 21 21 l21 7 -21 15 c-15 10 -41
14 -83 12 -52 -2 -63 0 -79 19 -9 12 -22 22 -28 22 -7 0 -9 10 -5 28 9 36 13
42 27 42 7 0 6 -4 -3 -10 -12 -7 -12 -12 -3 -21 10 -10 14 -9 19 4 4 13 18 16
57 15 38 0 54 4 66 18 9 11 27 20 41 22 14 1 27 7 28 12 2 6 11 10 20 10 15 0
15 2 2 10 -8 5 -12 10 -8 10 3 0 14 3 24 7 13 5 16 3 11 -10 -11 -30 11 -28
35 3 17 21 29 29 41 24 9 -3 17 -10 17 -15 0 -17 18 -9 23 11 6 25 35 36 56
23 12 -8 20 -4 34 14 10 12 25 23 32 23 23 0 45 -30 45 -61 0 -22 -5 -30 -26
-35 -14 -4 -30 -2 -37 5 -16 16 -24 14 -30 -9 -6 -23 -45 -28 -65 -8 -9 9 -12
9 -12 -1 0 -7 -14 -26 -31 -42 -31 -28 -31 -30 -13 -44 16 -12 21 -11 36 2 10
9 25 13 34 9 10 -4 25 1 35 10 16 14 24 15 44 6 16 -7 25 -8 25 -1 0 18 44 28
66 14 18 -11 22 -11 32 6 16 24 44 24 66 0 21 -23 14 -56 -14 -71 -21 -11 -50
-4 -50 13 0 7 -4 7 -12 -1 -10 -10 -7 -16 10 -28 12 -8 20 -19 18 -22 -2 -4
16 -7 40 -7 l44 0 -4 94 c-3 83 -2 95 16 110 11 9 26 31 33 49 11 26 20 32 43
32 16 0 37 -9 47 -20z m356 -1 c50 -17 69 -43 69 -98 0 -55 -29 -149 -40 -131
-7 12 -19 -38 -52 -210 -11 -60 -11 -82 -1 -110 6 -19 12 -47 12 -62 1 -15 8
-43 17 -62 16 -33 16 -35 -9 -68 -25 -33 -26 -36 -16 -108 10 -71 10 -75 -12
-93 -19 -15 -24 -16 -43 -3 -15 10 -21 24 -21 53 0 25 -8 49 -22 66 -18 24
-21 37 -16 77 5 43 2 53 -20 79 -22 26 -24 35 -16 68 5 21 9 61 9 88 0 67 12
84 34 50 9 -14 14 -30 11 -35 -3 -6 0 -10 9 -10 8 0 21 -2 29 -5 11 -5 11 6
-4 62 -29 115 -40 127 -54 56 -9 -48 -18 -31 -35 67 -7 41 -16 91 -21 110 -5
19 -9 60 -9 91 0 68 28 114 64 105 13 -3 34 3 51 14 35 23 41 24 86 9z m-927
-17 c5 -3 1 -9 -10 -13 -27 -11 -46 -11 -39 0 3 5 -3 11 -12 14 -10 2 -2 4 17
4 19 0 39 -2 44 -5z m-1694 -50 c0 -45 -56 -58 -66 -15 -5 19 -2 30 11 39 22
16 55 2 55 -24z m1472 -19 c-6 -2 -10 -8 -7 -13 5 -8 -82 -40 -109 -40 -20 0
-31 19 -17 33 6 6 30 14 53 18 51 8 98 9 80 2z m498 -33 c0 -5 -4 -10 -10 -10
-5 0 -10 5 -10 10 0 6 5 10 10 10 6 0 10 -4 10 -10z m30 -10 c0 -5 -4 -10 -10
-10 -5 0 -10 5 -10 10 0 6 5 10 10 10 6 0 10 -4 10 -10z m-2753 -46 c3 -8 1
-32 -5 -52 -6 -20 -13 -49 -16 -63 -7 -34 -33 -44 -57 -23 -22 20 -24 45 -7
62 9 9 9 15 0 24 -15 15 -15 41 0 56 18 18 77 15 85 -4z m1943 12 c0 -2 -7 -6
-15 -10 -8 -3 -15 -1 -15 4 0 6 7 10 15 10 8 0 15 -2 15 -4z m-1181 -40 c11
-14 9 -77 -5 -128 -6 -22 -38 -32 -62 -19 -23 12 -39 125 -21 147 15 18 73 18
88 0z m873 -13 c23 -21 23 -55 -1 -84 -16 -20 -23 -22 -38 -13 -21 13 -29 65
-13 94 13 24 27 25 52 3z m494 -10 c-10 -10 -19 5 -10 18 6 11 8 11 12 0 2 -7
1 -15 -2 -18z m-401 -33 c-5 -16 -10 -19 -18 -11 -7 7 -6 15 3 26 17 20 24 13
15 -15z m228 -91 c0 -35 -2 -98 -3 -139 -2 -76 15 -144 39 -160 16 -9 10 -56
-6 -53 -12 3 -17 -8 -28 -64 -12 -62 -55 -33 -55 37 0 48 -21 93 -34 72 -13
-21 -55 -13 -72 13 -15 23 -15 27 0 50 19 28 57 33 76 10 25 -30 33 3 34 138
1 99 5 138 15 151 25 30 36 12 34 -55z m230 25 c16 -6 12 -46 -8 -79 -17 -29
-20 -208 -4 -237 7 -13 12 -31 10 -42 -5 -31 8 -64 27 -70 11 -4 25 -18 32
-31 16 -30 39 -32 74 -4 l26 20 33 -25 c19 -14 46 -26 60 -26 15 0 27 -6 27
-12 1 -8 7 -5 15 6 12 16 17 17 30 6 9 -7 47 -15 86 -16 70 -4 114 -19 138
-48 15 -18 1 -50 -31 -67 -21 -11 -21 -12 7 -27 l29 -15 -23 -18 c-13 -11 -33
-19 -45 -19 -25 0 -102 47 -174 106 -45 37 -59 43 -119 48 -37 4 -88 3 -113
-1 -39 -8 -45 -12 -45 -33 l0 -25 -195 2 c-107 1 -242 2 -300 3 -101 0 -105 1
-116 24 -11 24 -10 24 40 30 28 4 74 8 103 10 29 2 87 9 131 16 55 9 83 10 98
2 12 -6 35 -7 64 -2 25 5 62 9 83 10 39 0 50 14 17 23 -40 10 -49 100 -15 152
8 14 10 34 6 60 -4 22 -3 71 2 109 7 50 6 80 -3 107 -19 58 1 83 53 63z m-459
-35 c8 -40 8 -387 0 -416 -8 -28 -30 -30 -44 -4 -6 11 -10 88 -10 179 0 87 -3
162 -7 165 -3 4 -14 -7 -24 -23 -24 -39 -37 -38 -55 5 -18 45 -18 74 3 97 21
23 32 23 58 -2 l22 -21 17 26 c22 33 32 32 40 -6z m-254 2 c21 -41 5 -111 -26
-111 -16 0 -44 56 -44 88 0 41 51 57 70 23z m1089 -38 c11 -23 -3 -120 -22
-142 -8 -9 -17 -24 -20 -33 -3 -9 -15 -21 -25 -27 -45 -24 -77 85 -38 127 9
10 16 25 16 33 0 47 69 79 89 42z m-1916 -17 c4 -9 0 -12 -13 -9 -12 3 -20 -2
-25 -17 -5 -17 -9 -19 -15 -9 -5 7 -4 21 1 31 11 21 45 24 52 4z m822 -158 c8
-36 -18 -67 -41 -47 -11 9 -10 51 2 71 12 19 33 6 39 -24z m168 -90 c7 -44
-13 -69 -39 -47 -16 13 -14 31 7 86 12 33 23 20 32 -39z m878 -34 c9 -11 10
-20 2 -32 -13 -21 -22 -21 -52 0 -20 14 -22 20 -11 33 16 19 44 19 61 -1z
m309 -35 c0 -11 -11 -19 -34 -23 -21 -4 -36 -13 -39 -26 -6 -25 -79 -47 -115
-34 -34 12 -42 56 -16 85 16 17 30 19 111 18 80 -2 93 -5 93 -20z m-2622 -74
c-3 -3 -9 2 -12 12 -6 14 -5 15 5 6 7 -7 10 -15 7 -18z m1232 10 c7 -8 13 -26
13 -39 0 -18 6 -26 21 -29 11 -2 -3 -4 -31 -5 -56 -1 -83 14 -83 47 0 38 55
56 80 26z m117 -81 c-3 -3 -12 -4 -19 -1 -8 3 -5 6 6 6 11 1 17 -2 13 -5z
m-699 -79 c12 -3 29 -19 37 -35 8 -15 28 -39 45 -53 16 -14 30 -29 30 -32 0
-10 -60 5 -107 26 -46 21 -63 43 -63 84 0 20 4 25 18 21 9 -2 27 -7 40 -11z
m1515 -12 c26 -5 67 -49 67 -71 0 -6 -18 -13 -39 -17 -22 -3 -47 -15 -57 -26
-9 -10 -21 -19 -26 -19 -4 0 -8 34 -8 76 0 68 2 75 18 69 9 -3 29 -9 45 -12z
m-173 -13 c0 -5 0 -13 0 -17 0 -5 -12 -11 -25 -15 -22 -5 -25 -3 -25 18 0 19
5 24 25 24 14 0 25 -4 25 -10z m-1086 -17 c17 -10 17 -11 -5 -27 -29 -20 -43
-20 -59 -1 -28 33 18 54 64 28z m1014 -119 c2 -47 1 -93 -3 -102 -10 -26 -38
24 -31 54 5 19 2 24 -11 24 -10 0 -25 5 -33 10 -12 7 -8 11 18 16 61 12 40 24
-69 39 -31 4 -46 10 -46 21 0 9 4 11 10 5 6 -6 22 -4 43 5 43 18 46 18 74 -8
16 -15 22 -17 18 -6 -6 15 11 42 21 33 2 -3 6 -44 9 -91z m-1307 65 c8 -16 8
-27 -1 -45 -10 -18 -10 -29 0 -54 11 -26 11 -33 0 -40 -24 -15 -60 11 -70 52
-6 21 -15 38 -19 38 -15 0 -21 31 -11 51 16 28 85 27 101 -2z m1372 -56 c-8
-102 -15 -111 -28 -39 -6 28 -5 37 4 32 6 -4 11 -2 11 3 0 6 -4 11 -9 11 -11
0 -24 48 -16 60 4 6 15 10 25 10 18 0 19 -5 13 -77z m-513 32 c0 -8 -4 -15
-10 -15 -5 0 -10 7 -10 15 0 8 5 15 10 15 6 0 10 -7 10 -15z m189 -57 c-2 -30
-2 -31 -6 -5 -2 15 -9 27 -14 27 -5 0 -9 9 -9 21 0 18 2 19 15 5 8 -8 14 -30
14 -48z m38 20 c-3 -8 -6 -5 -6 6 -1 11 2 17 5 13 3 -3 4 -12 1 -19z m126 -3
c-5 -13 -23 -22 -23 -11 0 15 14 35 21 31 4 -3 6 -12 2 -20z m-113 -30 c0 -8
-4 -15 -9 -15 -5 0 -14 7 -21 15 -10 13 -9 15 9 15 12 0 21 -6 21 -15z m933
-7 c8 -12 7 -21 -3 -33 -12 -14 -16 -13 -42 11 -15 15 -28 32 -28 37 0 15 63
3 73 -15z m-848 -18 c19 0 35 5 35 10 0 6 10 10 21 10 16 0 19 -3 11 -12 -10
-13 -12 -19 -12 -38 0 -16 -67 -23 -127 -12 -35 6 -62 7 -67 1 -16 -15 -24
-10 -19 11 4 14 14 20 37 21 55 2 61 4 62 17 3 25 5 27 15 10 6 -12 22 -18 44
-18z m-190 0 c3 -5 1 -10 -4 -10 -6 0 -11 5 -11 10 0 6 2 10 4 10 3 0 8 -4 11
-10z m-105 -35 c11 -13 10 -14 -4 -9 -9 3 -16 1 -16 -6 0 -6 -4 -8 -10 -5 -6
4 -5 11 3 20 15 18 12 18 27 0z m51 -12 c13 -16 12 -17 -3 -4 -17 13 -22 21
-14 21 2 0 10 -8 17 -17z m1506 11 c-3 -3 -12 -4 -19 -1 -8 3 -5 6 6 6 11 1
17 -2 13 -5z m-1522 -44 c10 -11 13 -20 7 -20 -6 0 -16 9 -22 20 -6 11 -9 20
-7 20 2 0 12 -9 22 -20z m-315 -20 c0 -16 -4 -30 -10 -30 -5 0 -8 10 -6 23 3
12 5 25 5 30 2 21 11 3 11 -23z m280 10 c0 -5 -2 -10 -4 -10 -3 0 -8 5 -11 10
-3 6 -1 10 4 10 6 0 11 -4 11 -10z m-1050 -55 c0 -37 -19 -58 -39 -46 -10 6
-12 20 -6 47 4 22 9 42 12 47 10 16 33 -17 33 -48z m1007 13 c-3 -8 -6 -5 -6
6 -1 11 2 17 5 13 3 -3 4 -12 1 -19z m-982 -108 c4 -6 3 -10 -2 -9 -19 3 -27
-2 -15 -9 9 -7 7 -13 -9 -28 -22 -19 -22 -19 -10 4 6 12 9 22 5 22 -3 0 -1 7
6 15 15 18 17 18 25 5z"/>
<path d="M2298 783 c7 -3 16 -2 19 1 4 3 -2 6 -13 5 -11 0 -14 -3 -6 -6z"/>
</g>
</svg>
