<?xml version="1.0" standalone="no"?>
<!DOCTYPE svg PUBLIC "-//W3C//DTD SVG 20010904//EN"
 "http://www.w3.org/TR/2001/REC-SVG-20010904/DTD/svg10.dtd">
<svg version="1.0" xmlns="http://www.w3.org/2000/svg"
 width="160px" height="160px" viewBox="0 0 360.000000 240.000000"
 preserveAspectRatio="xMidYMid meet">

<g transform="translate(0.000000,240.000000) scale(0.100000,-0.100000)"
fill="#000000" stroke="none">
<path d="M0 1923 c1 -352 3 -473 12 -458 16 31 39 45 71 45 22 0 45 15 90 56
33 31 78 65 101 76 35 17 45 18 71 7 17 -7 38 -13 47 -14 10 -1 32 -15 50 -31
38 -33 94 -63 185 -97 l62 -24 3 26 c2 20 8 26 28 26 30 0 40 -33 15 -51 -21
-15 -10 -22 63 -40 70 -16 72 -16 72 -4 0 6 12 22 26 35 28 26 35 25 116 -16
37 -19 46 -20 78 -9 35 13 144 82 154 99 3 5 -1 11 -9 15 -8 3 -15 17 -15 31
0 22 -2 24 -19 13 -26 -16 -68 3 -73 34 -4 23 -5 22 -16 -4 -6 -16 -19 -28
-29 -29 -41 -3 -69 3 -79 17 -6 8 -16 14 -23 14 -6 0 -11 4 -11 10 0 5 7 7 15
4 8 -4 15 -2 15 4 0 6 14 13 30 17 43 9 39 32 -4 27 -27 -3 -37 0 -46 18 -6
12 -9 28 -6 35 3 9 0 12 -9 9 -24 -10 -55 15 -55 44 0 35 17 52 52 52 30 0 54
-31 44 -57 -4 -10 -2 -13 6 -10 23 8 58 -11 58 -32 0 -17 4 -19 24 -11 26 10
66 -11 66 -34 0 -8 13 -16 30 -19 20 -5 31 -14 36 -31 5 -22 9 -24 30 -14 22
10 22 12 6 24 -15 12 -16 14 -1 29 8 9 23 13 31 10 24 -10 32 -38 14 -51 -14
-10 -14 -13 2 -26 9 -8 29 -19 45 -26 15 -6 27 -17 27 -24 0 -9 19 -14 58 -15
40 -2 61 -8 72 -20 8 -10 28 -19 44 -20 16 0 31 -5 35 -10 3 -4 17 -9 31 -10
43 -3 84 -15 101 -29 20 -18 56 -20 92 -5 41 16 74 14 94 -7 37 -37 115 -26
195 26 29 19 45 23 70 17 39 -8 78 -9 133 -1 22 2 45 5 50 5 6 1 16 10 23 22
8 12 9 18 3 15 -7 -4 -9 -1 -5 8 8 21 62 38 84 26 13 -7 21 -7 25 1 4 6 13 8
20 5 7 -2 36 18 64 45 28 27 58 49 66 49 8 0 25 11 37 25 35 40 88 28 88 -20
0 -22 -39 -62 -84 -85 -34 -17 -76 -56 -76 -70 0 -6 -6 -10 -12 -10 -7 -1 10
-12 39 -26 65 -31 76 -45 68 -83 -7 -33 -20 -33 -95 1 -25 11 -56 25 -70 31
-14 6 -29 13 -35 16 -5 2 -7 1 -3 -4 4 -4 2 -17 -3 -28 -8 -15 -8 -22 2 -28 8
-4 16 -4 20 2 9 14 59 -10 61 -30 3 -32 4 -36 11 -48 5 -8 19 -10 36 -7 16 3
38 1 50 -5 15 -9 26 -8 43 1 36 20 38 29 10 53 -23 20 -25 25 -14 49 10 22 18
26 51 26 22 0 46 -6 54 -14 7 -8 24 -16 37 -18 13 -1 28 -11 34 -21 11 -17 7
-28 -34 -94 -12 -19 -12 -24 2 -40 9 -10 19 -38 23 -63 7 -45 6 -46 -43 -87
-47 -40 -50 -41 -77 -27 -54 28 -82 15 -66 -30 9 -22 17 -25 67 -28 65 -3 88
-23 66 -58 -6 -11 -12 -30 -12 -43 0 -31 -29 -57 -63 -57 -30 0 -43 16 -38 48
2 21 0 22 -18 13 -25 -14 -72 -14 -105 -1 -16 6 -27 6 -31 0 -8 -14 -48 -13
-62 1 -8 8 -16 3 -27 -20 -14 -27 -43 -51 -61 -51 -3 0 -10 12 -15 26 -9 23
-14 26 -42 20 -18 -3 -36 -12 -40 -19 -23 -36 7 -147 41 -147 10 0 12 -8 7
-32 -11 -56 -75 -88 -135 -67 -23 8 -34 20 -42 49 -12 39 -6 76 9 66 5 -3 18
1 28 9 16 12 17 17 7 34 -7 12 -13 32 -13 46 0 23 -24 45 -49 45 -5 0 -11 -28
-13 -62 -3 -58 -5 -64 -31 -76 -42 -20 -67 5 -67 68 0 55 21 80 68 80 24 0 31
5 34 21 6 39 32 46 77 21 l39 -22 21 26 c21 27 25 38 21 63 -1 7 4 36 11 63 9
41 9 52 -3 64 -12 12 -20 11 -58 -7 l-44 -22 -32 37 c-25 29 -38 36 -68 36
-25 0 -36 -5 -36 -14 0 -8 -13 -24 -29 -36 -40 -28 -44 -40 -54 -182 -4 -52
-8 -61 -48 -98 -43 -40 -67 -47 -116 -34 -12 3 -24 13 -27 23 -3 9 -4 4 -3
-10 1 -14 -3 -32 -9 -40 -13 -16 -26 -142 -18 -164 4 -8 19 -15 34 -15 28 0
40 -15 40 -50 0 -20 -33 -44 -44 -33 -7 7 -56 -44 -56 -57 0 -4 7 -13 15 -20
12 -10 20 -9 41 5 22 14 28 15 35 4 13 -21 11 -34 -8 -51 -30 -25 -52 -29 -62
-10 -9 15 -10 15 -11 1 0 -31 -73 -50 -198 -52 -59 -2 -75 -5 -84 -20 -12 -22
-54 -40 -77 -32 -17 5 -42 53 -47 89 -1 12 -6 36 -10 55 -6 27 -4 33 7 29 8
-3 14 -19 14 -41 1 -44 7 -51 40 -43 22 6 25 12 25 51 0 47 1 48 55 49 30 1
30 2 27 52 -3 63 17 87 48 59 16 -14 24 -15 52 -6 45 15 73 48 57 67 -6 8 -8
25 -5 40 5 19 3 25 -6 22 -14 -5 -48 28 -48 47 0 7 -6 15 -14 18 -10 4 -13 15
-10 31 5 30 -1 32 -22 11 -20 -20 -47 -19 -66 3 -29 33 -51 121 -44 178 5 44
2 62 -14 95 -27 52 -54 50 -93 -8 -22 -34 -26 -46 -17 -62 14 -27 13 -56 -4
-70 -12 -10 -19 -8 -35 8 -25 25 -27 44 -6 61 8 7 15 19 15 26 0 18 -56 46
-83 42 -20 -3 -22 -8 -19 -63 2 -52 -1 -66 -28 -108 -17 -26 -36 -50 -43 -52
-7 -2 -25 -6 -42 -10 -25 -6 -27 -8 -12 -16 9 -6 17 -18 17 -29 0 -13 10 -20
39 -25 22 -3 46 -14 54 -23 14 -15 14 -21 1 -51 -13 -32 -16 -33 -54 -27 -39
6 -40 5 -40 -23 0 -15 -9 -40 -21 -55 -31 -40 -69 -114 -69 -137 0 -26 25 -35
58 -18 15 7 30 15 35 17 4 2 21 -11 37 -28 27 -29 31 -30 36 -13 12 32 36 53
63 53 39 0 52 -13 60 -56 9 -50 4 -72 -17 -78 -10 -3 -22 -16 -27 -28 -14 -32
-40 -34 -66 -4 -19 22 -29 25 -77 23 -37 -1 -57 2 -59 11 -7 19 -110 16 -121
-4 -6 -12 -23 -14 -73 -12 l-64 3 0 35 c0 33 2 35 35 36 53 1 60 3 60 15 0 7
-7 17 -15 23 -12 9 -14 20 -6 60 5 27 14 52 20 55 18 12 18 184 -1 212 -8 13
-18 42 -22 64 -4 22 -16 48 -27 58 -10 10 -19 29 -19 42 0 21 5 25 30 25 24 0
33 6 41 27 13 36 6 51 -28 55 -16 2 -27 8 -26 16 2 6 -6 12 -16 12 -11 0 -22
6 -24 13 -5 11 -22 -4 -68 -60 -5 -7 -25 -13 -44 -13 -27 0 -37 6 -55 35 -25
40 -28 41 -46 18 -24 -34 17 -123 58 -123 50 0 66 -103 23 -146 -30 -30 -31
-34 -6 -34 24 0 45 -54 31 -80 -7 -14 -27 -20 -75 -25 -82 -9 -113 -1 -125 31
-6 14 -23 29 -39 35 -22 8 -31 18 -35 44 -9 47 -23 52 -44 15 -11 -20 -23 -30
-37 -28 -17 3 -20 10 -18 43 3 83 12 104 47 107 26 3 31 7 34 33 6 65 11 74
47 81 34 6 35 7 35 55 0 27 -4 49 -10 49 -5 0 -10 -11 -10 -25 0 -17 -8 -29
-25 -37 -35 -16 -58 5 -51 47 5 23 1 38 -14 55 -11 13 -18 31 -15 40 3 10 -1
23 -9 30 -15 12 -39 11 -186 -5 -78 -9 -110 -10 -130 -4 -12 3 -15 -11 -17
-81 -1 -47 1 -79 3 -72 11 26 77 49 119 41 22 -4 44 -5 49 -2 4 3 5 -4 2 -15
-5 -16 2 -25 39 -48 25 -16 45 -36 45 -46 0 -21 -56 -68 -81 -68 -12 0 -23 10
-29 25 -13 33 -17 32 -35 -11 -21 -50 -19 -56 19 -81 26 -17 35 -31 38 -55 2
-24 8 -34 23 -36 50 -7 65 -13 65 -27 0 -23 -36 -38 -61 -24 -14 7 -43 9 -80
5 -44 -5 -66 -3 -89 9 l-30 16 0 -220 0 -220 58 7 c31 4 79 7 107 7 44 0 50
-3 59 -26 18 -53 7 -59 -115 -59 l-111 0 5 -87 c3 -49 9 -105 13 -125 l6 -38
339 0 c192 0 339 4 339 9 0 18 33 21 63 6 26 -13 200 -15 1434 -15 l1403 0 0
278 0 278 -31 59 c-18 31 -40 60 -50 62 -20 6 -59 65 -59 90 0 15 66 83 81 83
4 0 5 9 2 20 -3 13 1 22 11 26 23 9 32 -3 19 -25 -14 -23 -5 -35 14 -20 16 14
17 53 1 79 -10 15 -10 26 0 53 7 18 12 61 12 95 0 60 -1 62 -20 50 -37 -23
-77 24 -50 57 15 18 56 20 63 3 3 -7 6 1 6 19 1 32 1 32 -44 28 -25 -2 -47 1
-50 6 -7 10 -55 9 -71 -3 -6 -4 -31 -4 -55 0 -24 5 -66 7 -93 5 -27 -1 -54 1
-60 6 -14 11 -65 22 -108 23 -18 0 -37 4 -43 8 -5 5 -30 11 -55 14 -106 12
-138 34 -121 80 8 20 17 26 41 26 16 0 30 -4 30 -10 0 -5 19 -10 43 -10 24 0
48 -5 54 -11 5 -5 29 -10 52 -11 23 0 44 -5 47 -10 3 -5 15 -6 25 -3 11 4 26
2 34 -5 7 -6 30 -11 52 -11 21 0 92 0 158 0 184 -1 165 -7 165 55 0 50 -1 53
-23 49 -14 -3 -29 3 -41 16 -18 19 -18 22 -1 47 12 19 23 25 41 21 l24 -4 0
314 0 315 -25 20 c-29 23 -32 54 -7 81 9 10 18 29 19 41 1 11 5 42 9 69 l7 47
-1802 0 -1801 0 0 -477z m3412 330 c10 -9 18 -29 18 -46 0 -19 8 -36 25 -49
44 -34 31 -88 -21 -88 -37 0 -69 35 -58 63 4 12 -2 20 -20 27 -33 12 -44 52
-22 85 19 29 51 32 78 8z m-1160 -20 c40 -36 8 -113 -49 -113 -32 0 -73 36
-73 65 0 11 7 31 16 43 19 27 78 30 106 5z m-1739 -32 c9 -25 13 -27 29 -18
26 17 52 -3 56 -41 4 -35 -10 -46 -76 -57 -45 -7 -72 5 -72 32 0 8 -7 21 -15
30 -28 27 4 83 48 83 12 0 23 -11 30 -29z m2619 2 c20 -18 24 -63 6 -81 -30
-30 -98 -1 -98 41 0 48 56 73 92 40z m-1497 -13 c12 -20 -15 -50 -45 -50 -37
0 -47 16 -24 41 18 20 59 26 69 9z m1245 -10 c37 -37 14 -100 -37 -100 -28 0
-63 33 -63 60 0 11 9 29 20 40 11 11 29 20 40 20 11 0 29 -9 40 -20z m-1139
-41 c30 -30 23 -88 -13 -108 -35 -20 -78 -6 -96 31 -32 67 56 130 109 77z
m879 1 c38 -38 18 -89 -39 -103 -29 -7 -71 31 -71 64 0 54 70 79 110 39z m650
-10 c22 -22 26 -60 8 -78 -28 -28 -98 -1 -98 37 0 26 29 61 51 61 10 0 28 -9
39 -20z m-2865 -45 c14 -13 25 -33 25 -45 0 -28 -43 -70 -71 -70 -32 0 -59 28
-59 62 0 32 39 78 65 78 9 0 27 -11 40 -25z m679 4 c33 -26 35 -71 5 -92 -20
-15 -20 -15 -1 -21 46 -15 27 -96 -23 -96 -14 0 -33 9 -42 20 -11 13 -24 18
-39 14 -15 -4 -29 1 -43 15 -11 11 -23 16 -26 11 -11 -17 -54 -11 -67 10 -19
29 -31 24 -23 -9 5 -23 1 -33 -20 -49 -22 -17 -31 -19 -51 -10 -28 13 -32 48
-9 72 8 8 15 21 15 28 0 7 -12 -2 -26 -19 -44 -56 -123 -36 -110 29 5 26 4 27
-14 15 -41 -25 -82 42 -45 73 21 17 82 23 91 8 5 -7 2 -9 -8 -6 -11 5 -14 1
-10 -17 2 -15 9 -22 18 -18 8 3 14 9 14 14 0 5 11 16 24 24 31 20 66 5 66 -27
0 -17 3 -19 12 -10 17 17 44 15 64 -5 9 -10 28 -16 41 -15 14 2 32 -3 42 -12
10 -9 26 -13 39 -9 17 4 22 13 22 39 0 23 7 38 22 48 30 21 50 20 82 -5z m939
9 c48 -38 15 -118 -48 -118 -56 0 -87 70 -48 112 19 21 71 24 96 6z m-615 -10
c22 -22 14 -57 -14 -64 -38 -10 -61 17 -46 51 12 27 40 33 60 13z m1702 -8
c27 -14 35 -58 14 -81 -9 -11 -24 -19 -33 -19 -26 0 -61 29 -61 51 0 50 36 73
80 49z m-151 -26 c12 -15 21 -33 21 -40 0 -36 -71 -59 -98 -32 -29 29 -1 98
39 98 10 0 27 -12 38 -26z m-169 -64 c38 -38 20 -90 -31 -90 -52 0 -77 54 -42
92 21 24 48 23 73 -2z m-140 -40 c53 -53 -15 -126 -73 -79 -31 23 -35 54 -10
81 21 24 58 23 83 -2z m-1352 -12 c7 -7 12 -23 12 -37 0 -23 1 -23 18 -8 23
21 46 21 67 1 12 -13 19 -14 28 -5 15 15 60 14 75 -1 7 -7 13 -23 13 -37 l2
-26 4 25 c3 14 10 31 15 38 13 15 60 16 76 0 19 -19 14 -66 -8 -80 -11 -7 -20
-20 -20 -29 0 -47 -94 -47 -115 -1 -5 12 -15 22 -21 22 -6 0 -17 7 -24 15 -11
13 -14 13 -27 0 -30 -30 -83 -9 -83 32 0 21 -3 24 -12 15 -7 -7 -24 -12 -38
-12 -14 0 -31 5 -38 12 -15 15 -15 61 0 76 7 7 24 12 38 12 14 0 31 -5 38 -12z
m1048 -13 c38 -38 16 -95 -36 -95 -15 0 -30 -6 -33 -13 -7 -18 -80 -41 -109
-34 -34 9 -50 47 -34 78 11 21 19 24 64 23 44 -2 52 1 52 17 0 19 35 49 58 49
7 0 24 -11 38 -25z m144 5 c25 -25 25 -41 2 -70 -36 -44 -102 -20 -102 36 0
50 62 72 100 34z m-1590 -50 c24 -44 -17 -88 -64 -70 -20 7 -26 17 -26 38 0
15 5 33 12 40 20 20 66 15 78 -8z m1062 3 c22 -20 23 -42 2 -71 -22 -32 -73
-27 -93 9 -13 24 -13 29 2 53 20 30 61 35 89 9z m-230 -12 c14 -20 14 -20 26
0 14 21 61 26 80 7 39 -39 -13 -113 -63 -90 -14 7 -25 16 -25 22 0 5 -9 1 -20
-10 -24 -24 -53 -26 -74 -4 -19 18 -21 65 -4 82 19 19 65 14 80 -7z m328 -36
c0 -27 -6 -30 -29 -16 -12 8 -12 12 -2 25 19 23 31 20 31 -9z m1077 -131 c9
-25 -11 -49 -42 -49 -35 0 -54 27 -36 49 18 21 70 21 78 0z m-940 -25 c30 -14
43 -27 43 -41 0 -18 -4 -19 -36 -13 -20 3 -47 11 -60 17 -34 16 -31 51 5 57 3
1 24 -8 48 -20z m341 -3 c5 -25 -12 -39 -37 -31 -20 6 -28 34 -14 49 13 13 48
1 51 -18z m314 -1 c8 -19 8 -28 -2 -40 -25 -30 -80 -12 -80 25 0 44 63 55 82
15z m108 -15 c26 -48 -25 -89 -63 -51 -18 17 -19 24 -9 46 14 31 56 34 72 5z
m-2421 -14 c18 -22 -4 -58 -32 -54 -37 5 -36 68 1 68 11 0 25 -6 31 -14z
m2516 -16 c27 -30 13 -70 -25 -70 -60 0 -60 81 1 89 3 1 14 -8 24 -19z m120
-30 c3 -11 3 -29 0 -41 -10 -30 -69 -23 -73 9 -6 37 5 52 37 52 21 0 32 -6 36
-20z m107 -26 c23 -50 -38 -85 -68 -39 -12 18 -11 24 2 43 21 30 52 28 66 -4z
m108 -30 c20 -51 -22 -83 -62 -47 -22 20 -23 31 -1 55 23 26 52 23 63 -8z m96
-30 c18 -28 1 -64 -30 -64 -32 0 -51 32 -36 59 18 35 46 37 66 5z m-416 -260
c25 -1 48 -3 52 -3 15 -2 17 -40 5 -77 -8 -21 -12 -46 -9 -54 3 -8 1 -12 -3
-8 -10 9 -35 -10 -35 -26 1 -23 37 -59 54 -53 13 5 14 11 5 33 -8 22 -6 31 6
43 13 14 17 14 31 -1 14 -14 15 -22 5 -49 -15 -42 -14 -49 5 -49 8 0 22 16 30
36 12 30 13 41 2 71 -7 19 -23 39 -34 44 -12 4 -25 13 -29 18 -22 37 45 81 71
47 10 -14 17 -15 33 -7 30 16 49 13 56 -9 6 -19 7 -19 35 2 24 17 32 19 45 8
8 -7 15 -23 15 -37 0 -13 4 -32 10 -42 9 -17 7 -17 -36 -3 -36 12 -48 12 -53
3 -5 -8 -18 -10 -35 -5 -21 5 -25 3 -21 -9 4 -8 17 -19 31 -25 28 -13 31 -42
8 -78 -16 -24 -16 -26 3 -39 17 -12 20 -24 18 -68 -2 -58 -9 -77 -30 -77 -21
0 -35 33 -35 79 0 41 -12 53 -27 29 -4 -7 -6 -24 -5 -38 2 -17 -6 -34 -22 -49
-23 -21 -25 -30 -21 -85 2 -38 -2 -72 -10 -91 -15 -33 -18 -22 -15 46 1 22 -5
41 -14 48 -9 8 -16 21 -16 30 0 9 -10 21 -22 26 -19 9 -23 17 -21 54 2 49 -13
45 -19 -4 -4 -36 -22 -40 -26 -6 -2 14 -11 35 -19 48 -13 19 -14 29 -4 49 8
19 8 35 0 64 -9 28 -9 47 -1 69 18 50 7 63 -44 55 -53 -8 -64 8 -40 55 19 35
45 53 66 44 8 -3 35 -7 60 -9z m-2858 -69 c12 -26 17 -28 56 -25 17 1 22 -4
22 -23 0 -34 -23 -50 -59 -42 -31 7 -35 14 -47 78 -7 43 10 51 28 12z m3283
-15 c0 -25 -5 -36 -18 -38 -40 -8 -64 47 -29 67 31 19 47 8 47 -29z m-3425
-10 c0 -11 -4 -20 -9 -20 -11 0 -22 26 -14 34 12 12 23 5 23 -14z m3500 -85
c0 -25 -14 -34 -24 -16 -8 12 3 41 15 41 5 0 9 -11 9 -25z m-47 -90 c6 -14
-14 -57 -27 -59 -12 -1 -27 51 -20 69 6 15 41 8 47 -10z m-2083 -111 c0 -24
-3 -25 -27 -19 -38 9 -48 28 -20 37 40 11 47 9 47 -18z m2056 0 c8 -29 -7 -49
-30 -41 -19 7 -21 38 -4 55 18 18 27 15 34 -14z m-2151 0 c32 -13 -4 -144 -39
-144 -8 0 -17 -7 -20 -17 -5 -12 -11 -7 -26 23 -21 40 -19 68 5 78 8 3 15 14
15 24 0 34 29 50 65 36z m1973 -66 c6 -7 13 -31 17 -53 10 -58 43 -122 65
-128 11 -3 20 -13 20 -24 0 -22 -46 -67 -60 -58 -5 3 -10 0 -10 -7 0 -7 -10
-19 -21 -26 -16 -10 -18 -17 -10 -25 6 -6 11 -14 11 -18 0 -4 -51 -7 -112 -6
-62 0 -125 -5 -139 -11 -26 -10 -28 -8 -52 39 -22 41 -25 58 -20 99 4 35 12
54 24 61 12 6 19 21 19 37 0 32 16 52 42 52 25 0 33 -25 20 -56 -16 -34 4 -77
32 -70 12 3 28 6 37 6 28 0 57 35 64 75 11 68 36 125 55 125 4 0 12 -6 18 -12z
m-867 -169 c9 -17 8 -25 -5 -37 -15 -15 -17 -15 -32 0 -10 10 -14 23 -9 37 8
27 31 27 46 0z m427 -57 c6 -61 -44 -107 -68 -63 -25 47 1 105 44 99 16 -2 22
-11 24 -36z m-554 -7 c26 -20 14 -49 -16 -40 -13 4 -30 14 -38 21 -13 13 -13
16 0 24 20 13 32 12 54 -5z m-127 -7 c9 -15 10 -20 12 -48 0 -11 7 -20 15 -20
7 0 19 -6 25 -14 16 -19 0 -52 -28 -61 -11 -3 -23 -15 -26 -26 -6 -18 -27 -28
-23 -11 1 8 -9 39 -23 64 -17 32 -22 97 -9 113 15 18 46 20 57 3z m-2027 -99
c0 -5 -4 -9 -10 -9 -5 0 -10 7 -10 16 0 8 5 12 10 9 6 -3 10 -10 10 -16z
m2772 4 c24 -28 26 -46 11 -76 -17 -33 -13 -40 39 -73 37 -24 39 -27 24 -42
-13 -14 -34 -16 -124 -13 -59 2 -118 4 -132 4 -14 0 -42 -3 -62 -7 -31 -7 -38
-5 -38 7 0 8 6 19 13 26 16 13 146 41 191 41 44 0 56 15 45 53 -22 77 -4 122
33 80z m-2592 -156 c0 -13 -9 -32 -20 -42 -18 -17 -19 -16 -26 9 -8 35 1 56
26 56 14 0 20 -7 20 -23z m448 -69 c5 -44 -38 -35 -53 10 -6 21 -4 23 22 20
22 -2 29 -9 31 -30z m87 22 c3 -5 -1 -10 -9 -10 -8 0 -18 5 -21 10 -3 6 1 10
9 10 8 0 18 -4 21 -10z m-211 -119 c10 -81 3 -89 -91 -93 -78 -3 -99 7 -89 40
6 17 12 19 42 12 41 -9 60 6 89 71 10 22 23 38 29 36 6 -2 15 -32 20 -66z
m-284 -106 c0 -8 -4 -15 -10 -15 -5 0 -10 7 -10 15 0 8 5 15 10 15 6 0 10 -7
10 -15z"/>
<path d="M3227 542 c-17 -19 -5 -45 24 -50 12 -2 15 5 11 28 -5 38 -15 44 -35
22z"/>
<path d="M3165 540 c-4 -6 -3 -16 3 -22 6 -6 12 -6 17 2 4 6 3 16 -3 22 -6 6
-12 6 -17 -2z"/>
<path d="M101 1453 c-10 -34 -4 -64 6 -35 3 6 13 12 23 12 17 0 18 4 9 30 -14
40 -26 38 -38 -7z"/>
<path d="M1875 1344 c-15 -24 -16 -26 -1 -21 10 4 16 1 16 -8 0 -20 29 -19 37
1 3 9 -3 24 -14 35 -20 20 -20 20 -38 -7z"/>
<path d="M2760 1356 c0 -2 11 -6 25 -8 13 -3 22 -1 19 3 -5 9 -44 13 -44 5z"/>
<path d="M1856 1229 c-9 -22 -11 -41 -5 -57 5 -13 9 -37 9 -53 0 -27 3 -29 39
-29 l38 0 6 53 c6 61 -16 110 -51 115 -17 3 -26 -4 -36 -29z"/>
<path d="M1528 1142 c-9 -9 -21 -28 -28 -41 -11 -21 -10 -26 6 -38 25 -18 54
9 54 53 0 40 -12 50 -32 26z"/>
<path d="M1728 1108 c-7 -19 2 -38 17 -38 23 0 26 16 6 34 -14 13 -20 14 -23
4z"/>
<path d="M1709 1017 c-9 -6 -24 -27 -33 -46 -15 -28 -15 -35 -4 -42 21 -14 32
-11 46 11 7 12 24 25 38 31 25 9 25 11 11 32 -17 26 -36 31 -58 14z"/>
<path d="M2 893 c-2 -71 -1 -73 23 -73 14 0 29 8 35 20 10 18 7 24 -11 22 -15
-2 -38 36 -42 68 -2 19 -5 2 -5 -37z"/>
<path d="M500 914 c0 -22 2 -25 15 -14 12 10 13 16 4 26 -16 20 -19 18 -19
-12z"/>
<path d="M1666 521 c-24 -26 -13 -61 19 -61 22 0 24 3 18 33 -8 44 -17 51 -37
28z"/>
<path d="M1604 519 c-3 -6 -1 -16 5 -22 8 -8 11 -5 11 11 0 24 -5 28 -16 11z"/>
</g>
</svg>
