<?xml version="1.0" standalone="no"?>
<!DOCTYPE svg PUBLIC "-//W3C//DTD SVG 20010904//EN"
 "http://www.w3.org/TR/2001/REC-SVG-20010904/DTD/svg10.dtd">
<svg version="1.0" xmlns="http://www.w3.org/2000/svg"
 width="160px" height="160px" viewBox="0 0 1000.000000 668.000000"
 preserveAspectRatio="xMidYMid meet">

<g transform="translate(0.000000,668.000000) scale(0.100000,-0.100000)"
fill="#000000" stroke="none">
<path d="M1 5963 l0 -718 21 60 c24 73 53 115 79 115 54 0 163 -77 187 -133
16 -38 15 -98 -3 -124 -24 -34 -96 -57 -152 -48 -59 8 -113 33 -113 51 0 7 -4
16 -10 19 -7 4 -10 -129 -10 -392 l0 -397 30 32 c24 26 35 32 53 26 21 -6 21
-6 -3 16 -23 20 -21 19 24 -4 27 -14 50 -26 52 -26 3 0 -3 17 -12 38 -27 62
-26 69 1 20 14 -27 31 -48 39 -48 7 0 19 -7 26 -15 7 -8 27 -15 44 -15 59 0
188 -30 217 -51 56 -40 74 -110 44 -169 l-16 -30 101 0 c118 0 114 -4 129 134
5 45 18 97 28 115 18 31 17 32 -1 46 -17 13 -18 15 -3 15 9 0 17 6 17 14 0 17
-17 30 -22 17 -1 -5 -9 -2 -17 6 -12 13 -10 14 14 11 16 -2 30 2 32 10 3 6 -1
12 -7 12 -10 0 -6 51 6 72 7 11 64 -15 64 -29 0 -9 14 -13 43 -13 l42 1 -27
15 c-15 8 -32 24 -39 35 -7 14 -17 19 -30 16 -10 -3 -17 -1 -13 4 3 5 14 9 26
9 15 0 18 4 13 18 -25 57 -16 127 20 166 35 38 117 37 200 -3 93 -44 109 -67
113 -160 4 -75 3 -80 -24 -109 -27 -29 -46 -36 -83 -33 -10 1 -8 8 9 26 l23
25 -50 0 c-27 0 -64 5 -82 11 -18 6 -35 9 -38 5 -12 -11 20 -36 60 -47 24 -6
57 -27 79 -49 32 -32 38 -44 38 -81 0 -25 -7 -50 -16 -60 -14 -16 -15 -23 -4
-49 7 -17 10 -45 7 -64 -5 -28 0 -38 27 -65 28 -27 39 -31 88 -31 36 0 58 5
61 13 4 9 8 9 14 1 4 -7 34 -14 66 -15 48 -3 55 -2 40 9 -22 15 -11 15 55 -2
29 -8 81 -15 115 -16 34 -1 71 -2 82 -3 11 0 29 4 40 8 17 8 18 7 7 -7 -11
-13 -8 -15 20 -15 18 1 48 -3 66 -7 41 -10 47 -4 32 24 -26 48 -5 85 117 206
63 62 121 114 128 114 7 0 23 16 35 35 15 24 32 38 51 42 21 4 34 16 45 40 18
37 58 63 99 63 19 0 25 5 25 20 0 48 49 100 94 100 8 0 16 16 20 39 6 38 51
90 79 91 7 1 28 3 49 6 48 7 86 -13 156 -83 40 -39 58 -51 66 -43 8 8 7 13 -4
20 -74 46 -128 102 -136 144 -7 40 18 101 49 117 26 15 115 20 122 8 12 -18
26 -9 15 10 -14 28 -12 73 5 97 8 12 11 24 8 28 -3 3 -2 6 4 6 6 0 27 11 47
25 21 14 35 21 32 16 -3 -5 18 -11 47 -15 102 -12 130 -18 116 -27 -7 -4 -10
-12 -5 -16 4 -4 19 6 32 22 13 17 24 24 24 18 0 -17 36 -17 43 0 4 10 3 34 -2
71 0 6 -7 2 -14 -8 -12 -16 -13 -13 -12 26 1 23 -3 49 -9 57 -6 8 -12 22 -12
33 -3 37 -4 40 -19 34 -21 -8 -19 8 5 29 12 10 19 24 16 31 -9 25 63 103 96
104 9 0 19 4 22 8 3 5 -9 7 -27 5 -26 -2 -24 0 14 12 28 9 50 24 57 38 11 22
11 22 9 -3 -2 -22 5 -27 63 -46 56 -18 66 -19 68 -6 2 8 -1 18 -7 22 -8 4 -9
21 -5 50 4 25 3 41 -2 37 -5 -3 -7 33 -5 86 3 51 6 81 8 67 8 -49 12 -55 27
-34 8 10 12 23 8 28 -3 5 3 6 13 2 18 -7 18 -6 0 14 -23 26 -74 40 -100 28
-11 -5 -4 4 15 21 19 16 36 26 38 20 2 -5 12 -4 24 2 12 6 18 7 14 1 -8 -13 9
-19 87 -27 56 -6 67 -5 67 8 0 12 -13 14 -67 11 l-68 -3 72 10 c67 10 72 13
76 37 4 27 4 27 5 2 2 -24 5 -25 54 -23 l53 2 -57 -11 c-38 -7 -58 -15 -58
-24 0 -8 3 -14 8 -14 4 0 50 -7 102 -15 116 -18 180 -18 200 -2 18 15 46 62
31 52 -6 -3 -11 1 -11 10 0 10 5 13 12 9 6 -4 8 -3 5 3 -4 6 -35 6 -84 1 -121
-13 -150 -5 -35 11 l102 13 -37 69 c-20 38 -41 69 -45 69 -4 0 -33 -11 -64
-25 -76 -34 -79 -26 -4 10 33 16 60 32 60 35 0 4 -14 32 -31 63 -17 31 -28 57
-26 57 3 0 19 -25 36 -55 17 -30 35 -55 41 -55 17 0 60 23 60 33 0 5 -39 51
-88 101 -48 50 -96 102 -107 116 -10 14 33 -28 97 -92 64 -65 122 -118 129
-118 11 0 11 3 -1 10 -8 5 -10 10 -3 10 6 0 9 8 6 19 -3 10 2 30 11 43 l16 25
-104 54 c-58 29 -103 55 -102 56 2 2 47 -17 100 -42 54 -25 99 -45 100 -45 1
0 3 7 3 15 0 8 -5 11 -11 8 -6 -3 -2 3 9 14 11 11 23 19 27 17 4 -3 9 0 12 5
3 4 -61 22 -142 39 -154 33 -136 34 60 3 72 -11 116 -14 115 -8 -1 6 9 16 23
23 13 7 30 20 36 29 12 16 34 23 97 30 24 3 37 0 37 -7 0 -6 2 -9 5 -6 3 2 -6
40 -19 84 l-23 79 -204 2 -204 3 -37 -63 c-21 -34 -45 -71 -53 -82 -22 -27
-15 -12 34 68 22 37 41 70 41 72 0 3 -857 5 -1905 5 l-1905 0 1 -717z m3723
531 c3 -9 6 -20 6 -25 0 -14 -40 -11 -56 5 -12 13 -12 16 3 25 26 15 40 13 47
-5z m-3232 -124 c22 -23 41 -55 48 -81 6 -24 15 -52 21 -63 6 -10 20 -35 31
-55 11 -20 28 -45 38 -56 27 -29 46 -108 34 -142 -13 -39 -73 -66 -143 -66
-67 0 -106 14 -121 43 -7 14 -17 19 -27 16 -13 -5 -15 1 -11 39 5 37 2 47 -13
56 -32 17 -42 46 -24 73 11 16 13 26 5 31 -6 3 -8 10 -5 15 3 5 -4 19 -15 30
l-21 21 25 33 c14 19 23 36 21 38 -3 3 4 13 15 23 11 10 20 24 20 31 0 8 9 19
20 26 11 7 20 19 20 26 0 23 42 3 82 -38z m3303 -40 c9 -16 13 -30 11 -30 -3
0 -12 14 -21 30 -9 17 -13 30 -11 30 3 0 12 -13 21 -30z m-86 -253 c-24 -19
-79 -44 -79 -37 0 6 15 16 33 24 29 13 56 20 46 13z m-130 -61 c-10 -9 -69
-36 -69 -32 0 7 52 35 64 36 5 0 7 -2 5 -4z m-2573 -116 c148 -73 198 -188
108 -247 -59 -38 -197 -1 -280 76 -47 43 -49 61 -14 120 16 29 30 55 30 59 0
5 6 14 13 21 17 18 70 7 143 -29z m-424 -173 c106 -41 178 -120 178 -197 0
-46 -17 -69 -63 -91 -75 -34 -168 -19 -243 38 -52 39 -58 64 -32 126 27 65 79
147 93 146 5 0 36 -10 67 -22z m2595 -113 c-3 -3 -12 -4 -19 -1 -8 3 -5 6 6 6
11 1 17 -2 13 -5z m-2134 -353 c65 -28 125 -85 133 -127 7 -39 -13 -159 -32
-191 -40 -64 -182 -46 -275 35 -30 26 -38 42 -49 101 -18 95 -10 145 30 183
31 29 36 30 90 25 31 -4 77 -15 103 -26z m-633 -337 c73 -29 120 -113 98 -175
-12 -36 -71 -69 -123 -69 -53 0 -127 21 -149 42 -11 10 -23 18 -28 18 -24 0
12 156 45 199 14 16 98 9 157 -15z m-133 -466 c0 -7 -11 -14 -24 -14 -22 -2
-23 -1 -6 12 23 17 30 17 30 2z"/>
<path d="M4250 6673 c0 -4 10 -35 22 -70 16 -48 25 -63 36 -58 8 3 24 -2 34
-12 19 -17 21 -17 59 5 l39 23 1 -23 c0 -13 3 -17 6 -10 2 6 14 12 24 12 31 0
59 19 59 40 0 10 7 25 15 34 8 8 15 27 14 43 l-1 28 -8 -25 c-8 -24 -8 -24 -9
-2 -1 22 -3 22 -146 22 -80 0 -145 -3 -145 -7z"/>
<path d="M9738 6673 c10 -4 6 -14 -15 -37 -26 -29 -25 -29 10 3 20 19 37 36
37 38 0 2 -10 3 -22 2 -13 0 -17 -3 -10 -6z"/>
<path d="M9770 6655 c-13 -14 -18 -25 -11 -25 7 0 10 -4 6 -9 -3 -5 0 -13 6
-16 5 -4 8 -14 5 -22 -3 -8 -1 -11 4 -8 6 3 10 2 10 -3 0 -8 188 -102 204
-102 3 0 6 47 6 105 l0 105 -103 0 c-97 0 -105 -1 -127 -25z"/>
<path d="M9783 6536 c17 -13 22 -52 14 -107 -4 -25 -2 -26 83 -37 126 -17 122
-18 118 24 -3 34 -6 36 -98 78 -52 23 -104 46 -115 49 -19 7 -19 6 -2 -7z"/>
<path d="M9785 6338 c-4 -24 -14 -55 -21 -70 -8 -15 -14 -31 -13 -35 5 -28 -1
-35 -18 -22 -16 13 -17 12 -5 -3 11 -14 19 -15 40 -7 22 9 29 7 42 -9 8 -11
25 -32 38 -48 12 -15 22 -32 22 -37 0 -5 7 -3 17 4 9 8 18 13 20 12 11 -9 33
-1 33 11 0 19 21 26 43 14 16 -8 17 0 17 100 l0 109 -82 11 c-127 18 -125 19
-133 -30z"/>
<path d="M3928 6178 c-16 -5 -28 -13 -28 -18 0 -5 17 -38 38 -74 l38 -66 20
43 c19 40 20 43 3 59 -10 9 -20 14 -22 11 -3 -3 -3 5 0 16 5 18 8 19 22 9 10
-8 10 -5 -3 10 -21 24 -28 25 -68 10z"/>
<path d="M3440 5930 c0 -4 16 -14 36 -23 19 -10 33 -13 30 -8 -4 5 6 11 21 13
20 2 12 6 -29 13 -32 6 -58 8 -58 5z"/>
<path d="M3760 5887 c3 -3 17 -7 32 -9 14 -2 32 -9 41 -16 16 -14 42 -12 72 6
20 11 20 11 -1 12 -12 0 -50 3 -85 6 -35 4 -62 4 -59 1z"/>
<path d="M9971 5703 c0 -10 7 -34 14 -53 l13 -35 1 53 c1 40 -2 52 -14 52 -8
0 -15 -8 -14 -17z"/>
<path d="M9925 5462 c-45 -20 -77 -26 -127 -27 -38 0 -68 -3 -68 -7 0 -5 13
-8 30 -8 36 0 70 -46 101 -137 27 -82 23 -101 -28 -138 -38 -27 -42 -33 -37
-60 3 -16 8 -57 10 -90 3 -32 7 -62 10 -65 3 -2 46 38 94 90 l89 95 1 188 c0
103 -3 186 -7 186 -5 -1 -35 -13 -68 -27z"/>
<path d="M9654 5448 c3 -13 5 -25 5 -28 1 -3 12 -7 26 -8 32 -2 33 21 3 42
-31 22 -39 20 -34 -6z"/>
<path d="M3114 5188 c-10 -13 -15 -20 -11 -16 10 8 47 -27 47 -44 1 -7 7 5 15
27 11 30 11 41 2 47 -20 13 -33 9 -53 -14z"/>
<path d="M9911 5009 c-44 -51 -81 -100 -81 -109 0 -21 126 -330 140 -344 7 -7
10 -5 11 5 1 7 4 3 8 -11 5 -14 9 104 10 263 1 158 0 287 -2 287 -2 0 -41 -41
-86 -91z"/>
<path d="M9773 4976 c-9 -11 -8 -17 6 -30 16 -15 17 -14 13 14 -2 17 -5 30 -6
30 0 -1 -6 -7 -13 -14z"/>
<path d="M9780 4852 c-32 -47 -36 -57 -20 -47 9 5 11 4 6 -4 -4 -6 -11 -9 -16
-6 -12 7 -41 -36 -33 -48 3 -6 2 -7 -3 -4 -6 3 -15 -2 -20 -11 -10 -15 -6 -17
28 -19 51 -2 61 -12 83 -83 17 -57 20 -60 64 -74 69 -22 86 -23 83 -6 -7 32
-137 340 -144 340 -2 0 -14 -17 -28 -38z"/>
<path d="M9740 4840 c-12 -16 -19 -30 -16 -30 2 0 14 14 26 30 12 17 19 30 16
30 -2 0 -14 -13 -26 -30z"/>
<path d="M8805 4620 c-3 -5 -17 -10 -31 -10 -13 0 -24 -5 -24 -11 0 -6 -6 -9
-13 -6 -10 4 -13 -2 -9 -18 4 -23 18 -24 62 -8 8 4 19 5 24 4 5 -1 6 5 2 14
-3 9 -2 14 3 11 11 -7 36 22 27 31 -3 3 -6 1 -6 -7 0 -10 -3 -10 -14 -1 -10 8
-16 9 -21 1z m-35 -35 c0 -8 -4 -15 -10 -15 -5 0 -7 7 -4 15 4 8 8 15 10 15 2
0 4 -7 4 -15z"/>
<path d="M8866 4611 c-4 -5 3 -7 14 -4 23 6 26 13 6 13 -8 0 -17 -4 -20 -9z"/>
<path d="M4911 4568 c-1 -21 15 -32 25 -17 4 7 3 9 -4 5 -6 -3 -13 2 -15 11
-4 16 -5 16 -6 1z"/>
<path d="M8541 4534 c0 -11 3 -14 6 -6 3 7 2 16 -1 19 -3 4 -6 -2 -5 -13z"/>
<path d="M9820 4527 c0 -12 -13 -38 -30 -57 -16 -19 -29 -40 -30 -47 0 -6 -5
-13 -10 -15 -6 -2 -8 -16 -4 -35 4 -18 11 -30 16 -27 5 3 7 13 3 23 -5 14 -4
14 12 -2 17 -16 21 -14 97 60 l80 78 -59 -70 c-33 -38 -53 -65 -45 -59 8 6 32
17 52 23 31 10 39 19 48 51 14 53 6 67 -55 85 -69 20 -75 19 -75 -8z"/>
<path d="M8505 4531 c-3 -5 -1 -12 5 -16 5 -3 10 1 10 9 0 18 -6 21 -15 7z"/>
<path d="M9967 4469 c-12 -43 -8 -58 13 -56 24 2 27 34 7 62 -13 17 -14 17
-20 -6z"/>
<path d="M4440 4432 c0 -5 24 -22 53 -37 41 -22 60 -26 83 -21 27 7 28 9 11
21 -10 7 -39 16 -65 20 -26 4 -55 11 -64 16 -11 6 -18 6 -18 1z"/>
<path d="M4350 4423 c-8 -3 -23 -12 -32 -21 -11 -9 -18 -11 -18 -4 0 19 -49
-5 -76 -37 -26 -32 -106 -65 -121 -50 -5 5 -30 12 -56 15 -47 7 -59 -3 -39
-32 14 -22 140 -38 161 -21 12 10 13 9 6 -2 -6 -11 -4 -13 8 -8 8 3 33 9 54
13 21 4 43 10 48 14 6 4 40 15 77 24 53 14 68 22 71 39 l4 22 2 -21 c1 -20 4
-21 41 -12 22 6 40 14 40 18 0 13 -111 70 -134 69 -12 0 -28 -3 -36 -6z"/>
<path d="M9721 4357 c0 -9 -17 -25 -36 -34 -38 -18 -47 -34 -15 -26 11 3 20
10 20 16 0 6 3 8 6 4 11 -11 36 22 31 41 -4 16 -5 16 -6 -1z"/>
<path d="M1082 4207 c-10 -11 -9 -17 3 -27 8 -7 15 -9 15 -5 0 4 7 2 15 -5 25
-21 26 -6 2 24 -20 24 -25 26 -35 13z"/>
<path d="M0 3757 l0 -325 23 -15 c23 -15 24 -14 46 30 28 57 38 51 12 -8 -11
-24 -17 -47 -15 -51 3 -5 24 3 48 17 24 14 52 25 64 25 24 0 26 6 40 107 l9
62 -31 11 c-22 8 -32 7 -38 -2 -19 -31 -5 10 27 78 19 40 35 78 35 83 0 5 -10
12 -22 14 -17 3 -14 5 10 6 17 0 32 5 32 10 0 5 3 18 7 28 3 10 3 15 -2 11
-11 -10 -35 24 -74 105 -18 38 -39 71 -47 74 -8 3 -14 13 -14 22 -1 11 -5 8
-15 -9 l-14 -25 -1 26 c0 20 -6 28 -24 33 -13 3 -31 9 -40 12 -14 6 -16 -26
-16 -319z"/>
<path d="M205 3701 c-29 -58 -32 -70 -19 -75 20 -8 59 -8 52 0 -3 3 0 31 8 62
16 69 17 82 4 82 -5 0 -25 -31 -45 -69z"/>
<path d="M3513 3630 l-21 -40 27 0 c25 0 26 2 23 40 -2 22 -5 40 -6 40 0 0
-11 -18 -23 -40z"/>
<path d="M3275 3564 c-10 -10 -15 -29 -13 -48 3 -27 7 -31 35 -34 62 -6 108
-99 66 -133 -9 -8 -34 -14 -57 -14 l-41 0 -3 -115 c-5 -175 -6 -172 86 -203
59 -21 100 -28 176 -29 l99 -3 38 112 c31 95 35 111 20 103 -10 -5 -21 -6 -25
-3 -3 3 -6 -1 -6 -11 0 -28 -47 10 -66 55 -16 34 -19 36 -30 21 -12 -15 -13
-15 -14 6 0 27 -20 50 -38 44 -7 -2 -10 2 -6 12 10 26 -15 46 -60 48 -37 1
-38 2 -8 5 23 3 36 12 47 33 15 29 15 30 -27 60 -23 17 -49 28 -57 25 -23 -7
-84 32 -77 50 3 9 0 12 -10 8 -7 -3 -14 -1 -14 5 0 6 6 13 13 15 8 4 9 6 0 6
-6 1 -19 -6 -28 -15z"/>
<path d="M3472 3568 c-16 -20 32 -98 59 -98 18 0 20 6 17 53 -3 50 -4 52 -34
55 -17 2 -36 -3 -42 -10z"/>
<path d="M3560 3544 c0 -16 3 -40 7 -53 l6 -23 13 23 c14 24 19 78 7 66 -3 -4
-12 -2 -20 4 -10 9 -13 6 -13 -17z"/>
<path d="M3611 3529 c-16 -45 -15 -64 3 -50 11 9 12 6 8 -14 -2 -15 0 -25 7
-25 6 0 11 -7 11 -15 0 -8 7 -15 15 -15 9 0 12 -6 9 -15 -4 -8 -2 -15 4 -15 6
0 8 -9 5 -20 -4 -15 2 -22 22 -30 14 -5 30 -10 34 -10 10 0 35 56 62 143 26
82 22 88 -57 95 -51 4 -59 2 -76 -19 -19 -24 -19 -24 -13 -1 10 36 -21 27 -34
-9z"/>
<path d="M4328 3543 c6 -2 18 -2 25 0 6 3 1 5 -13 5 -14 0 -19 -2 -12 -5z"/>
<path d="M4400 3540 c0 -5 5 -10 10 -10 6 0 10 5 10 10 0 6 -4 10 -10 10 -5 0
-10 -4 -10 -10z"/>
<path d="M3440 3515 c-12 -15 -11 -19 10 -36 65 -51 82 -40 32 20 -26 31 -29
32 -42 16z"/>
<path d="M9460 3486 c-17 -8 -24 -19 -23 -35 2 -12 -1 -20 -5 -17 -5 3 -9 -1
-9 -8 0 -8 7 -12 15 -8 9 3 13 1 9 -5 -3 -5 3 -19 13 -31 21 -23 27 -37 10
-27 -24 15 -7 -4 18 -21 26 -17 27 -17 12 1 -15 18 -14 18 13 1 25 -17 40 -35
15 -20 -7 4 -8 3 -4 -5 5 -8 13 -7 29 4 24 17 51 20 42 5 -4 -6 -12 -7 -18 -4
-7 4 -9 3 -4 -1 4 -5 18 -10 30 -11 12 -2 17 -1 10 2 -8 4 -6 17 7 47 10 23
20 61 24 84 7 48 9 48 -99 57 -39 3 -69 1 -85 -8z"/>
<path d="M3980 3445 c0 -8 -4 -15 -10 -15 -18 0 -10 -38 35 -171 49 -143 67
-179 91 -179 8 0 28 -7 44 -15 36 -19 40 -9 27 72 -15 91 2 159 57 220 38 43
42 51 33 76 -7 21 -13 27 -26 22 -49 -21 -91 -26 -148 -20 -35 4 -63 11 -63
16 0 5 -9 9 -20 9 -11 0 -20 -7 -20 -15z"/>
<path d="M5166 3435 c-14 -11 -16 -15 -5 -15 26 0 59 12 59 21 0 14 -33 10
-54 -6z"/>
<path d="M8925 3442 c-6 -5 -38 -17 -72 -27 -51 -15 -64 -23 -74 -48 -11 -27
-10 -35 17 -84 l29 -54 40 7 c22 3 47 10 56 15 25 13 84 159 72 179 -11 17
-53 25 -68 12z"/>
<path d="M4725 3429 c-11 -16 -2 -17 30 -3 l30 13 -27 1 c-15 0 -30 -5 -33
-11z"/>
<path d="M752 3407 c-18 -21 -21 -62 -6 -82 13 -18 16 -18 48 -3 41 20 57 65
30 85 -23 17 -59 17 -72 0z"/>
<path d="M3807 3390 c-4 -14 0 -20 12 -20 10 0 17 8 17 20 0 11 -6 20 -12 20
-6 0 -14 -9 -17 -20z"/>
<path d="M4930 3390 c23 -20 30 -24 30 -16 0 9 -32 36 -42 36 -6 0 -1 -9 12
-20z"/>
<path d="M1156 3384 c-29 -76 48 -136 143 -111 33 9 41 16 41 35 0 33 -42 70
-92 82 -61 14 -85 12 -92 -6z"/>
<path d="M4750 3373 c-19 -10 -35 -23 -35 -30 0 -6 -3 -14 -7 -18 -4 -4 -4
-13 -1 -21 3 -9 -2 -14 -16 -14 -15 0 -23 -10 -31 -41 -6 -23 -9 -43 -6 -46 3
-3 31 4 62 16 31 11 67 21 81 21 32 0 95 29 87 41 -4 8 25 14 49 10 15 -2 -24
59 -48 75 -38 25 -95 28 -135 7z"/>
<path d="M5688 3380 c-15 -9 -14 -13 8 -35 24 -24 93 -37 79 -15 -3 6 1 7 9 4
21 -8 20 9 -1 28 -24 21 -74 30 -95 18z"/>
<path d="M605 3370 c3 -5 11 -10 16 -10 6 0 7 5 4 10 -3 6 -11 10 -16 10 -6 0
-7 -4 -4 -10z"/>
<path d="M1997 3373 c-8 -7 11 -33 24 -33 5 0 9 9 9 20 0 19 -20 27 -33 13z"/>
<path d="M5183 3373 c9 -2 23 -2 30 0 6 3 -1 5 -18 5 -16 0 -22 -2 -12 -5z"/>
<path d="M160 3358 c0 -6 3 -8 7 -5 3 4 13 1 22 -6 14 -11 14 -10 2 6 -15 20
-31 22 -31 5z"/>
<path d="M2966 3361 c-26 -4 -42 -13 -47 -26 -4 -11 -8 -14 -8 -7 -1 6 -11 12
-23 11 -22 0 -22 -1 -3 -9 16 -6 17 -9 5 -14 -9 -4 -15 -20 -16 -40 -1 -43
-23 -96 -40 -96 -8 0 -14 -7 -14 -16 0 -8 5 -12 10 -9 6 3 10 0 10 -8 0 -21
37 -50 55 -43 8 3 20 16 25 28 5 13 9 17 9 11 1 -7 13 -13 29 -13 15 0 38 -9
51 -19 23 -17 66 -18 76 0 3 4 12 6 20 2 20 -7 20 -7 -14 84 -33 90 -72 174
-80 172 -4 -1 -24 -5 -45 -8z"/>
<path d="M3805 3350 c3 -5 8 -10 11 -10 2 0 4 5 4 10 0 6 -5 10 -11 10 -5 0
-7 -4 -4 -10z"/>
<path d="M4253 3338 c-50 -55 -69 -155 -42 -225 27 -72 113 -122 188 -108 56
11 61 19 60 104 0 54 -3 70 -9 54 -9 -21 -38 -43 -59 -43 -16 0 -51 41 -67 78
-9 22 -18 31 -25 26 -9 -5 -10 -2 -4 12 18 43 12 124 -9 124 -7 0 -22 -10 -33
-22z"/>
<path d="M5150 3356 c0 -9 40 -13 46 -5 3 5 -6 9 -20 9 -14 0 -26 -2 -26 -4z"/>
<path d="M3856 3338 c4 -6 6 -31 5 -55 l-1 -43 54 0 55 0 -9 28 c-23 77 -27
82 -70 82 -29 0 -39 -4 -34 -12z"/>
<path d="M7830 3331 c0 -5 -10 -8 -22 -6 -12 3 -28 -1 -37 -8 -12 -10 -13 -9
-7 3 4 9 2 8 -7 -2 -8 -10 -17 -15 -20 -11 -4 3 -7 -2 -7 -12 0 -15 6 -17 43
-11 45 7 87 38 68 50 -6 4 -11 3 -11 -3z"/>
<path d="M6203 3316 c6 -14 4 -17 -8 -12 -9 3 -13 2 -10 -4 8 -12 32 -13 39
-1 3 5 -2 15 -11 22 -15 12 -16 12 -10 -5z"/>
<path d="M8972 3305 c-15 -32 -15 -32 2 -32 8 0 13 12 14 29 1 35 -2 35 -16 3z"/>
<path d="M300 3304 c0 -8 5 -12 10 -9 6 3 10 10 10 16 0 5 -4 9 -10 9 -5 0
-10 -7 -10 -16z"/>
<path d="M3680 3316 c0 -2 7 -7 16 -10 8 -3 12 -2 9 4 -6 10 -25 14 -25 6z"/>
<path d="M8461 3293 c-17 -18 -10 -42 62 -218 25 -60 48 -123 51 -140 l6 -30
-16 29 -16 28 -20 -32 -20 -33 42 -61 41 -61 -48 50 c-26 28 -45 46 -41 41 4
-5 3 -15 -3 -23 -7 -7 -7 -13 -2 -13 5 0 10 -13 10 -30 0 -16 -4 -27 -9 -24
-4 3 -8 3 -8 0 0 -3 17 -17 37 -31 43 -28 40 -31 -9 -11 l-34 15 1 -37 c0 -33
3 -38 30 -43 l30 -7 -32 -1 c-30 -1 -31 -3 -24 -28 5 -16 6 -38 4 -51 -3 -20
0 -22 19 -17 l23 6 -21 -18 c-21 -19 -32 -55 -40 -133 -2 -25 -12 -78 -20
-119 -17 -77 -30 -95 -118 -169 -24 -21 -27 -28 -21 -60 6 -34 5 -35 -8 -18
-13 18 -14 18 -21 -5 -13 -40 -14 -63 -4 -75 5 -8 3 -14 -5 -17 -16 -6 -29
-67 -14 -67 5 0 7 -6 4 -12 -2 -7 -9 -12 -15 -11 -6 1 -7 -10 -2 -32 4 -19 5
-37 2 -40 -4 -3 1 -3 9 0 13 5 15 0 11 -25 -2 -18 0 -30 7 -30 6 0 10 -3 10
-7 -4 -26 2 -35 15 -24 12 10 14 6 14 -21 0 -18 3 -42 5 -53 2 -11 0 -26 -6
-32 -6 -9 -6 -13 2 -13 6 0 11 -7 11 -15 0 -13 -4 -14 -21 -5 -24 13 -23 14
-44 -25 l-16 -30 7 37 c6 36 6 37 -27 36 -18 -1 -35 4 -37 10 -2 7 -8 10 -13
6 -5 -3 -9 0 -9 5 0 6 -3 10 -7 9 -5 0 -16 2 -26 7 -13 5 -27 0 -50 -21 -27
-25 -29 -25 -11 -4 39 48 49 64 37 56 -9 -5 -13 -1 -13 10 0 10 -3 14 -6 11
-11 -11 -87 140 -78 154 3 5 -5 9 -18 9 -20 1 -21 2 -6 10 14 8 15 16 7 43 -6
17 -7 64 -4 104 l7 72 -31 16 c-29 15 -41 39 -23 47 5 2 12 18 15 36 8 38 -8
50 -45 32 l-23 -11 24 19 23 19 -51 37 c-50 37 -110 59 -95 35 5 -8 3 -9 -7
-3 -24 15 -47 14 -63 -1 -8 -8 -23 -12 -33 -9 -17 5 -17 5 0 -9 9 -8 17 -19
17 -24 0 -5 11 -15 25 -21 15 -7 25 -20 25 -32 0 -11 7 -23 16 -27 12 -4 13
-7 3 -14 -28 -17 19 -20 53 -4 l33 17 -35 -30 c-33 -28 -34 -29 -12 -36 27 -9
39 -52 23 -78 -6 -10 -9 -23 -6 -28 7 -11 -16 -62 -34 -76 -20 -16 -57 2 -66
30 -6 19 -7 19 -16 -9 -5 -16 -7 -47 -6 -67 2 -21 0 -38 -5 -38 -4 0 -8 -5 -8
-11 0 -7 20 -9 63 -5 l62 5 -63 -13 c-35 -7 -68 -19 -72 -26 -10 -16 -80 -41
-93 -33 -5 3 -12 1 -16 -5 -8 -14 -67 0 -63 14 1 5 -9 10 -23 12 -20 3 -24 6
-16 16 28 33 -96 64 -166 42 -18 -6 -22 -4 -17 7 3 10 -2 18 -15 22 -26 8 -37
1 -57 -37 -16 -30 -16 -31 7 -25 21 6 21 5 6 -11 -16 -15 -15 -17 5 -29 l23
-12 -25 -1 c-19 -1 -14 -6 25 -21 46 -19 220 -69 255 -74 8 -1 35 -12 60 -24
l45 -21 -40 5 c-39 5 -39 5 -15 -9 14 -9 20 -15 14 -16 -19 0 15 -64 45 -84
14 -10 35 -29 45 -43 20 -28 32 -98 14 -87 -6 4 -8 -1 -4 -13 10 -32 -37 -75
-77 -72 -17 2 -39 8 -47 13 -8 6 -4 -7 10 -29 l23 -40 -34 32 c-31 29 -62 39
-112 35 -11 -1 -15 -7 -11 -14 5 -7 2 -9 -9 -5 -26 10 -30 -28 -7 -73 12 -23
19 -44 16 -47 -2 -3 -19 22 -35 56 -17 34 -34 61 -37 61 -3 0 -4 -6 -1 -14 3
-8 -7 -24 -23 -36 -16 -13 -27 -26 -25 -30 5 -8 -18 -21 -49 -27 -29 -5 -33
-13 -6 -13 23 0 23 0 4 -14 -12 -9 -21 -11 -25 -4 -4 6 -20 7 -38 3 -42 -9
-30 -25 20 -25 28 0 39 -4 39 -15 0 -11 -12 -15 -50 -15 -27 0 -50 -4 -50 -10
0 -5 9 -10 19 -10 10 0 21 -6 24 -13 4 -10 -2 -13 -21 -10 -15 2 -21 0 -14 -3
6 -3 12 -14 12 -24 0 -11 10 -22 23 -26 21 -7 21 -7 2 -15 -11 -4 -15 -8 -8
-8 7 -1 20 -9 30 -19 10 -11 47 -26 83 -35 l65 -16 59 57 60 57 -48 -58 c-27
-32 -47 -59 -45 -61 7 -6 169 -44 169 -40 0 3 -7 21 -15 41 -23 54 -18 54 13
-1 20 -36 37 -53 62 -63 l35 -13 -33 6 -33 6 32 -64 32 -64 56 2 56 3 -52 -10
c-50 -10 -52 -11 -42 -35 25 -67 23 -67 96 -29 37 19 69 33 70 31 2 -2 -28
-20 -66 -40 l-69 -36 25 -53 c63 -129 113 -240 110 -244 -2 -2 -35 62 -72 142
-38 80 -71 145 -74 145 -3 0 -166 -81 -361 -179 -195 -99 -356 -178 -358 -177
-3 3 464 246 621 323 48 23 87 46 87 50 0 21 -36 93 -45 89 -6 -2 -88 -12
-183 -22 -94 -10 -166 -22 -159 -26 7 -5 3 -8 -13 -7 -14 0 -44 -4 -68 -9 -24
-5 -45 -6 -48 -1 -20 32 -60 -2 -364 -306 l-314 -314 1752 -1 1752 0 0 1080
-1 1081 -22 -7 c-12 -3 -23 -7 -24 -8 -1 -1 -5 -22 -8 -46 l-6 -45 25 30 c44
51 29 20 -54 -112 -57 -93 -75 -129 -65 -131 8 -2 15 -10 15 -17 0 -7 6 -16
13 -18 10 -4 10 -6 0 -6 -7 -1 -13 -9 -13 -18 0 -21 -66 -96 -95 -110 -11 -5
-27 -9 -35 -9 -8 1 -23 -8 -32 -19 -19 -22 -24 -14 -9 14 8 14 6 17 -11 17
-32 -1 -76 61 -81 117 -5 42 -2 52 23 81 l28 32 -29 59 c-16 33 -29 75 -29 94
0 39 -9 35 -28 -12 l-12 -32 3 33 c2 18 -1 32 -7 32 -6 0 -5 4 3 9 8 5 27 58
41 118 24 98 25 109 11 121 -14 12 -14 13 0 9 13 -4 20 9 34 65 9 39 23 87 31
107 l14 36 -6 -40 c-3 -22 -8 -49 -10 -60 -2 -11 -1 -14 2 -7 21 45 176 58
241 20 18 -11 33 -26 33 -34 0 -8 4 -14 9 -14 20 0 34 -132 18 -168 -10 -23 1
-41 26 -42 13 0 7 76 -13 156 -10 44 -22 99 -24 124 -5 35 -1 28 18 -35 l24
-80 1 145 c1 124 -2 149 -17 175 -54 88 -73 224 -41 287 l20 39 -27 22 c-15
12 -42 36 -60 53 -33 31 -54 29 -54 -4 0 -19 -17 -6 -23 18 -3 13 -1 18 5 13
8 -4 9 5 5 27 -4 18 -7 41 -7 51 0 12 -7 19 -19 19 -11 0 -23 5 -26 10 -4 6
-11 8 -16 5 -5 -4 -9 -1 -9 4 0 6 -3 10 -7 9 -15 -3 -73 14 -73 21 0 10 -51
33 -58 27 -2 -3 -13 -1 -23 5 -45 24 -11 -4 96 -80 63 -45 115 -84 115 -86 0
-5 -72 40 -170 105 -80 53 -85 56 -74 39 5 -8 9 -25 10 -39 1 -24 -1 -25 -43
-21 -64 5 -103 -6 -143 -38 -29 -25 -34 -34 -32 -67 3 -35 -22 -104 -41 -112
-4 -2 -5 -8 -1 -13 3 -5 1 -9 -4 -9 -5 0 -12 -8 -16 -17 -3 -10 -10 -28 -15
-40 -10 -22 -10 -22 37 -8 25 8 47 13 49 11 2 -1 -20 -13 -47 -26 -28 -13 -50
-27 -50 -32 0 -5 -5 -6 -12 -2 -7 4 -8 3 -4 -4 6 -10 18 -153 17 -206 0 -18 1
-18 22 1 51 45 59 43 14 -3 -26 -28 -45 -52 -43 -55 9 -8 15 -59 7 -59 -4 0
-7 -12 -6 -27 0 -22 9 -33 40 -51 38 -22 33 -23 -29 -5 -17 5 -18 -1 -12 -108
7 -154 9 -229 5 -258 -3 -19 1 -26 21 -31 l25 -6 -22 -8 c-13 -4 -23 -15 -23
-24 0 -21 37 -82 49 -82 16 0 25 -89 12 -117 -10 -21 -9 -29 4 -43 21 -23 19
-35 -10 -66 l-24 -26 39 -40 c21 -22 46 -55 55 -75 15 -32 15 -36 1 -52 -9
-10 -16 -31 -16 -48 0 -38 -23 -58 -83 -75 -44 -11 -48 -15 -43 -38 5 -21 3
-20 -11 7 -10 21 -28 37 -49 43 -18 6 -56 33 -85 60 -28 28 -55 47 -60 45 -4
-3 -15 5 -23 17 -19 29 -9 72 18 76 10 2 28 12 39 22 11 11 24 17 29 14 10 -6
10 -6 -1 34 -12 40 -6 41 14 3 16 -32 41 -33 70 -1 26 29 15 51 -33 65 -23 7
-49 19 -57 25 -12 10 -15 9 -15 -6 0 -13 -6 -9 -21 16 -12 19 -25 37 -30 38
-5 2 -7 8 -3 13 3 5 -1 9 -8 9 -26 0 -49 55 -42 99 5 31 3 42 -9 46 -9 4 -13
14 -10 26 4 15 8 17 13 8 5 -6 15 -9 23 -6 11 4 15 28 16 107 1 61 8 120 17
147 9 25 13 47 11 49 -3 3 -1 20 3 39 5 22 4 40 -4 50 -10 13 -16 12 -51 -11
l-40 -27 27 29 27 29 -20 30 c-13 20 -19 43 -17 68 2 36 0 40 -37 57 -44 20
-38 25 14 10 19 -5 31 -7 28 -4 -3 3 -1 19 3 35 5 17 5 40 1 51 -5 15 -1 35
15 64 l23 42 -56 -19 c-81 -28 -78 -22 12 22 63 30 73 38 45 34 -19 -3 -28 -2
-20 1 8 4 18 12 22 18 12 18 9 81 -4 95 -11 11 -10 12 2 6 10 -5 8 0 -5 16
-11 13 -21 26 -23 29 -2 3 -33 -26 -69 -65 -72 -77 -76 -84 47 69 9 13 10 17
2 12 -9 -5 -25 5 -46 30 l-33 39 -32 -60 c-34 -64 -35 -60 -3 22 19 46 19 52
5 57 -9 4 -38 -1 -65 -10 -31 -10 -63 -14 -86 -10 -44 8 -112 38 -112 49 0 5
-9 22 -21 39 -12 16 -19 32 -16 35 3 3 -3 14 -14 26 -18 20 -24 41 -21 79 2
22 -20 29 -37 11z m86 -235 c-3 -8 -6 -5 -6 6 -1 11 2 17 5 13 3 -3 4 -12 1
-19z m1290 -60 c-3 -8 -6 -5 -6 6 -1 11 2 17 5 13 3 -3 4 -12 1 -19z m38 -134
c15 -63 25 -117 23 -120 -4 -4 -59 210 -58 229 0 27 12 -8 35 -109z m32 -156
c-3 -8 -6 -5 -6 6 -1 11 2 17 5 13 3 -3 4 -12 1 -19z m-1217 -47 c0 -6 -4 -13
-10 -16 -5 -3 -10 1 -10 9 0 9 5 16 10 16 6 0 10 -4 10 -9z m-1137 -947 c-7
-19 -10 -18 -16 5 -3 13 -1 18 9 14 7 -2 10 -11 7 -19z m577 -254 c18 -12 2
-12 -25 0 -13 6 -15 9 -5 9 8 0 22 -4 30 -9z m47 -16 c-3 -3 -12 -4 -19 -1 -8
3 -5 6 6 6 11 1 17 -2 13 -5z m27 -96 c-2 -24 -1 -37 2 -30 5 10 12 6 25 -15
28 -42 25 -63 -8 -57 -15 3 -30 10 -34 15 -3 6 -14 -5 -23 -23 l-17 -33 6 35
c6 34 45 150 50 150 2 0 1 -19 -1 -42z m-715 -293 c0 -5 -6 1 -14 15 -8 14
-14 30 -14 35 0 6 6 -1 14 -15 8 -14 14 -29 14 -35z m24 -32 c-3 -7 -9 -10
-14 -7 -14 8 -11 21 5 21 8 0 12 -6 9 -14z m-80 -380 c-7 -2 -19 -2 -25 0 -7
3 -2 5 12 5 14 0 19 -2 13 -5z m1377 -358 c0 -8 4 -15 9 -15 5 0 11 7 15 15 3
8 10 15 16 15 6 0 8 -5 4 -11 -3 -6 0 -15 7 -20 12 -8 12 -10 0 -18 -8 -5 -11
-16 -6 -30 4 -12 2 -21 -4 -21 -6 0 -11 -9 -11 -20 0 -11 -4 -20 -10 -20 -5 0
-10 9 -10 20 0 11 -4 20 -10 20 -5 0 -10 -9 -10 -20 0 -11 -4 -20 -10 -20 -5
0 -10 9 -10 19 0 11 -5 23 -11 26 -6 5 -4 12 8 21 16 12 16 15 3 25 -11 8 -12
12 -2 16 6 2 12 11 12 19 0 8 5 14 10 14 6 0 10 -7 10 -15z m148 3 c19 -19 14
-44 -14 -77 l-26 -31 31 0 c17 0 31 -4 31 -10 0 -5 -22 -10 -50 -10 -27 0 -50
3 -50 6 0 3 14 23 31 44 37 45 34 74 -6 64 -23 -6 -33 4 -18 19 11 11 58 8 71
-5z m102 -48 c0 -33 4 -60 10 -60 6 0 10 -4 10 -10 0 -5 -20 -10 -45 -10 -46
0 -61 14 -25 23 16 4 20 14 20 46 0 30 -4 41 -15 41 -18 0 -20 16 -2 23 40 17
47 9 47 -53z m121 44 c10 -12 10 -20 1 -34 -7 -12 -8 -21 -2 -25 6 -3 10 -17
10 -30 0 -26 -30 -40 -66 -33 -30 6 -29 29 1 26 33 -4 47 21 16 29 -12 3 -21
9 -21 13 0 4 9 10 21 13 30 8 18 33 -15 29 -26 -3 -36 12 -13 21 25 11 55 7
68 -9z m109 1 c17 -21 18 -89 1 -109 -18 -22 -58 -20 -71 3 -5 11 -10 34 -10
51 0 17 5 40 10 51 13 23 52 25 70 4z m110 -4 c15 -28 13 -36 -16 -70 l-26
-31 26 0 c14 0 26 -4 26 -10 0 -5 -20 -10 -45 -10 -25 0 -45 3 -45 6 0 4 14
22 31 41 37 42 35 69 -4 65 -27 -3 -38 12 -14 21 27 12 57 6 67 -12z m90 -41
c0 -47 3 -60 15 -60 8 0 15 -4 15 -10 0 -5 -20 -10 -45 -10 -25 0 -45 5 -45
10 0 6 9 10 20 10 17 0 20 7 20 45 0 33 -4 45 -15 45 -18 0 -20 16 -2 23 32
14 37 7 37 -53z m140 50 c0 -5 -13 -10 -30 -10 -20 0 -30 -5 -30 -15 0 -8 8
-15 18 -15 39 0 58 -55 28 -79 -19 -16 -68 -10 -74 8 -3 9 2 11 17 6 26 -8 52
10 44 31 -3 8 -16 14 -29 14 -21 0 -24 5 -24 35 0 34 1 35 40 35 22 0 40 -4
40 -10z m100 -10 c11 -21 2 -48 -28 -82 -14 -17 -13 -18 11 -18 15 0 27 -4 27
-10 0 -5 -20 -10 -45 -10 -25 0 -45 3 -45 6 0 4 14 22 31 41 36 42 35 69 -4
66 -28 -2 -37 11 -14 20 28 12 57 6 67 -13z m120 10 c0 -5 -13 -10 -30 -10
-20 0 -30 -5 -30 -15 0 -8 8 -15 19 -15 40 0 55 -61 20 -83 -19 -12 -69 -1
-69 14 0 6 9 8 20 4 25 -8 51 11 43 31 -3 8 -16 14 -29 14 -21 0 -24 5 -24 35
0 34 1 35 40 35 22 0 40 -4 40 -10z m-2960 -115 c0 -3 -63 -36 -140 -75 -77
-39 -140 -68 -140 -65 0 4 265 142 278 144 1 1 2 -1 2 -4z m808 -122 c-10 -2
-28 -2 -40 0 -13 2 -5 4 17 4 22 1 32 -1 23 -4z m-130 -10 c-10 -2 -26 -2 -35
0 -10 3 -2 5 17 5 19 0 27 -2 18 -5z m-131 -9 c-3 -3 -12 -4 -19 -1 -8 3 -5 6
6 6 11 1 17 -2 13 -5z"/>
<path d="M8205 1290 c-3 -5 -1 -10 4 -10 6 0 11 5 11 10 0 6 -2 10 -4 10 -3 0
-8 -4 -11 -10z"/>
<path d="M8810 235 c0 -8 5 -15 10 -15 6 0 10 7 10 15 0 8 -4 15 -10 15 -5 0
-10 -7 -10 -15z"/>
<path d="M9244 266 c-9 -23 0 -79 13 -83 16 -5 27 39 19 72 -7 27 -24 33 -32
11z"/>
<path d="M2227 3253 c-13 -27 -41 -93 -62 -148 -21 -55 -50 -127 -66 -159 -32
-66 -34 -81 -18 -137 8 -27 20 -41 38 -48 24 -9 25 -9 4 -10 -21 -1 -23 -6
-23 -59 0 -58 19 -102 44 -102 14 0 54 41 79 82 12 19 14 34 7 57 -5 17 -5 29
-1 27 13 -8 27 8 50 57 24 50 60 91 123 142 28 22 34 32 26 42 -8 10 -7 13 4
13 19 0 60 103 51 127 -4 9 -15 25 -25 35 -31 31 -132 83 -155 80 -13 -2 -23
1 -23 7 0 6 5 11 11 11 6 0 4 7 -5 15 -23 24 -34 18 -59 -32z"/>
<path d="M4506 3284 c-9 -22 -7 -217 2 -229 10 -15 70 -55 80 -55 6 0 13 60
17 133 3 72 9 141 11 152 4 15 3 16 -4 6 -7 -9 -12 -10 -16 -2 -11 18 -83 14
-90 -5z"/>
<path d="M6205 3270 c-14 -22 6 -50 35 -50 32 0 50 18 30 30 -6 4 -11 11 -11
16 2 12 -47 16 -54 4z"/>
<path d="M7880 3261 c0 -9 5 -34 11 -56 5 -22 12 -50 14 -62 15 -67 19 -67 59
9 22 40 36 70 31 66 -4 -4 -24 4 -45 17 -21 13 -41 21 -44 17 -4 -3 -4 1 -1 9
4 10 0 16 -10 16 -8 0 -15 -7 -15 -16z"/>
<path d="M8370 3249 c-30 -16 -58 -35 -62 -42 -5 -8 -8 -7 -8 5 0 12 -5 15
-17 11 -12 -5 -14 -3 -8 7 5 9 4 11 -4 6 -13 -8 -10 -13 37 -77 l32 -45 76 -3
75 -2 -7 28 c-4 15 -19 54 -33 85 l-26 58 -55 -31z"/>
<path d="M7730 3191 l0 -80 56 -16 c31 -9 58 -15 60 -13 2 3 -21 29 -51 58
-30 30 -55 59 -55 64 0 5 12 23 27 38 l27 28 -32 0 -32 0 0 -79z"/>
<path d="M7825 3240 l-29 -30 49 -50 c27 -27 50 -48 52 -46 5 5 -28 139 -36
149 -4 4 -20 -6 -36 -23z"/>
<path d="M272 3238 c-7 -7 -12 -18 -12 -25 0 -7 -3 -13 -7 -13 -5 0 -21 -12
-38 -26 -19 -15 -8 -11 27 11 37 24 55 42 51 51 -6 17 -6 17 -21 2z"/>
<path d="M8233 3214 c4 -7 -2 -14 -13 -17 -11 -3 -24 -6 -28 -7 -16 -5 -82
-41 -82 -46 0 -2 9 0 20 6 11 6 20 8 20 4 0 -3 7 -1 15 6 12 10 16 10 20 -1 3
-8 20 -15 38 -17 46 -3 60 -6 75 -15 18 -12 15 0 -10 33 -11 16 -26 26 -31 23
-6 -3 -7 -1 -4 4 4 6 -1 17 -10 24 -9 8 -14 9 -10 3z m-6 -37 c0 -8 -6 -14
-14 -14 -9 0 -10 4 -2 14 6 7 12 13 14 13 1 0 2 -6 2 -13z"/>
<path d="M203 3138 c-91 -63 -103 -75 -103 -100 0 -26 3 -29 23 -23 l22 6 -21
-18 c-11 -10 -25 -30 -32 -45 -10 -24 -9 -27 11 -31 20 -3 19 -5 -10 -16 -17
-7 -34 -19 -37 -27 -5 -14 5 -18 64 -27 14 -3 4 -5 -22 -6 -61 -1 -56 -21 10
-43 43 -15 44 -16 17 -17 -29 -1 -31 -3 -29 -42 1 -39 4 -43 70 -85 85 -53 78
-57 -13 -7 l-67 37 20 -29 c28 -39 31 -53 39 -160 7 -88 8 -91 62 -170 52 -76
47 -74 -22 6 -16 19 -26 29 -22 22 5 -7 2 -32 -7 -60 -15 -44 -31 -64 -80 -97
-18 -12 -17 -18 29 -150 l48 -138 33 59 c52 92 58 95 14 8 l-40 -81 21 -62
c13 -38 26 -62 35 -62 12 0 12 -3 2 -13 -10 -12 -15 -12 -26 0 -7 7 -29 13
-48 13 -19 0 -37 1 -41 1 -4 1 -29 -38 -55 -86 l-48 -88 0 -209 0 -208 85 62
c164 120 205 149 205 144 0 -2 -65 -53 -145 -112 l-145 -107 0 -84 c0 -76 2
-84 18 -79 61 18 145 36 148 33 3 -3 -17 -10 -43 -16 -26 -7 -65 -16 -86 -22
l-37 -10 0 -124 c0 -89 3 -125 13 -128 9 -4 9 -6 0 -6 -10 -1 -13 -82 -13
-371 l0 -370 908 1 c777 0 903 2 877 14 -41 18 -23 19 22 0 19 -8 66 -15 103
-15 l68 0 6 73 c3 39 8 173 11 297 3 124 8 246 11 271 11 92 -6 82 -416 -261
-145 -120 -206 -168 -197 -153 5 7 56 52 115 100 173 141 442 364 442 367 0 3
-143 -23 -276 -50 -71 -14 -81 -19 -77 -35 14 -53 -46 -199 -103 -249 -90 -79
-183 13 -148 147 8 30 17 60 20 64 3 5 -12 9 -33 10 l-38 0 53 17 c30 9 53 20
53 24 -2 28 65 78 103 78 18 0 67 -40 61 -50 -7 -11 66 -1 248 34 105 20 162
36 162 44 0 11 -241 195 -418 318 l-68 48 -22 -24 c-16 -17 -17 -20 -3 -9 18
13 19 13 5 -11 -7 -14 -14 -34 -16 -45 -3 -30 -32 -95 -43 -95 -5 0 -12 5 -15
10 -4 6 -10 8 -15 5 -5 -3 -15 8 -22 25 l-13 31 -150 -117 c-82 -65 -225 -175
-317 -246 -135 -104 -167 -134 -170 -156 -4 -36 -52 -45 -63 -12 -8 26 10 50
39 50 13 0 103 63 222 156 109 85 254 198 322 251 67 53 122 97 122 99 0 2 -6
1 -14 -2 -8 -3 -25 6 -39 20 -15 14 -32 26 -39 26 -8 0 -22 6 -33 14 -11 7
-37 16 -57 20 -46 8 -50 14 -37 57 17 59 27 119 18 113 -5 -3 -9 0 -9 5 0 6 5
11 12 11 8 0 9 3 1 11 -7 7 -22 7 -43 2 -32 -8 -40 -22 -162 -263 -71 -140
-127 -248 -124 -240 2 8 54 120 115 248 61 129 111 235 111 236 0 2 -46 -8
-101 -21 -56 -13 -103 -22 -106 -20 -2 2 41 16 94 31 54 15 105 29 114 32 22
6 52 83 39 99 -25 30 -381 286 -390 280 -5 -3 -11 -41 -12 -83 l-2 -77 -5 75
c-3 41 -11 83 -17 94 -8 13 -41 24 -130 41 -137 27 -129 32 12 10 53 -9 100
-15 105 -13 5 2 -50 82 -122 178 -161 215 -176 235 -162 227 6 -4 77 -94 158
-202 81 -107 151 -192 155 -190 4 3 18 48 31 102 13 53 24 92 26 86 2 -5 -6
-49 -17 -98 -11 -48 -19 -89 -17 -91 3 -4 157 173 255 293 l43 51 -23 16 c-12
9 -27 16 -32 16 -38 0 -115 103 -102 137 3 7 1 15 -4 18 -5 3 -18 -23 -29 -57
-13 -37 -19 -49 -16 -28 3 19 8 51 11 70 5 34 3 36 -60 74 -86 50 -86 58 0 10
36 -20 67 -34 70 -31 3 3 17 53 30 113 18 75 22 110 15 117 -8 8 -11 8 -11 0
0 -8 -8 -8 -27 2 -16 7 -42 18 -59 26 -28 11 -73 72 -67 90 1 4 -17 15 -40 23
l-42 16 38 -6 c37 -5 38 -4 27 17 -7 13 -10 45 -8 75 6 67 -11 72 -43 14 -12
-22 -25 -38 -27 -35 -2 2 5 20 16 40 12 19 16 35 11 35 -6 0 -2 8 9 18 23 20
66 112 51 112 -5 0 -9 11 -9 25 0 23 -4 25 -42 26 l-43 1 38 10 c44 12 47 29
16 89 -16 32 -24 39 -37 33 -9 -5 -62 -9 -118 -10 -92 -1 -108 -4 -184 -37
-46 -20 -85 -35 -87 -33 -1 1 33 20 77 41 l81 38 -27 14 c-30 15 -55 44 -48
55 8 13 2 9 -103 -64z m462 -771 c16 -15 -48 20 -70 38 -11 9 -2 7 20 -6 22
-12 45 -26 50 -32z m-314 -224 c13 -16 12 -17 -3 -4 -10 7 -18 15 -18 17 0 8
8 3 21 -13z m436 -35 c-3 -8 -6 -5 -6 6 -1 11 2 17 5 13 3 -3 4 -12 1 -19z
m-522 -496 c20 -57 35 -106 32 -108 -4 -5 -87 220 -87 234 1 15 19 -28 55
-126z m372 34 c-37 -30 -185 -132 -172 -118 21 23 181 141 190 141 6 0 -3 -10
-18 -23z m-390 -582 c-3 -3 -12 -4 -19 -1 -8 3 -5 6 6 6 11 1 17 -2 13 -5z
m-40 -10 c-3 -3 -12 -4 -19 -1 -8 3 -5 6 6 6 11 1 17 -2 13 -5z m574 -380
c-16 -33 -30 -56 -31 -52 0 11 53 118 58 114 2 -2 -10 -30 -27 -62z m-701 46
c8 -5 11 -10 5 -10 -5 0 -17 5 -25 10 -8 5 -10 10 -5 10 6 0 17 -5 25 -10z
m120 -50 c8 -5 11 -10 5 -10 -5 0 -17 5 -25 10 -8 5 -10 10 -5 10 6 0 17 -5
25 -10z m846 -140 c-147 -30 -281 -49 -201 -29 72 18 289 57 315 57 14 0 -38
-13 -114 -28z m-253 -47 c-7 -2 -19 -2 -25 0 -7 3 -2 5 12 5 14 0 19 -2 13 -5z
m190 -148 c103 -43 186 -79 184 -82 -4 -4 -363 143 -387 159 -13 8 -13 9 0 5
8 -2 100 -39 203 -82z m377 -148 c0 -8 -3 -17 -7 -20 -9 -9 -34 13 -27 24 8
14 34 11 34 -4z m-191 -51 c-8 -8 -230 -68 -235 -64 -2 3 44 19 104 35 100 29
141 38 131 29z m-264 -76 c-11 -5 -27 -9 -35 -9 -9 0 -8 4 5 9 11 5 27 9 35 9
9 0 8 -4 -5 -9z m-58 -16 c-3 -3 -12 -4 -19 -1 -8 3 -5 6 6 6 11 1 17 -2 13
-5z"/>
<path d="M7663 3190 c-7 -17 -7 -28 1 -36 8 -9 12 -7 14 7 2 11 2 27 -1 37 -3
14 -6 13 -14 -8z"/>
<path d="M7996 3173 c-14 -29 -15 -38 -4 -45 10 -7 8 -8 -4 -4 -11 3 -21 -2
-28 -14 -16 -30 -12 -31 25 -9 19 12 35 27 35 34 0 16 35 29 50 20 5 -3 10 -1
10 6 0 7 3 10 6 6 6 -6 84 29 84 37 0 2 -13 3 -29 2 -16 0 -29 -3 -29 -6 1
-18 -4 -19 -18 -6 -8 9 -21 16 -27 16 -7 0 -4 -7 5 -14 10 -7 15 -16 11 -19
-3 -4 -12 2 -20 13 -22 31 -47 24 -67 -17z"/>
<path d="M3895 3192 c-11 -2 -23 -9 -26 -14 -3 -5 -16 -10 -28 -11 -13 -1 -20
-6 -17 -14 7 -18 -5 -16 -34 7 -37 29 -49 25 -68 -22 -28 -66 -56 -157 -51
-162 14 -14 200 -30 214 -19 6 4 18 24 28 43 10 20 36 47 57 60 43 27 47 41
26 100 -11 30 -17 35 -47 36 -19 0 -43 -2 -54 -4z"/>
<path d="M7400 3102 c-25 -51 -18 -66 38 -82 38 -10 85 -4 76 11 -3 5 2 9 10
9 8 0 18 5 22 12 5 8 2 9 -9 5 -11 -4 -17 -1 -17 8 0 8 6 15 13 15 8 0 7 4 -3
10 -10 6 -11 10 -2 10 6 0 12 9 12 20 0 20 -5 22 -87 25 -29 1 -35 -4 -53 -43z"/>
<path d="M9820 3129 c0 -5 5 -7 10 -4 6 3 10 8 10 11 0 2 -4 4 -10 4 -5 0 -10
-5 -10 -11z"/>
<path d="M115 3108 l-20 -21 22 12 c23 12 40 31 26 30 -4 0 -17 -10 -28 -21z"/>
<path d="M1860 3112 c-5 -9 -10 -14 -10 -9 0 10 -40 -31 -40 -42 0 -21 30 -17
52 7 46 51 49 58 28 59 -11 1 -24 -6 -30 -15z"/>
<path d="M1897 3090 c-43 -50 -44 -56 -16 -63 17 -5 24 3 40 40 28 65 19 73
-24 23z"/>
<path d="M7368 3117 c-11 -9 -14 -18 -7 -28 8 -12 10 -12 19 1 9 13 14 40 8
40 -2 0 -11 -6 -20 -13z"/>
<path d="M1500 3101 c0 -17 6 -21 30 -21 20 0 30 5 30 15 0 8 -6 15 -14 15 -8
0 -21 3 -30 6 -12 4 -16 0 -16 -15z"/>
<path d="M1937 3072 c-28 -51 -33 -67 -19 -58 4 2 27 -4 50 -14 l42 -19 0 26
c0 15 -6 34 -14 42 -7 9 -18 29 -23 45 l-9 28 -27 -50z"/>
<path d="M7730 3036 l0 -55 38 16 c64 27 114 54 109 60 -5 5 -120 32 -139 33
-5 0 -8 -25 -8 -54z"/>
<path d="M7980 3074 c-11 -12 -11 -15 1 -12 8 2 13 -4 11 -13 -1 -9 5 -20 14
-23 14 -5 15 -4 4 9 -10 12 -10 15 0 15 9 0 10 3 1 13 -6 8 -8 17 -4 20 3 4 2
7 -4 7 -6 0 -16 -7 -23 -16z"/>
<path d="M4180 3053 c0 -6 8 -17 18 -24 16 -13 16 -13 2 6 -8 11 -16 22 -17
24 -2 2 -3 0 -3 -6z"/>
<path d="M7668 3021 c-5 -19 -12 -23 -31 -19 -20 4 -24 1 -20 -11 4 -9 10 -21
14 -27 5 -6 5 -14 1 -19 -4 -4 4 -4 18 0 33 10 58 24 43 25 -6 0 -13 17 -15
38 -3 32 -4 34 -10 13z"/>
<path d="M7771 2984 c-69 -30 -127 -56 -129 -59 -3 -2 -5 -24 -5 -49 0 -31 -7
-53 -22 -73 -22 -26 -28 -28 -95 -28 -64 0 -73 2 -90 25 -15 20 -23 23 -36 14
-21 -12 -27 -46 -11 -56 8 -5 6 -9 -5 -13 -13 -5 -15 -12 -6 -35 14 -43 34
-54 88 -51 43 2 49 -1 56 -21 13 -37 13 -48 1 -48 -18 0 7 -20 31 -25 12 -3
32 -8 45 -11 12 -4 56 -10 97 -15 76 -9 126 -19 278 -58 45 -12 87 -19 92 -16
11 7 6 77 -6 97 -10 15 -22 148 -14 148 3 0 4 28 2 63 -3 82 -3 145 0 181 2
18 -2 31 -11 34 -8 3 -11 0 -7 -7 5 -7 -3 -11 -23 -11 -17 0 -31 -2 -31 -5 0
-3 16 -47 35 -97 20 -50 34 -93 31 -95 -2 -2 -23 45 -47 104 -23 59 -54 119
-68 134 l-26 27 -124 -54z m-201 -244 c10 -7 -1 -8 -35 -4 -27 4 -52 8 -54 10
-10 9 75 3 89 -6z"/>
<path d="M7367 2988 c14 -16 21 -46 23 -98 1 -28 3 -31 9 -15 4 11 11 37 14
58 5 34 3 38 -26 54 -26 13 -30 13 -20 1z"/>
<path d="M4260 2973 c0 -5 5 -14 12 -21 6 -6 13 -21 15 -32 1 -10 4 -23 5 -27
1 -4 -4 -26 -10 -48 -15 -52 -18 -107 -7 -124 5 -9 4 -12 -2 -8 -6 4 -13 -4
-15 -18 -3 -14 -1 -25 6 -25 6 0 3 -7 -6 -14 -10 -7 -18 -22 -18 -32 0 -10
-18 -46 -40 -79 -22 -33 -45 -77 -50 -97 -16 -55 -17 -141 -3 -145 9 -3 9 -9
1 -22 -8 -14 -5 -26 16 -60 30 -47 61 -64 91 -48 l20 10 -20 -23 c-11 -13 -14
-20 -7 -16 7 4 20 2 29 -6 14 -11 16 -11 8 1 -5 10 -4 12 3 7 7 -4 12 -16 12
-27 0 -15 -15 -27 -56 -46 -74 -33 -117 -90 -102 -134 5 -16 13 -29 18 -29 4
0 7 -14 6 -30 -1 -23 -3 -27 -11 -16 -9 11 -15 6 -33 -25 -15 -26 -38 -46 -66
-60 -24 -11 -81 -54 -126 -96 l-81 -76 41 -42 c23 -24 50 -42 59 -41 15 3 72
-31 79 -46 2 -5 11 -8 19 -8 9 0 13 -6 9 -15 -3 -8 -2 -15 3 -15 4 0 8 -6 9
-12 2 -32 10 -52 19 -55 6 -2 47 49 90 114 63 92 79 122 72 138 -12 32 -10 42
5 16 l13 -23 21 27 c24 31 30 22 7 -9 -8 -11 -15 -23 -15 -28 0 -8 21 -7 30 2
3 3 19 13 36 22 46 26 99 14 124 -27 30 -49 30 -154 1 -222 -13 -29 -28 -53
-34 -53 -6 0 -8 -3 -4 -6 3 -4 -1 -20 -9 -36 -16 -32 -11 -51 72 -257 l38 -95
13 35 c10 25 12 27 8 7 -3 -14 -8 -33 -11 -42 -17 -43 31 -5 131 106 61 67
172 189 248 272 161 175 165 181 131 184 -58 5 -114 58 -114 109 0 22 10 42
34 68 37 39 41 39 131 10 74 -24 96 -38 90 -54 -3 -9 16 5 42 32 66 64 75 97
44 162 -30 66 -50 88 -66 75 -9 -8 -15 -6 -19 7 -4 10 -4 14 0 10 12 -12 36
32 29 56 -5 19 -4 20 7 6 10 -15 17 -12 56 28 35 35 50 43 68 39 21 -6 74 -50
74 -62 0 -2 10 -25 21 -49 21 -44 22 -45 40 -29 25 23 24 6 -1 -21 -18 -19
-19 -24 -6 -34 11 -9 20 -10 35 -2 34 18 38 12 6 -10 -46 -31 -146 -81 -152
-75 -3 3 10 14 28 25 19 12 28 21 21 21 -24 0 -71 -40 -66 -55 5 -11 26 -13
97 -11 51 2 95 4 100 5 4 0 7 13 7 27 0 31 46 80 84 90 36 9 98 -16 111 -44 5
-12 13 -22 17 -22 5 0 8 -11 8 -24 0 -32 13 -35 123 -29 88 5 96 8 106 30 13
29 14 44 2 24 -8 -12 -18 -7 -50 26 -36 36 -41 46 -41 87 0 25 0 49 -1 54 0 4
-10 12 -22 19 -15 8 -17 13 -7 13 11 0 10 3 -4 11 -10 6 -21 7 -25 3 -8 -12
-102 -56 -108 -51 -4 4 77 53 150 92 20 11 37 23 37 27 0 3 7 14 16 22 14 15
7 16 -78 11 -129 -7 -152 -12 -174 -36 -11 -12 -31 -30 -46 -41 -22 -15 -27
-16 -22 -4 3 9 9 16 13 16 3 0 12 10 20 23 12 19 12 21 0 11 -18 -13 -53 -10
-84 6 -24 13 -38 39 -50 94 -5 24 -8 27 -17 15 -8 -11 -8 -9 -3 6 25 76 27
112 10 164 -10 31 -14 63 -10 79 8 34 43 72 66 72 30 0 64 20 82 48 12 20 17
23 17 9 0 -15 11 -17 108 -16 126 1 141 6 124 43 -6 14 -14 48 -18 76 -4 28
-11 53 -15 56 -5 3 -9 15 -9 27 0 31 -20 7 -24 -29 -3 -30 -25 -42 -76 -42
-14 0 -2 6 25 13 l50 13 -42 1 c-27 1 -43 6 -44 14 0 6 -16 -21 -35 -62 -35
-75 -59 -96 -29 -25 34 78 35 84 22 81 -6 -1 -17 -8 -23 -16 -9 -11 -12 -12
-19 -1 -6 9 -4 11 5 5 10 -6 12 -4 7 9 -4 10 -7 20 -7 22 0 3 -8 0 -19 -5 -10
-6 -21 -8 -24 -5 -11 11 -77 -9 -77 -23 0 -27 -64 -79 -125 -102 -64 -25 -147
-31 -207 -17 l-38 8 0 -54 c0 -35 6 -62 18 -78 24 -36 22 -162 -6 -267 -16
-61 -19 -90 -12 -115 9 -30 8 -31 -5 -14 -15 19 -15 19 -15 -2 0 -12 -7 -40
-16 -62 -14 -34 -14 -43 -3 -57 10 -12 10 -14 2 -9 -7 4 -13 2 -13 -3 0 -18 5
-26 12 -24 5 2 7 -3 5 -10 -1 -6 6 -11 16 -10 10 0 16 -2 12 -5 -3 -3 20 -33
52 -66 l58 -60 -50 41 c-27 22 -61 51 -75 65 -46 44 -58 50 -66 37 -4 -8 -3
-9 4 -5 7 4 12 5 12 2 0 -3 -10 -10 -21 -17 -17 -9 -20 -8 -15 3 4 7 -1 2 -11
-12 -55 -76 -96 -87 -131 -34 -12 19 -22 41 -22 50 0 29 -33 124 -43 124 -5 0
-6 8 -3 18 6 16 5 16 -8 0 -7 -10 -18 -18 -24 -18 -5 0 -18 -25 -27 -55 -10
-30 -20 -55 -22 -55 -5 0 2 50 14 99 4 17 2 22 -6 17 -7 -5 -11 4 -11 28 0 19
5 38 10 41 6 4 8 10 5 15 -3 4 2 10 10 14 8 3 15 10 15 16 0 6 -6 8 -12 4 -9
-5 -9 -3 1 9 7 9 18 14 24 10 6 -3 7 -1 3 6 -4 6 -13 8 -19 5 -7 -4 -9 -4 -5
1 4 4 3 14 -3 22 -13 15 -1 17 21 3 11 -7 17 -2 26 18 l12 27 1 -27 c1 -29 10
-35 28 -17 15 15 60 0 66 -22 7 -27 36 -24 47 6 18 48 23 124 10 171 l-13 46
-41 -5 c-23 -3 -68 -8 -101 -12 -39 -4 -67 -13 -82 -27 -21 -19 -22 -19 -17
-1 6 23 -36 46 -63 36 -16 -6 -16 -5 -4 10 9 12 10 17 2 17 -7 0 -9 5 -5 12 5
8 0 9 -16 5 -17 -4 -20 -3 -11 6 16 16 14 45 -5 55 -11 6 -13 12 -6 16 7 4 6
18 -5 44 -23 54 -33 92 -24 92 12 0 30 120 26 171 -3 47 -30 106 -56 122 -11
7 -24 1 -49 -24 -19 -19 -33 -37 -32 -41 3 -11 -1 -10 -34 5 -57 25 -133 78
-89 61 8 -4 15 -2 15 4 0 5 -28 12 -62 14 -35 3 -71 8 -80 13 -10 4 -18 3 -18
-2z m213 -220 c-7 -2 -19 -2 -25 0 -7 3 -2 5 12 5 14 0 19 -2 13 -5z m-83
-646 c0 -2 -12 -14 -27 -28 l-28 -24 24 28 c23 25 31 32 31 24z m665 -327 c24
-8 16 -9 -40 -6 -38 3 -81 10 -95 16 -20 8 -12 9 40 5 36 -3 79 -10 95 -15z
m-328 -142 c-3 -8 -6 -5 -6 6 -1 11 2 17 5 13 3 -3 4 -12 1 -19z m-60 -230
c-3 -8 -6 -5 -6 6 -1 11 2 17 5 13 3 -3 4 -12 1 -19z m-33 -132 c-15 -59 -28
-105 -31 -103 -2 3 8 52 23 111 15 59 28 105 31 103 2 -3 -8 -52 -23 -111z
m-37 -138 c-3 -8 -6 -5 -6 6 -1 11 2 17 5 13 3 -3 4 -12 1 -19z m-10 -40 c-3
-8 -6 -5 -6 6 -1 11 2 17 5 13 3 -3 4 -12 1 -19z m-10 -40 c-3 -8 -6 -5 -6 6
-1 11 2 17 5 13 3 -3 4 -12 1 -19z m-10 -40 c-3 -8 -6 -5 -6 6 -1 11 2 17 5
13 3 -3 4 -12 1 -19z"/>
<path d="M680 2869 c-7 -11 -10 -23 -7 -25 2 -2 9 7 15 21 14 30 7 33 -8 4z"/>
<path d="M7385 2840 c-3 -5 -2 -10 4 -10 5 0 13 5 16 10 3 6 2 10 -4 10 -5 0
-13 -4 -16 -10z"/>
<path d="M5562 2786 c2 -38 19 -45 63 -26 18 8 17 9 -7 9 -16 1 -28 6 -28 12
0 6 -7 17 -15 26 -14 14 -16 12 -13 -21z"/>
<path d="M6706 2753 c6 -26 5 -27 -8 -9 -12 15 -16 16 -20 4 -11 -28 3 -66 27
-70 18 -4 21 -1 17 16 -3 16 -2 18 7 10 13 -12 61 -7 61 7 0 5 7 9 16 9 8 0
13 -4 10 -9 -4 -5 15 -19 40 -32 26 -12 54 -35 63 -50 9 -16 20 -29 24 -29 14
0 87 40 87 48 0 4 -7 28 -17 54 -14 39 -22 48 -47 54 -40 9 -130 9 -180 -1
-26 -5 -37 -4 -32 3 4 6 -2 8 -14 5 -11 -3 -20 0 -20 6 0 6 -5 11 -10 11 -6 0
-8 -11 -4 -27z"/>
<path d="M6979 2605 c-38 -21 -44 -70 -12 -95 37 -29 51 -16 55 51 3 63 -1 67
-43 44z"/>
<path d="M2836 2434 c-17 -44 2 -120 24 -98 17 17 28 68 19 92 -10 26 -34 29
-43 6z"/>
<path d="M861 2384 c0 -11 3 -14 6 -6 3 7 2 16 -1 19 -3 4 -6 -2 -5 -13z"/>
<path d="M7568 2313 c7 -3 16 -2 19 1 4 3 -2 6 -13 5 -11 0 -14 -3 -6 -6z"/>
<path d="M2073 2298 l-22 -10 4 -312 c3 -289 3 -301 -8 -176 -9 110 -12 126
-17 85 -7 -72 -76 -158 -149 -187 l-35 -14 91 -56 c68 -41 95 -53 107 -46 23
13 54 1 62 -25 4 -12 12 -25 18 -29 8 -5 7 -8 -2 -8 -34 0 -50 -35 -56 -120
-13 -170 -37 -477 -44 -562 -6 -66 -5 -88 4 -88 6 0 53 27 104 60 80 53 91 64
86 83 -45 155 -53 278 -23 346 13 28 36 55 49 57 4 1 11 3 16 4 4 1 11 2 16 1
5 -1 -26 37 -69 86 l-79 88 91 -89 c60 -59 91 -82 90 -70 -2 15 4 18 23 16 14
-2 27 -8 28 -13 2 -5 10 -9 17 -9 19 0 57 -51 50 -67 -2 -8 0 -11 5 -8 6 3 11
-2 11 -12 1 -10 2 -25 3 -33 0 -8 -2 -17 -6 -20 -6 -5 78 -100 89 -100 6 0
301 187 316 200 4 4 3 19 -4 34 -9 18 -25 29 -53 37 -23 6 -97 26 -166 44
-250 66 -402 109 -394 112 5 2 139 -31 299 -71 159 -41 290 -74 291 -73 1 1
-35 87 -79 190 l-80 189 -31 -6 -31 -5 27 14 27 15 -20 47 c-11 25 -17 48 -14
51 2 3 14 -17 25 -45 l21 -49 189 62 c170 56 239 83 217 84 -4 0 0 14 8 31 19
36 12 48 -43 73 l-39 17 -52 -31 c-29 -17 -72 -33 -95 -36 -58 -8 -126 22
-154 67 -11 19 -42 51 -67 73 -26 21 -51 49 -57 62 -9 20 -14 22 -26 12 -13
-11 -14 -9 -7 11 5 16 3 26 -6 32 -11 7 -11 9 3 9 25 0 -1 48 -32 58 -42 14
-61 5 -54 -26 l6 -27 -17 23 c-9 12 -21 19 -27 16 -6 -4 -5 -10 3 -15 21 -13
8 -12 -236 17 -27 3 -51 10 -53 15 -2 5 -11 9 -20 9 -15 0 -15 2 -2 10 20 13
1 11 -27 -2z m641 -434 c10 -4 16 -18 16 -40 0 -27 -5 -37 -22 -43 -14 -5 -26
-5 -29 1 -6 9 9 88 16 88 2 0 10 -3 19 -6z m-507 -360 c-3 -3 -12 -4 -19 -1
-8 3 -5 6 6 6 11 1 17 -2 13 -5z"/>
<path d="M9626 2293 c-9 -28 -46 -177 -46 -185 0 -20 25 5 26 26 1 13 9 38 17
57 17 36 26 104 15 114 -3 4 -9 -2 -12 -12z"/>
<path d="M7910 2265 c37 -31 45 -34 62 -23 31 21 23 32 -34 45 -74 17 -75 17
-28 -22z"/>
<path d="M8006 2246 c-28 -17 -35 -25 -25 -31 7 -5 14 -4 17 3 2 7 14 12 27
12 13 0 27 5 30 10 3 6 1 10 -5 10 -6 0 -8 5 -5 10 9 14 5 13 -39 -14z"/>
<path d="M30 2192 c0 -7 -7 -12 -15 -12 -13 0 -15 -27 -15 -179 0 -99 3 -182
8 -184 4 -3 24 -7 45 -8 36 -4 39 -2 66 46 l28 50 -54 144 c-52 142 -63 166
-63 143z"/>
<path d="M9950 2184 c0 -8 11 -14 25 -14 14 0 25 4 25 9 0 5 -11 11 -25 13
-17 4 -25 1 -25 -8z"/>
<path d="M6218 2143 c-17 -28 -17 -28 -18 -4 0 19 -3 21 -14 12 -18 -15 -49
-79 -52 -109 -2 -20 0 -21 13 -10 13 10 12 6 -2 -27 -9 -22 -19 -65 -22 -95
-3 -42 -11 -62 -31 -83 -14 -15 -31 -26 -38 -23 -6 2 -21 -13 -33 -34 l-21
-38 -113 -1 c-69 -1 -113 -6 -116 -13 -6 -17 -51 -53 -74 -59 -37 -9 -67 2
-103 37 l-33 34 -100 0 c-58 0 -103 -4 -106 -10 -9 -15 244 -412 258 -403 6 3
7 1 3 -6 -7 -11 62 -131 75 -131 3 0 11 12 18 26 6 15 14 24 17 21 3 -3 -2
-20 -11 -38 -16 -30 -16 -34 0 -63 l16 -31 -21 24 c-20 23 -21 23 -35 5 -14
-18 -15 -17 -4 7 9 22 5 34 -31 92 -39 62 -64 91 -41 48 21 -39 -25 -43 -53
-5 l-19 26 24 -7 c22 -7 23 -7 9 10 -14 17 -13 18 2 12 25 -9 12 21 -68 149
-36 60 -87 142 -111 182 -25 40 -48 70 -51 67 -4 -3 -18 -70 -33 -148 -72
-391 -93 -499 -96 -490 -3 9 17 126 88 516 12 65 18 121 14 125 -4 4 -18 -6
-31 -23 -70 -85 -86 -106 -78 -103 10 3 14 -5 14 -28 0 -9 -5 -12 -12 -8 -8 5
-9 2 -5 -10 4 -10 3 -15 -3 -11 -6 4 -17 -1 -26 -10 -9 -9 -22 -14 -29 -11
-15 5 -106 -87 -375 -382 -102 -111 -185 -210 -185 -220 0 -12 41 -37 138 -84
75 -37 137 -70 137 -73 0 -8 -56 17 -175 78 -58 30 -108 50 -111 46 -2 -4 19
-63 48 -129 50 -117 53 -121 79 -116 74 15 80 14 34 -1 -27 -9 -51 -18 -53
-19 -1 -1 17 -48 42 -105 l44 -104 48 -6 49 -6 -42 -1 c-24 -1 -43 -6 -43 -10
0 -5 18 -50 40 -102 22 -51 38 -95 36 -97 -2 -2 -23 42 -47 98 l-44 101 -65
-7 c-201 -20 -425 -47 -429 -51 -20 -19 21 -160 48 -168 9 -3 131 -15 271 -26
140 -12 260 -23 265 -25 24 -9 -76 -3 -290 15 -126 11 -236 20 -243 20 -8 0
-4 -16 13 -50 14 -27 25 -56 25 -65 0 -13 35 -15 281 -15 l280 0 -5 23 -6 22
11 -22 c9 -18 21 -23 50 -23 20 0 40 6 42 13 4 9 6 9 6 0 2 -22 57 -15 75 9
l17 23 -11 -23 -11 -22 628 0 c452 0 624 3 613 11 -12 9 -11 9 5 3 11 -4 35
-9 54 -12 27 -4 32 -2 25 9 -6 11 -5 12 7 2 8 -6 29 -11 47 -11 30 1 64 32
332 307 178 182 294 307 285 309 -8 2 -82 -4 -165 -12 -159 -17 -196 -19 -188
-11 2 3 94 16 203 30 109 14 200 27 202 29 6 6 -51 18 -67 14 -7 -2 -15 4 -17
12 -4 13 -3 13 6 0 6 -8 11 -10 11 -4 0 18 -27 37 -32 23 -2 -7 -11 -10 -21
-6 -9 3 -14 12 -11 20 3 8 -2 14 -10 14 -8 0 -13 -4 -10 -9 3 -4 0 -8 -5 -8
-6 0 -11 9 -11 20 0 24 -25 27 -34 4 -3 -8 -11 -12 -17 -8 -8 4 -7 9 2 15 11
7 12 12 2 29 -7 11 -13 27 -13 35 0 8 -4 15 -10 15 -5 0 -10 7 -10 17 0 9 -3
13 -7 10 -3 -4 -12 -2 -20 4 -8 7 -13 8 -13 1 0 -5 -7 -9 -16 -8 -11 1 -29
-33 -61 -112 -26 -61 -48 -110 -51 -108 -2 2 15 51 37 107 39 96 46 139 20
124 -16 -11 -93 75 -106 119 -10 33 -9 42 5 62 15 20 83 44 126 44 19 0 49 84
40 112 -4 13 -8 33 -10 46 -1 12 -8 55 -15 95 -7 40 -12 77 -10 82 1 6 -3 4
-10 -2 -20 -20 -34 -15 -16 5 19 21 22 42 6 42 -5 0 -8 4 -4 9 6 11 -13 99
-25 116 -9 12 -17 47 -26 101 -3 21 -13 45 -22 52 -14 11 -14 12 0 12 10 0 18
13 22 38 14 87 8 108 -83 290 -10 21 -26 36 -46 41 -26 7 -31 5 -42 -18 l-12
-26 -1 33 c0 17 -3 32 -7 33 -56 4 -111 3 -125 -3 -16 -8 -113 9 -158 26 -10
4 -21 -4 -32 -21z m230 -400 c-10 -2 -26 -2 -35 0 -10 3 -2 5 17 5 19 0 27 -2
18 -5z m-893 -123 c99 -55 176 -100 171 -100 -5 0 -77 37 -160 82 -176 96
-215 118 -201 118 6 0 91 -45 190 -100z m350 -68 c-25 -50 -45 -93 -45 -95 0
-11 34 -17 40 -6 5 8 16 7 37 -5 17 -8 34 -12 37 -8 4 3 4 -1 0 -11 -3 -9 -11
-14 -17 -10 -6 3 -7 1 -3 -6 5 -8 12 -9 19 -2 8 6 17 4 27 -7 13 -14 12 -15
-3 -9 -37 14 -14 -3 56 -42 106 -59 124 -78 30 -31 -46 22 -83 36 -83 30 0 -5
5 -10 10 -10 26 0 4 -105 -28 -139 -19 -20 -105 -26 -144 -10 -46 18 -60 35
-62 70 l-1 30 -23 -28 -23 -28 21 50 c12 28 36 77 55 110 31 56 32 62 17 72
-15 10 -14 11 4 6 19 -4 29 8 70 85 27 50 50 89 52 88 1 -2 -18 -44 -43 -94z
m582 -84 c-2 -13 -4 -5 -4 17 -1 22 1 32 4 23 2 -10 2 -28 0 -40z m20 -148
c24 0 25 -2 18 -37 -8 -44 -8 -42 -6 -67 1 -18 3 -18 26 4 35 33 31 18 -5 -24
-22 -24 -27 -37 -19 -42 8 -4 9 -3 5 4 -4 7 -2 12 3 12 15 0 14 -13 -4 -36
-13 -17 -14 -17 -15 -2 0 9 -4 19 -9 22 -4 3 -6 -5 -3 -19 3 -16 13 -26 33
-30 38 -9 46 -23 9 -17 -38 6 -90 -18 -90 -41 0 -10 4 -16 9 -12 15 9 41 -37
41 -73 0 -36 -25 -92 -40 -92 -6 0 -11 -12 -11 -27 -1 -16 -3 -21 -6 -12 -3
11 -19 18 -51 22 -39 4 -53 12 -89 50 -60 64 -58 87 10 115 29 12 64 22 77 22
14 0 32 5 40 10 12 8 11 12 -8 30 -26 25 -27 38 -6 68 13 19 14 31 5 67 -17
68 -11 87 8 25 l17 -55 14 130 c13 116 15 123 18 68 3 -60 4 -63 29 -63z
m-100 -12 c-3 -8 -6 -5 -6 6 -1 11 2 17 5 13 3 -3 4 -12 1 -19z m-287 -233
c-73 -13 -268 -29 -222 -19 40 10 226 32 262 32 20 0 3 -6 -40 -13z m-923 -57
c-3 -7 -5 -2 -5 12 0 14 2 19 5 13 2 -7 2 -19 0 -25z m958 11 c-33 -11 -95
-28 -137 -39 -42 -11 -85 -23 -95 -27 -10 -3 -15 -3 -11 1 9 11 258 85 283 85
11 -1 -7 -9 -40 -20z m-542 -16 c-7 -2 -19 -2 -25 0 -7 3 -2 5 12 5 14 0 19
-2 13 -5z m-80 -10 c-7 -2 -21 -2 -30 0 -10 3 -4 5 12 5 17 0 24 -2 18 -5z
m-325 -36 c10 -3 6 -5 -10 -6 -22 -1 -25 2 -20 22 5 17 7 18 10 5 2 -9 11 -19
20 -21z m245 26 c-7 -2 -21 -2 -30 0 -10 3 -4 5 12 5 17 0 24 -2 18 -5z m-80
-10 c-7 -2 -19 -2 -25 0 -7 3 -2 5 12 5 14 0 19 -2 13 -5z m-86 -9 c-3 -3 -12
-4 -19 -1 -8 3 -5 6 6 6 11 1 17 -2 13 -5z m-152 -19 c-21 -8 -508 -66 -529
-63 -11 2 89 17 224 34 223 29 331 39 305 29z m397 -107 c-7 -7 -12 -8 -12 -2
0 14 12 26 19 19 2 -3 -1 -11 -7 -17z m389 -53 l10 -20 -16 20 c-9 11 -21 29
-26 40 l-10 20 16 -20 c9 -11 21 -29 26 -40z m-411 15 c-6 -11 -13 -20 -16
-20 -2 0 0 9 6 20 6 11 13 20 16 20 2 0 0 -9 -6 -20z m-29 -53 c-10 -9 -11 -8
-5 6 3 10 9 15 12 12 3 -3 0 -11 -7 -18z m-339 -19 c-7 -7 -12 -8 -12 -2 0 14
12 26 19 19 2 -3 -1 -11 -7 -17z m-5 -40 c-3 -8 -6 -5 -6 6 -1 11 2 17 5 13 3
-3 4 -12 1 -19z m278 -68 c-9 -16 -18 -30 -21 -30 -2 0 2 14 11 30 9 17 18 30
21 30 2 0 -2 -13 -11 -30z m-290 -20 c3 -5 1 -10 -4 -10 -6 0 -11 5 -11 10 0
6 2 10 4 10 3 0 8 -4 11 -10z m235 -79 c-5 -11 -10 -22 -10 -25 0 -12 81 -46
112 -47 23 0 28 -2 15 -7 -13 -6 7 -20 82 -57 55 -27 99 -51 97 -52 -5 -5
-368 175 -381 189 -5 6 6 2 25 -7 33 -17 34 -17 48 4 18 26 26 28 12 2z m573
-28 c-7 -2 -21 -2 -30 0 -10 3 -4 5 12 5 17 0 24 -2 18 -5z m-290 -30 c-7 -2
-21 -2 -30 0 -10 3 -4 5 12 5 17 0 24 -2 18 -5z m-80 -10 c-13 -2 -33 -2 -45
0 -13 2 -3 4 22 4 25 0 35 -2 23 -4z m-566 -59 c-3 -3 -12 -4 -19 -1 -8 3 -5
6 6 6 11 1 17 -2 13 -5z m-79 -11 c-10 -2 -28 -2 -40 0 -13 2 -5 4 17 4 22 1
32 -1 23 -4z m242 -243 c-11 -22 -23 -40 -25 -40 -3 0 4 18 15 40 11 22 23 40
25 40 3 0 -4 -18 -15 -40z m-290 -25 c0 -5 -5 -3 -10 5 -5 8 -10 20 -10 25 0
6 5 3 10 -5 5 -8 10 -19 10 -25z m53 -37 l42 -1 -37 -4 c-30 -3 -36 -8 -31
-21 4 -13 2 -12 -10 3 -9 11 -16 27 -16 35 0 10 2 11 6 3 2 -7 23 -14 46 -15z
m130 -15 c-19 -3 -34 -11 -36 -21 -3 -12 -5 -10 -6 6 -1 19 3 22 37 20 36 -1
36 -1 5 -5z m59 -15 c-7 -7 -12 -8 -12 -2 0 14 12 26 19 19 2 -3 -1 -11 -7
-17z m76 5 c-10 -2 -28 -2 -40 0 -13 2 -5 4 17 4 22 1 32 -1 23 -4z m115 -10
c-13 -2 -33 -2 -45 0 -13 2 -3 4 22 4 25 0 35 -2 23 -4z m120 -10 c-13 -2 -33
-2 -45 0 -13 2 -3 4 22 4 25 0 35 -2 23 -4z m852 -3 c3 -6 -1 -7 -9 -4 -18 7
-21 14 -7 14 6 0 13 -4 16 -10z m-747 -7 c-10 -2 -26 -2 -35 0 -10 3 -2 5 17
5 19 0 27 -2 18 -5z"/>
<path d="M5910 1440 c0 -5 5 -10 11 -10 5 0 7 5 4 10 -3 6 -8 10 -11 10 -2 0
-4 -4 -4 -10z"/>
<path d="M5845 1430 c-3 -5 -2 -10 4 -10 5 0 13 5 16 10 3 6 2 10 -4 10 -5 0
-13 -4 -16 -10z"/>
<path d="M6460 1186 c0 -8 4 -17 9 -20 5 -4 7 3 4 14 -6 23 -13 26 -13 6z"/>
<path d="M954 1988 c-57 -59 -244 -277 -244 -284 0 -3 10 -2 21 1 14 5 19 3
15 -3 -4 -7 7 -13 26 -15 19 -3 15 -3 -9 -2 -24 1 -43 -1 -43 -5 0 -8 375
-280 387 -280 5 0 17 16 27 36 17 36 17 37 -9 76 -14 21 -44 57 -66 79 -22 22
-37 44 -34 48 3 5 -34 14 -83 21 -126 16 -130 20 -17 14 55 -3 95 -1 88 3 -7
5 -13 36 -15 70 l-3 61 -45 -18 c-25 -10 -76 -32 -114 -49 -38 -17 -71 -30
-73 -28 -1 2 50 29 116 59 l119 56 -1 101 c0 56 0 101 -1 101 -1 0 -20 -19
-42 -42z"/>
<path d="M126 1844 c-9 -20 -15 -39 -12 -41 2 -3 21 -8 41 -13 26 -6 35 -5 32
3 -2 7 -10 29 -18 50 -7 20 -16 37 -19 37 -4 0 -14 -16 -24 -36z"/>
<path d="M2846 1800 c-93 -33 -170 -61 -173 -63 -2 -2 34 -91 80 -198 l83
-194 44 -12 44 -13 93 61 c51 34 93 63 93 66 0 2 -13 29 -30 59 -23 43 -32 77
-39 146 -5 49 -6 104 -2 121 4 18 6 39 6 47 -1 8 3 21 8 28 18 24 -37 11 -207
-48z"/>
<path d="M5290 1844 c0 -3 6 -19 14 -38 16 -39 37 -42 68 -9 18 19 19 23 5 23
-9 0 -21 -8 -26 -17 -10 -17 -10 -16 -11 2 0 11 -11 25 -25 32 -14 6 -25 9
-25 7z"/>
<path d="M0 1719 l0 -84 41 74 c22 40 38 75 36 78 -3 2 -21 7 -41 10 l-36 6 0
-84z"/>
<path d="M3975 1761 c-11 -5 -24 -7 -30 -5 -16 6 -90 -40 -90 -56 0 -8 -4 -21
-8 -27 -5 -7 -6 -13 -2 -13 3 0 1 -9 -5 -20 -19 -36 4 -21 85 55 44 40 78 74
75 74 -3 0 -14 -4 -25 -8z"/>
<path d="M7293 1693 c9 -2 15 -8 12 -13 -3 -4 5 -6 17 -2 13 3 19 1 15 -5 -4
-6 4 -8 21 -5 l27 5 -35 13 c-19 7 -44 12 -55 12 -17 0 -17 -1 -2 -5z"/>
<path d="M1787 1657 c3 -5 -1 -7 -8 -6 -8 1 -27 -1 -44 -5 -103 -25 -121 -30
-129 -37 -4 -4 23 -10 60 -14 121 -11 319 -36 329 -41 18 -8 -178 6 -290 21
-131 17 -168 19 -160 5 3 -5 1 -10 -5 -10 -15 0 -30 -44 -33 -101 -1 -31 -8
-54 -17 -60 -20 -13 7 -7 210 46 91 23 199 50 240 60 105 25 104 40 -7 101
-74 40 -161 65 -146 41z"/>
<path d="M7385 1660 c-3 -5 -2 -10 4 -10 5 0 13 5 16 10 3 6 2 10 -4 10 -5 0
-13 -4 -16 -10z"/>
<path d="M3840 1577 c0 -2 15 -14 33 -27 20 -15 27 -17 18 -6 -13 16 -51 41
-51 33z"/>
<path d="M4184 1477 c-39 -56 -74 -108 -79 -115 -4 -9 3 -25 21 -45 l29 -32
-31 28 c-17 15 -33 25 -36 22 -12 -13 4 -144 28 -217 13 -42 24 -84 24 -93 0
-8 12 -20 28 -26 35 -14 335 -90 339 -86 1 2 -13 19 -32 37 -19 19 -36 31 -36
27 -1 -4 -2 -11 -3 -17 -1 -14 -6 -14 -47 -6 -36 6 -51 28 -54 73 0 6 -4 15
-8 19 -13 13 -8 46 6 38 6 -5 -8 16 -33 46 -41 50 -42 52 -11 27 34 -28 62
-32 67 -9 1 7 0 8 -3 2 -2 -5 -9 -10 -15 -10 -7 0 -6 5 1 14 12 14 65 10 56
-4 -8 -12 6 -41 16 -34 5 3 6 -2 3 -11 -4 -10 4 -25 21 -41 19 -18 26 -32 23
-49 -4 -18 5 -33 33 -61 l39 -38 -31 75 c-95 232 -112 270 -119 259 -4 -6 -17
22 -29 62 -39 133 -85 268 -91 268 -3 0 -37 -46 -76 -103z"/>
<path d="M1965 1509 c-16 -5 -122 -34 -235 -63 -181 -48 -304 -86 -232 -72 15
3 20 0 15 -7 -4 -7 -9 -30 -10 -52 -11 -140 -18 -170 -38 -168 -20 1 -20 1 -1
-13 11 -8 24 -14 29 -14 8 0 467 350 507 387 16 15 8 15 -35 2z"/>
<path d="M1979 1473 c-24 -19 -140 -110 -257 -201 -173 -134 -210 -167 -201
-179 7 -7 75 -60 153 -116 78 -56 179 -130 225 -164 46 -35 88 -63 92 -63 11
0 17 42 29 230 10 154 20 282 36 442 6 59 4 67 -13 76 -16 9 -27 4 -64 -25z
m-90 -298 c24 -3 51 -10 61 -15 56 -30 80 -144 40 -188 -54 -58 -120 -71 -185
-37 -39 20 -74 49 -76 63 -1 4 -5 17 -10 30 -19 49 -11 89 27 127 30 32 40 36
67 31 18 -3 52 -8 76 -11z"/>
<path d="M1146 1423 c-17 -36 -17 -37 5 -57 13 -12 18 -14 11 -5 -7 9 -8 20
-4 24 4 5 1 5 -5 1 -17 -9 -16 -1 3 35 8 17 14 33 12 35 -3 2 -12 -13 -22 -33z"/>
<path d="M3033 1377 c-45 -29 -82 -55 -83 -58 0 -8 150 -42 157 -35 4 3 -1 6
-10 6 -12 0 -14 6 -8 28 5 15 7 36 5 47 -2 11 4 30 12 43 8 12 13 22 12 21 -2
0 -40 -24 -85 -52z"/>
<path d="M1101 1334 c-14 -32 -11 -37 23 -28 23 5 25 9 14 22 -12 14 -10 14
12 3 l25 -12 -24 20 c-30 27 -35 26 -50 -5z"/>
<path d="M3398 1290 c-4 -36 -5 -67 -2 -69 6 -6 104 90 104 101 0 4 -15 8 -34
8 -23 0 -36 -6 -42 -17 -6 -15 -8 -12 -14 12 -5 24 -7 18 -12 -35z"/>
<path d="M2850 1316 c0 -6 157 -371 172 -401 l14 -25 28 29 c15 16 28 32 27
35 -1 3 -1 7 0 9 11 35 12 105 6 254 l-2 42 -85 24 c-76 21 -87 22 -108 9 -12
-8 -25 -12 -29 -9 -3 4 2 9 11 13 20 8 11 24 -15 24 -10 0 -19 -2 -19 -4z"/>
<path d="M3466 1259 c-31 -28 -56 -54 -56 -58 0 -7 235 -71 259 -71 11 0 1 16
-84 133 -17 23 -38 43 -47 45 -8 2 -41 -20 -72 -49z"/>
<path d="M2698 1162 c-80 -54 -150 -100 -153 -104 -7 -7 291 -338 304 -338 3
0 44 35 90 78 l84 78 -81 189 c-44 104 -84 190 -89 191 -4 1 -74 -41 -155 -94z"/>
<path d="M7100 1190 c-14 -4 -43 -9 -65 -10 l-40 -2 40 -13 c22 -7 33 -13 25
-14 -12 -1 -13 -3 -1 -10 11 -7 11 -9 0 -14 -8 -3 -5 -6 8 -6 12 -1 24 -7 27
-13 5 -10 7 -10 12 0 3 6 17 12 30 12 17 0 24 6 24 20 0 11 -6 20 -14 20 -9 0
-12 7 -9 20 6 21 2 22 -37 10z m7 -56 c-3 -3 -12 -4 -19 -1 -8 3 -5 6 6 6 11
1 17 -2 13 -5z"/>
<path d="M3386 1128 c-7 -59 -42 -531 -52 -702 -5 -77 -4 -107 4 -102 6 3 12
-1 14 -10 3 -18 103 118 307 420 91 135 120 185 115 200 -4 11 -19 47 -34 80
-15 34 -28 66 -29 71 -1 6 -19 16 -39 23 -37 13 -261 72 -274 72 -4 0 -9 -24
-12 -52z"/>
<path d="M3344 1148 c-11 -14 -13 -18 -3 -11 14 11 15 6 12 -45 -2 -31 -5 -69
-7 -84 -1 -16 1 -28 4 -28 7 0 21 181 16 188 -2 1 -11 -8 -22 -20z"/>
<path d="M2429 1138 c8 -11 12 -38 9 -72 l-3 -55 38 22 c20 11 37 23 37 27 0
3 -21 26 -47 50 -26 25 -41 37 -34 28z"/>
<path d="M1457 1105 c3 -8 9 -12 14 -9 12 7 11 11 -5 17 -10 4 -13 1 -9 -8z"/>
<path d="M2478 1019 c-33 -22 -43 -35 -43 -56 -1 -41 -15 -112 -30 -147 -20
-47 -47 -68 -81 -62 -34 7 -84 55 -87 84 -1 21 -1 21 -47 -5 -103 -60 -151
-94 -147 -106 2 -7 48 -29 103 -50 208 -79 384 -150 381 -154 -5 -5 -166 54
-329 121 -138 57 -162 63 -172 47 -3 -5 -10 -132 -16 -282 -5 -151 -12 -304
-14 -341 l-3 -68 32 0 c25 0 47 14 107 68 41 37 161 145 266 240 106 95 192
177 192 183 0 5 5 9 11 9 12 0 234 201 234 212 0 4 -70 81 -157 171 l-156 165
-44 -29z m92 -509 c8 -5 11 -10 5 -10 -5 0 -17 5 -25 10 -8 5 -10 10 -5 10 6
0 17 -5 25 -10z"/>
<path d="M4159 958 c9 -23 41 -186 44 -219 1 -15 4 -15 38 0 50 22 269 144
266 148 -6 5 -280 81 -320 88 -36 7 -37 7 -28 -17z"/>
<path d="M3337 872 c-4 -56 -11 -110 -16 -120 -17 -33 -40 -118 -47 -172 -10
-80 -5 -137 15 -176 l19 -34 5 32 c9 51 39 534 35 554 -2 11 -7 -27 -11 -84z"/>
<path d="M3061 893 l-22 -18 42 -97 c44 -102 65 -130 29 -39 -11 29 -18 56
-15 61 3 5 0 12 -5 15 -6 4 -10 17 -8 28 1 12 -2 28 -6 36 -6 9 -5 12 1 8 5
-3 10 0 10 8 0 19 0 19 -26 -2z"/>
<path d="M7281 875 c22 -36 33 -46 23 -20 -4 8 -1 15 5 15 6 0 11 -5 11 -11 0
-5 5 -7 10 -4 6 4 8 11 4 16 -3 5 -2 9 3 8 31 -5 20 5 -17 17 -62 19 -62 19
-39 -21z m17 0 c-3 -3 -9 2 -12 12 -6 14 -5 15 5 6 7 -7 10 -15 7 -18z"/>
<path d="M3712 793 c-232 -330 -367 -533 -354 -533 8 0 405 212 499 267 41 24
59 40 53 48 -4 5 -27 66 -51 135 -40 120 -65 180 -74 180 -2 0 -35 -44 -73
-97z"/>
<path d="M7347 852 c-30 -31 -27 -45 8 -36 13 3 26 1 29 -5 4 -6 32 -11 62
-11 51 0 54 -1 54 -25 0 -14 -6 -25 -12 -25 -9 0 -9 -3 1 -9 21 -14 -25 -50
-63 -51 -16 0 -27 -3 -23 -6 9 -9 237 18 237 28 0 5 -13 34 -29 66 l-29 57
-95 23 c-52 12 -99 22 -104 22 -5 0 -21 -13 -36 -28z m43 8 c0 -5 -4 -10 -10
-10 -5 0 -10 5 -10 10 0 6 5 10 10 10 6 0 10 -4 10 -10z m-35 -30 c-3 -5 -12
-10 -18 -10 -7 0 -6 4 3 10 19 12 23 12 15 0z"/>
<path d="M4460 843 c-201 -112 -259 -147 -251 -153 6 -3 16 -47 22 -98 7 -52
17 -92 24 -92 14 0 385 106 391 112 4 5 -84 227 -95 239 -16 18 -50 14 -91 -8z"/>
<path d="M2942 789 c-45 -39 -82 -74 -82 -77 0 -3 8 -15 18 -26 17 -21 17 -21
-5 -2 -27 22 -11 33 -161 -103 -90 -83 -92 -85 -70 -98 13 -7 19 -12 15 -13
-5 0 -17 5 -27 10 -19 10 -110 -68 -510 -437 l-45 -42 943 -1 943 0 -15 29
c-8 15 -13 31 -10 34 3 3 -14 12 -38 20 l-43 16 40 -5 c40 -6 40 -5 42 29 1
31 -2 35 -35 44 l-37 10 40 2 c37 1 42 4 54 37 7 20 22 45 32 55 20 20 19 20
-58 15 l-78 -5 72 12 c40 7 75 15 77 18 3 3 -3 21 -14 41 -10 20 -16 39 -13
42 10 9 -8 7 -71 -9 -33 -9 -60 -14 -62 -12 -2 1 28 13 67 27 38 13 66 26 61
29 -5 3 -20 29 -32 56 -12 28 -24 52 -26 54 -3 4 -68 -31 -332 -177 -94 -52
-170 -97 -168 -99 2 -3 48 7 101 22 54 14 99 24 101 22 2 -2 -41 -16 -96 -32
-56 -15 -99 -29 -97 -31 2 -3 50 1 106 7 56 6 104 9 107 6 3 -2 -47 -10 -111
-17 -64 -7 -114 -15 -111 -17 2 -3 58 -11 123 -18 l118 -14 -105 4 -105 5 90
-24 c120 -32 94 -32 -51 -1 -64 14 -118 24 -120 22 -2 -2 -5 -14 -7 -26 -4
-28 -42 -70 -75 -82 -60 -23 -143 -4 -194 44 -22 21 -34 24 -70 21 l-43 -4 33
13 33 13 -19 24 c-28 37 -50 83 -55 115 -2 19 -14 33 -38 46 -39 21 -37 23 9
10 30 -9 32 -8 32 15 0 26 23 78 46 105 12 13 7 23 -38 75 l-52 59 55 -52 54
-52 26 22 c59 50 68 55 75 49 9 -9 6 0 -51 138 -27 63 -51 118 -55 123 -3 4
-43 -25 -88 -64z m-242 -329 c8 -5 11 -10 5 -10 -5 0 -17 5 -25 10 -8 5 -10
10 -5 10 6 0 17 -5 25 -10z m50 -20 c8 -5 11 -10 5 -10 -5 0 -17 5 -25 10 -8
5 -10 10 -5 10 6 0 17 -5 25 -10z m1077 -76 c-3 -3 -12 -4 -19 -1 -8 3 -5 6 6
6 11 1 17 -2 13 -5z m-70 -20 c-3 -3 -12 -4 -19 -1 -8 3 -5 6 6 6 11 1 17 -2
13 -5z m60 -70 c-3 -3 -12 -4 -19 -1 -8 3 -5 6 6 6 11 1 17 -2 13 -5z m-850
-130 c-3 -3 -12 -4 -19 -1 -8 3 -5 6 6 6 11 1 17 -2 13 -5z m690 0 c-3 -3 -12
-4 -19 -1 -8 3 -5 6 6 6 11 1 17 -2 13 -5z m-830 -30 c-3 -3 -12 -4 -19 -1 -8
3 -5 6 6 6 11 1 17 -2 13 -5z m-50 -10 c-3 -3 -12 -4 -19 -1 -8 3 -5 6 6 6 11
1 17 -2 13 -5z m-40 -10 c-3 -3 -12 -4 -19 -1 -8 3 -5 6 6 6 11 1 17 -2 13 -5z
m-44 -11 c-7 -2 -19 -2 -25 0 -7 3 -2 5 12 5 14 0 19 -2 13 -5z m-46 -9 c-3
-3 -12 -4 -19 -1 -8 3 -5 6 6 6 11 1 17 -2 13 -5z m-44 -11 c-7 -2 -19 -2 -25
0 -7 3 -2 5 12 5 14 0 19 -2 13 -5z m-63 -13 c-14 -4 -34 -8 -45 -8 -16 0 -15
2 5 8 14 4 34 8 45 8 16 0 15 -2 -5 -8z m-77 -17 c-7 -2 -19 -2 -25 0 -7 3 -2
5 12 5 14 0 19 -2 13 -5z m-46 -9 c-3 -3 -12 -4 -19 -1 -8 3 -5 6 6 6 11 1 17
-2 13 -5z"/>
<path d="M7408 763 c6 -2 18 -2 25 0 6 3 1 5 -13 5 -14 0 -19 -2 -12 -5z"/>
<path d="M7308 673 c12 -2 32 -2 45 0 12 2 2 4 -23 4 -25 0 -35 -2 -22 -4z"/>
<path d="M3142 639 c6 -16 12 -28 14 -26 5 5 -13 57 -20 57 -3 0 0 -14 6 -31z"/>
<path d="M7258 663 c7 -3 16 -2 19 1 4 3 -2 6 -13 5 -11 0 -14 -3 -6 -6z"/>
<path d="M4510 559 c-279 -80 -269 -77 -265 -102 3 -12 6 -44 7 -70 l3 -47 40
0 c41 0 420 39 442 45 8 3 -1 34 -28 97 -22 51 -43 99 -46 106 -6 15 9 18
-153 -29z"/>
</g>
</svg>
