<?xml version="1.0" standalone="no"?>
<!DOCTYPE svg PUBLIC "-//W3C//DTD SVG 20010904//EN"
 "http://www.w3.org/TR/2001/REC-SVG-20010904/DTD/svg10.dtd">
<svg version="1.0" xmlns="http://www.w3.org/2000/svg"
 width="400px" height="200px" viewBox="0 0 1330.000000 748.000000"
 preserveAspectRatio="xMidYMid meet">

<g transform="translate(0.000000,748.000000) scale(0.100000,-0.100000)"
fill="#000000" stroke="none">
<path d="M0 6199 l1 -1280 22 5 c12 3 16 3 9 0 -6 -3 -9 -11 -6 -16 4 -6 2 -8
-3 -5 -6 4 -14 0 -17 -9 -4 -11 -2 -15 8 -11 15 6 16 -17 1 -30 -4 -4 -5 -2
-1 5 4 6 2 12 -3 12 -6 0 -11 -7 -11 -15 0 -25 20 -17 38 15 9 16 20 30 25 30
12 0 8 -28 -5 -33 -10 -4 -10 -6 0 -6 22 -2 53 19 46 31 -4 6 -3 8 4 4 6 -3
14 -1 18 5 4 8 3 9 -4 5 -7 -4 -12 -3 -12 2 0 5 -10 7 -23 5 -17 -3 -26 2 -34
20 -9 19 -8 24 3 24 8 0 14 -6 14 -13 0 -7 4 -16 10 -19 6 -4 7 1 3 10 -3 10
0 21 8 26 11 8 11 9 -3 7 -9 -2 -16 2 -15 7 1 6 10 10 19 9 14 0 15 3 7 13 -9
10 -8 13 5 13 9 0 17 -6 17 -12 2 -18 1 -21 -6 -40 -4 -11 -3 -18 4 -18 6 0
10 3 10 8 -3 20 2 31 14 26 8 -3 20 2 27 11 8 10 9 15 1 15 -6 0 -11 -4 -11
-10 0 -5 -4 -10 -9 -10 -6 0 -8 9 -6 20 2 11 0 18 -6 15 -5 -4 -9 1 -9 9 0 9
-4 16 -10 16 -5 0 -10 -5 -10 -10 0 -16 -60 -8 -73 10 -10 13 -10 13 5 2 13
-10 17 -10 21 0 4 10 6 10 6 1 1 -7 8 -13 17 -13 8 0 12 4 9 10 -3 6 -2 10 4
10 6 0 8 7 5 15 -4 8 -10 15 -16 15 -5 0 -6 -6 -2 -12 5 -9 2 -9 -9 1 -9 7
-17 19 -17 25 0 6 5 4 10 -4 9 -13 10 -13 10 1 0 18 39 63 48 55 3 -3 -5 -14
-16 -25 -26 -21 -29 -33 -7 -25 11 5 14 1 9 -12 -5 -15 -4 -16 4 -4 6 8 9 17
6 21 -2 4 6 5 18 3 13 -2 17 -2 11 2 -7 3 -13 10 -13 15 0 6 4 8 9 4 5 -3 12
-1 16 5 3 5 0 10 -8 10 -18 0 -30 27 -16 36 6 4 6 11 -2 20 -6 7 -15 12 -19 9
-4 -3 -10 1 -13 8 -3 8 3 14 14 14 11 1 17 -2 14 -8 -4 -5 6 -14 20 -19 38
-14 40 -13 14 10 -14 11 -18 19 -11 20 7 0 11 4 8 9 -3 4 -17 7 -31 6 -14 -2
-23 1 -19 6 3 5 9 7 13 5 4 -3 13 0 21 5 12 8 12 12 3 16 -7 2 -13 9 -13 15 0
6 7 4 17 -3 15 -13 16 -12 11 9 -4 12 -2 22 3 22 13 0 11 -44 -2 -57 -7 -7 -6
-12 5 -16 12 -5 16 0 16 18 0 14 5 25 10 25 7 0 6 8 -1 23 -11 20 -11 21 4 8
18 -14 22 -5 8 18 -5 8 -14 10 -21 6 -9 -5 -11 -4 -6 3 4 7 2 12 -3 12 -6 0
-11 4 -11 8 0 12 40 9 40 -3 1 -5 7 2 16 17 9 17 20 25 29 22 19 -8 20 -34 1
-34 -8 0 -17 -4 -20 -8 -2 -4 8 -8 23 -7 22 0 28 5 27 20 -1 11 -7 24 -13 28
-7 4 -13 13 -13 18 0 6 5 7 10 4 6 -3 10 0 10 8 0 8 9 22 20 32 11 10 20 24
20 31 0 7 6 15 12 17 7 3 2 6 -12 6 -14 1 -31 5 -39 10 -8 6 -24 6 -38 0 -14
-5 -23 -5 -23 1 0 10 18 13 75 12 29 -1 29 -1 5 6 -29 9 -39 39 -16 48 9 3 13
11 9 17 -3 6 -1 7 5 3 9 -5 9 -13 2 -26 -16 -30 -12 -34 10 -9 10 13 19 19 20
13 0 -5 -6 -16 -13 -23 -9 -11 -9 -13 0 -7 8 4 13 2 13 -6 0 -10 2 -10 9 1 5
7 13 11 19 7 6 -3 9 8 7 29 -1 23 3 39 13 44 12 7 10 12 -11 26 -37 24 -57 15
-29 -13 26 -26 28 -32 11 -43 -15 -9 -29 -3 -29 12 0 6 5 7 10 4 6 -3 10 -2
10 3 0 11 -28 24 -39 18 -4 -3 -7 4 -7 14 0 10 3 18 6 18 17 -3 38 16 33 30
-4 13 -3 14 5 3 8 -11 11 -11 16 0 3 8 3 4 0 -8 -4 -17 -1 -23 10 -23 9 0 16
8 16 18 -1 23 -22 50 -37 45 -6 -2 -14 1 -18 6 -4 7 1 8 12 4 16 -6 17 -5 3
13 -14 18 -14 18 5 3 26 -22 113 -40 122 -27 3 6 -2 15 -11 20 -9 5 -14 13
-11 19 4 5 2 9 -4 9 -5 0 -13 -9 -16 -21 -4 -11 -10 -18 -13 -14 -10 10 41 93
61 99 10 2 16 10 12 15 -3 6 -11 9 -16 6 -5 -3 -19 4 -31 16 -23 21 -23 21 -1
10 30 -15 43 -14 37 4 -4 8 -1 15 5 15 20 0 30 -43 14 -62 -19 -21 -1 -31 23
-13 10 8 14 15 8 15 -17 0 -12 30 5 30 10 0 7 5 -9 13 -14 8 -24 19 -22 26 1
7 -2 9 -9 5 -8 -4 -9 -3 -5 4 10 17 26 15 26 -3 0 -8 7 -15 16 -15 9 0 12 5 8
12 -4 7 -3 8 5 4 6 -4 9 -12 6 -17 -4 -5 -1 -9 5 -9 7 0 8 -6 0 -19 -8 -16 -7
-19 8 -16 9 2 22 4 28 4 25 2 24 32 -1 41 -30 11 -33 25 -4 17 15 -4 19 -2 15
9 -3 8 -1 14 4 14 17 0 11 32 -7 46 -15 11 -12 12 20 3 45 -12 44 -12 49 21 2
17 -1 24 -10 22 -8 -1 -12 3 -10 10 3 7 13 15 23 16 12 3 15 0 9 -10 -6 -10
-5 -11 8 -1 8 7 18 11 22 8 3 -3 2 1 -4 7 -16 19 -12 28 13 24 12 -3 24 -5 26
-5 3 -1 0 -6 -7 -13 -19 -19 -14 -37 8 -31 11 3 20 10 20 15 0 5 -6 6 -12 2
-9 -5 -8 -2 1 9 16 20 58 18 72 -4 7 -11 9 -11 9 4 0 9 -3 17 -7 18 -31 3 -58
11 -70 21 -11 9 -12 7 -7 -8 4 -11 3 -16 -2 -11 -11 11 -13 57 -2 57 4 0 8 -7
8 -15 0 -8 5 -15 11 -15 6 0 8 7 5 16 -3 8 -2 12 4 9 6 -3 10 -13 10 -22 0 -9
3 -13 8 -9 4 4 7 13 7 19 0 7 8 13 18 15 9 2 17 -1 17 -7 0 -6 -6 -9 -12 -7
-7 1 -10 1 -5 -1 4 -3 5 -8 2 -13 -3 -4 2 -10 10 -13 9 -4 12 -1 8 9 -3 9 1
14 11 14 15 0 15 3 1 30 -17 32 -20 64 -6 56 5 -3 11 1 15 9 3 8 12 15 19 15
15 0 16 -27 3 -48 -4 -7 -5 -16 -2 -19 3 -4 6 -1 6 6 0 7 4 10 9 7 4 -3 13 6
19 19 7 15 8 25 2 25 -6 0 -10 9 -10 21 0 12 -8 23 -20 26 -11 3 -20 9 -20 14
0 13 18 11 32 -5 11 -11 15 -11 26 3 11 14 12 13 3 -5 -7 -15 -7 -31 1 -52 10
-26 16 -30 35 -26 19 5 23 2 23 -17 0 -19 2 -21 10 -9 8 12 10 12 10 1 0 -8 3
-11 6 -8 4 4 1 14 -7 24 -9 11 -10 14 -1 9 6 -4 12 -2 12 3 0 6 5 11 11 11 5
0 8 -4 5 -8 -3 -5 1 -9 8 -9 9 0 12 7 8 16 -5 14 -3 14 11 2 9 -7 17 -20 17
-27 0 -8 4 -14 10 -14 6 0 5 10 -2 25 -6 14 -15 25 -20 25 -4 0 -8 7 -8 15 0
8 -4 15 -8 15 -5 0 -9 7 -9 15 0 8 4 12 9 9 4 -3 15 2 24 10 20 20 44 21 44 1
0 -25 36 -17 49 11 9 20 15 23 25 15 20 -17 28 0 11 25 -11 17 -12 25 -3 30 6
4 8 3 5 -3 -4 -6 0 -16 8 -23 12 -10 15 -9 15 6 0 11 4 15 8 9 11 -15 46 -19
37 -4 -5 7 -3 10 6 7 8 -3 13 -13 11 -23 -3 -17 -2 -17 13 -1 9 9 21 16 26 16
5 0 9 5 9 12 0 9 -3 9 -12 0 -14 -14 -28 -16 -28 -4 0 4 14 13 31 19 30 12 31
11 26 -12 -3 -19 0 -25 14 -25 11 0 19 7 20 18 1 11 4 8 8 -8 4 -14 3 -28 -3
-32 -6 -4 -7 -10 -3 -15 9 -8 28 17 21 28 -2 4 2 9 10 12 8 3 17 -2 21 -11 5
-14 7 -14 15 -2 6 8 10 11 10 6 0 -6 6 -2 13 8 13 18 15 17 35 -8 11 -15 18
-34 15 -42 -3 -8 0 -14 7 -14 6 0 8 -5 4 -11 -4 -7 2 -7 17 1 19 11 24 10 35
-4 15 -21 24 -22 36 -4 8 10 9 9 4 -4 -3 -10 0 -23 7 -30 21 -23 17 -45 -9
-42 -16 1 -21 -2 -17 -12 3 -8 0 -21 -7 -29 -7 -8 -8 -15 -4 -15 5 0 15 9 22
20 7 12 17 18 23 14 7 -4 6 -10 -1 -19 -8 -9 -8 -15 0 -20 5 -3 8 -18 5 -33
-3 -15 -2 -21 1 -14 3 6 11 12 17 12 5 0 7 -3 4 -7 -4 -3 3 -11 15 -17 31 -16
34 -36 6 -37 -20 -1 -21 -2 -3 -6 11 -3 25 -10 30 -15 7 -7 7 -9 0 -5 -6 3
-11 -3 -11 -14 0 -10 4 -19 9 -19 4 0 6 -4 2 -10 -3 -5 -13 -7 -23 -4 -14 5
-14 4 -2 -4 18 -13 41 3 33 24 -3 8 0 14 6 14 6 0 10 -3 10 -7 -1 -5 -1 -15 0
-23 1 -13 2 -13 11 0 8 12 10 11 10 -8 0 -13 12 -34 27 -48 15 -14 23 -25 18
-24 -20 4 -35 0 -35 -11 0 -5 5 -7 10 -4 6 3 10 1 10 -4 0 -6 -6 -11 -12 -11
-7 0 -5 -5 5 -11 32 -19 9 -59 -31 -52 -19 2 -21 1 -10 -11 9 -10 15 -11 20
-2 5 7 8 3 8 -9 0 -12 3 -16 8 -9 10 14 42 26 42 14 0 -5 -5 -12 -10 -15 -6
-4 -7 -11 -4 -17 5 -7 2 -9 -7 -6 -11 4 -15 -3 -16 -26 -1 -17 1 -25 3 -18 9
19 31 14 29 -8 -1 -11 -4 -23 -8 -26 -4 -4 -1 -14 6 -22 8 -11 8 -14 0 -9 -6
4 -13 2 -15 -5 -5 -14 14 -58 25 -58 5 0 5 -5 2 -10 -4 -6 -10 -8 -15 -5 -11
7 1 -38 13 -46 5 -4 5 -14 -1 -26 -6 -10 -7 -25 -3 -32 12 -19 1 -51 -18 -52
-12 0 -10 -3 5 -9 17 -7 20 -15 16 -41 -4 -24 -2 -30 8 -24 10 6 11 4 4 -6 -4
-8 -10 -23 -11 -34 -3 -18 -2 -18 8 -2 11 19 29 23 29 6 0 -5 -4 -8 -9 -5 -5
3 -11 -8 -13 -24 -3 -16 0 -31 6 -33 6 -2 9 -17 8 -34 -1 -18 4 -36 14 -44 14
-11 13 -15 -8 -30 -18 -14 -21 -20 -10 -30 16 -17 15 -29 -3 -29 -8 0 -15 -4
-15 -10 0 -5 8 -10 17 -10 13 0 12 -5 -8 -26 -15 -16 -19 -24 -9 -22 11 2 14
-4 12 -24 -1 -16 2 -28 8 -28 5 0 10 -6 10 -14 0 -8 8 -17 18 -19 16 -4 16 -5
0 -6 -11 -1 -15 -6 -12 -16 4 -10 0 -15 -11 -15 -9 0 -13 -5 -10 -10 4 -6 16
-8 28 -5 12 2 16 2 10 -1 -20 -9 -15 -24 5 -17 10 4 5 -5 -12 -22 -28 -26 -29
-27 -6 -20 23 7 23 7 7 -9 -22 -22 -21 -28 3 -44 29 -18 27 -45 -3 -37 l-22 7
23 -22 c13 -12 21 -28 18 -36 -3 -8 -1 -14 4 -14 6 0 0 -10 -12 -22 -14 -14
-18 -23 -10 -26 7 -2 9 -9 5 -15 -4 -6 0 -8 9 -4 17 6 19 -8 4 -31 -4 -7 -5
-16 -2 -19 3 -4 6 -2 6 4 0 6 6 13 13 16 10 4 13 -2 9 -21 -4 -20 -2 -24 12
-19 9 4 16 2 16 -2 0 -18 -25 -18 -48 0 -19 14 -26 16 -37 6 -7 -7 -9 -14 -5
-17 4 -3 10 -14 13 -25 4 -12 5 -10 3 8 -2 15 1 27 5 27 5 0 9 -9 9 -19 0 -14
5 -18 20 -14 22 6 29 -20 8 -33 -7 -5 -9 -2 -5 9 4 11 2 14 -8 11 -8 -3 -11
-12 -8 -20 3 -8 0 -14 -7 -14 -6 0 -8 -5 -5 -10 4 -6 21 2 42 20 19 17 37 30
38 28 12 -12 9 -67 -4 -88 -15 -24 -15 -25 4 -8 19 16 20 15 22 -24 0 -22 6
-44 12 -48 6 -3 10 -25 8 -48 -2 -25 1 -42 7 -42 6 0 5 -4 -3 -9 -7 -5 -11
-14 -7 -19 13 -22 15 -96 3 -104 -9 -6 -9 -8 1 -8 6 0 12 -11 12 -24 0 -39 12
-86 22 -86 5 0 6 5 2 12 -4 7 -3 8 4 4 6 -4 9 -13 5 -22 -3 -8 -2 -14 3 -13
30 5 84 -2 79 -11 -4 -6 -11 -8 -16 -5 -5 4 -9 1 -9 -5 0 -7 -7 -10 -14 -7
-10 4 -13 1 -9 -9 6 -16 33 -19 33 -4 0 7 6 7 19 1 10 -6 21 -7 25 -4 3 3 6 1
6 -4 0 -7 20 -10 53 -9 58 3 80 -2 71 -15 -3 -5 2 -9 10 -9 20 0 21 -19 1 -26
-8 -4 -13 -10 -10 -14 3 -4 -2 -10 -10 -14 -8 -3 -14 -16 -14 -28 l2 -23 4 23
c3 14 12 22 24 22 16 0 19 -4 14 -22 -7 -21 -6 -22 7 -5 13 17 54 15 44 -2 -3
-4 5 -8 17 -8 15 -2 18 0 8 6 -10 7 -11 13 -1 31 6 12 14 19 17 16 3 -3 0 -12
-7 -21 -10 -12 -10 -15 4 -15 9 0 27 -6 39 -14 17 -10 90 -13 336 -14 228 0
321 -4 337 -13 19 -10 27 -9 41 2 10 8 14 9 10 2 -6 -9 139 -11 650 -7 362 2
1023 6 1468 9 446 2 824 4 840 5 18 0 37 9 48 23 10 12 16 17 13 10 -4 -7 2
-17 13 -22 23 -13 45 7 31 29 -5 8 -6 18 -3 22 2 5 -1 15 -7 23 -8 9 -8 15 -2
15 6 0 17 3 26 6 11 4 18 -5 26 -38 14 -54 33 -98 42 -98 3 0 12 -16 18 -35 6
-19 26 -52 43 -73 18 -21 43 -53 56 -70 13 -18 30 -32 38 -32 8 0 11 -4 8 -10
-3 -5 0 -10 9 -10 24 0 29 -54 10 -112 -9 -29 -19 -59 -20 -65 -2 -7 -15 -13
-30 -13 -14 0 -39 -11 -55 -24 -16 -14 -53 -34 -84 -45 -30 -11 -73 -32 -95
-46 -22 -14 -46 -25 -53 -25 -24 0 -249 -116 -303 -156 -35 -26 -66 -63 -97
-113 -62 -101 -100 -187 -93 -208 7 -24 -3 -37 -42 -52 -18 -8 -40 -27 -48
-43 -13 -26 -13 -38 0 -112 20 -101 20 -117 2 -141 -13 -19 -15 -18 -47 7 -82
63 -94 78 -94 130 0 26 2 48 5 48 3 0 6 19 8 43 5 72 6 77 14 77 4 0 8 6 8 13
0 7 14 21 30 30 17 10 30 24 30 31 0 6 11 28 26 47 18 24 24 44 22 70 -1 20 5
47 13 60 9 13 22 41 30 63 9 24 23 42 39 48 30 11 41 28 34 50 -3 12 4 22 25
32 25 14 28 19 22 43 -6 23 -15 29 -47 34 -21 4 -54 4 -71 2 -32 -5 -45 8 -23
22 8 5 7 12 -2 23 -12 14 -6 15 58 9 68 -7 71 -6 84 17 19 37 6 60 -28 51 -15
-4 -57 -9 -93 -10 l-66 -2 1 36 c1 26 13 52 44 94 36 48 41 61 31 73 -7 9 -20
12 -33 8 -24 -7 -66 -43 -66 -56 0 -5 -17 -32 -39 -61 -49 -67 -113 -186 -105
-198 3 -6 0 -17 -7 -25 -7 -9 -15 -68 -20 -152 -4 -75 -12 -165 -18 -198 -6
-34 -15 -118 -19 -188 -5 -69 -11 -128 -14 -132 -8 -8 -78 15 -78 25 0 14 -73
40 -133 49 -60 9 -103 6 -113 -9 -10 -16 -43 -9 -58 12 -8 12 -19 18 -24 15
-6 -3 -12 0 -15 6 -3 10 -13 9 -43 -5 -21 -10 -63 -23 -92 -28 -30 -4 -66 -16
-81 -26 -14 -10 -28 -18 -31 -19 -3 0 -13 -4 -23 -9 -10 -4 -35 -4 -55 0 -119
22 -133 19 -185 -43 -15 -19 -27 -31 -27 -28 0 9 -70 -29 -95 -51 -19 -16 -37
-46 -39 -65 -1 -3 -4 -9 -7 -13 -4 -3 -5 -25 -3 -48 4 -34 0 -45 -19 -62 -69
-59 -84 -147 -38 -221 15 -24 30 -41 34 -38 4 4 8 0 8 -9 2 -25 4 -31 11 -42
3 -5 4 -30 2 -55 -2 -25 -5 -61 -6 -80 0 -19 -3 -29 -5 -22 -6 16 -32 15 -39
-2 -3 -8 2 -28 11 -45 33 -64 -16 -70 -81 -9 -55 52 -93 75 -132 81 -17 3 -35
8 -40 11 -5 3 -24 8 -42 11 -19 3 -39 10 -45 14 -29 22 -122 42 -191 40 -41
-1 -74 -5 -74 -8 0 -6 -52 -26 -92 -35 -21 -6 -65 -34 -96 -63 -13 -12 -47
-30 -75 -39 -29 -9 -58 -22 -66 -28 -12 -9 -13 -8 -6 4 6 11 3 10 -12 -3 -11
-9 -24 -17 -29 -17 -9 0 -96 -59 -131 -90 -7 -5 -15 -10 -19 -10 -9 0 -54 -53
-54 -62 0 -5 -7 -8 -15 -8 -8 0 -15 -5 -15 -11 0 -7 -12 -22 -26 -35 -14 -13
-23 -28 -19 -33 3 -6 0 -13 -8 -18 -16 -10 -50 -63 -44 -70 3 -2 -1 -16 -8
-30 -7 -14 -12 -34 -10 -44 2 -11 0 -19 -5 -19 -5 0 -14 -17 -20 -37 -6 -21
-14 -45 -17 -53 -9 -22 -9 -21 -18 -74 -7 -43 -11 -50 -44 -63 -20 -8 -50 -21
-67 -29 -40 -18 -268 -26 -289 -10 -8 6 -15 27 -17 46 l-3 35 -70 6 -70 5 73
2 72 2 2 103 2 102 6 -80 6 -80 3 75 c2 41 5 88 7 103 2 18 -4 35 -16 47 -18
18 -38 20 -217 22 -189 3 -198 4 -202 23 -2 11 -8 23 -14 27 -7 4 -10 29 -8
60 2 29 4 61 4 71 1 20 2 20 26 8 15 -9 20 -2 36 47 10 31 18 65 16 75 -1 10
3 24 9 32 6 7 10 19 9 27 -2 7 1 31 5 53 4 22 9 55 11 74 3 19 9 39 15 45 5 5
10 18 10 28 0 10 4 26 9 36 5 9 17 34 27 56 11 21 24 40 31 43 6 2 10 15 8 29
-1 14 0 22 3 20 3 -3 12 9 21 27 11 21 13 35 6 39 -6 5 -2 8 8 8 10 0 15 4 12
10 -3 5 1 23 10 40 8 16 13 30 10 30 -3 0 -1 10 6 21 6 12 12 35 13 52 1 17 7
32 12 34 6 2 8 18 6 35 -3 18 -1 28 5 25 5 -3 15 3 22 15 7 11 8 17 2 13 -6
-3 -11 -1 -11 4 0 6 4 11 10 11 13 0 39 41 46 71 6 27 12 85 16 135 1 19 5 34
9 34 4 0 3 16 -1 34 -4 19 -6 37 -4 39 2 2 6 14 8 28 2 13 5 24 6 24 2 0 10
104 11 153 0 33 5 52 12 52 8 0 9 3 1 8 -15 10 -10 59 9 80 10 10 14 22 11 25
-4 4 -1 15 7 24 7 10 10 15 5 11 -12 -10 -58 61 -52 79 3 8 1 11 -4 8 -6 -3
-13 2 -17 12 -4 10 -14 25 -23 33 -8 8 -21 27 -28 43 -6 15 -17 27 -23 27 -7
0 -9 10 -7 25 3 15 1 22 -5 18 -6 -4 -8 0 -4 10 4 10 0 20 -11 26 -13 8 -13
10 -3 11 9 0 2 12 -17 28 -18 16 -32 34 -32 40 0 7 -4 12 -9 12 -5 0 -7 8 -4
18 3 12 -7 26 -31 43 -36 25 -96 95 -96 110 0 5 -8 9 -17 9 -15 0 -16 2 -3 10
11 7 11 10 2 10 -7 0 -17 10 -22 23 -5 12 -9 17 -9 10 -1 -15 -31 -5 -31 11 0
13 -54 51 -87 60 -11 4 -24 13 -27 21 -3 8 -12 15 -21 15 -14 0 -20 12 -16 33
1 5 -3 6 -7 3 -5 -3 -17 3 -27 14 -15 16 -73 43 -97 45 -3 0 -10 3 -14 7 -4 4
-13 3 -20 -3 -10 -8 -15 -7 -20 4 -4 12 -12 13 -40 5 -29 -8 -41 -6 -70 11
-19 12 -32 15 -29 9 4 -7 1 -6 -7 2 -7 8 -24 17 -38 19 -14 1 -27 6 -30 10 -3
4 -21 13 -40 21 -19 8 -38 19 -42 24 -5 7 -8 6 -8 -3 0 -11 -5 -9 -22 5 -12
10 -18 13 -14 7 4 -7 2 -13 -3 -13 -6 0 -11 5 -11 11 0 7 -9 9 -21 6 -15 -4
-19 -2 -15 9 5 12 1 14 -15 9 -14 -5 -25 -2 -30 6 -5 8 -9 9 -9 3 0 -7 -15
-11 -37 -9 -21 1 -48 -2 -59 -6 -13 -4 -26 -3 -33 4 -6 6 -11 7 -11 1 0 -5
-20 -8 -45 -6 -25 2 -42 8 -39 13 3 5 -9 9 -25 9 -17 0 -31 5 -31 10 0 6 -6
10 -14 10 -8 0 -17 8 -21 18 -6 20 -55 48 -55 32 0 -5 -12 -5 -28 -1 -29 9
-100 -18 -86 -32 4 -3 -3 -5 -14 -2 -12 2 -24 0 -27 -5 -6 -10 -75 27 -75 41
0 5 -6 9 -14 9 -13 0 -28 23 -30 45 -1 6 -8 10 -16 10 -8 0 -15 5 -15 12 0 22
-15 29 -72 35 -13 1 -23 6 -23 10 0 4 -9 8 -19 8 -10 0 -22 7 -25 16 -3 8 -10
13 -15 10 -5 -3 -12 1 -15 10 -5 14 -9 14 -23 3 -11 -10 -14 -10 -9 -2 5 9 2
11 -8 7 -9 -3 -16 -11 -16 -16 0 -6 -7 -8 -15 -4 -8 3 -14 0 -12 -6 1 -7 -7
-17 -19 -22 -23 -10 -50 -86 -40 -111 3 -9 2 -14 -3 -11 -5 3 -12 -10 -15 -30
-4 -19 -10 -43 -13 -52 -4 -15 -3 -15 7 -2 9 12 10 8 4 -20 -3 -19 -13 -39
-20 -43 -8 -5 -12 -12 -9 -18 4 -5 -1 -12 -9 -15 -9 -3 -14 -9 -12 -13 2 -3
-16 -5 -41 -4 -27 1 -55 -4 -69 -14 l-24 -15 0 -1979 0 -1979 725 0 c432 0
725 4 725 9 0 5 -13 15 -30 23 -16 7 -30 17 -30 21 0 5 -7 15 -15 23 -8 9 -15
13 -15 9 0 -4 -7 0 -15 9 -8 8 -15 17 -15 21 0 12 -27 34 -34 28 -3 -4 -6 -1
-6 6 0 7 -6 9 -12 6 -7 -4 -5 0 5 8 16 13 16 15 1 21 -8 3 -24 6 -35 6 -15 0
-17 4 -10 23 7 17 4 29 -9 47 -10 14 -16 29 -12 35 3 5 -1 4 -10 -3 -14 -12
-16 -10 -11 10 5 22 5 22 -9 4 -14 -18 -15 -18 -15 0 0 11 5 22 11 26 7 5 7 8
-2 8 -7 0 -25 14 -39 30 -13 17 -29 28 -34 24 -5 -3 -9 2 -9 10 0 9 -4 16 -10
16 -5 0 -10 5 -10 11 0 5 5 7 12 3 7 -4 8 -3 4 5 -4 6 -12 9 -17 6 -5 -4 -9 1
-9 10 0 8 -11 20 -25 25 -15 6 -25 17 -25 30 0 18 -15 25 -42 21 -4 0 -5 6 -2
13 3 8 -18 38 -50 71 -53 53 -69 74 -46 60 6 -4 -1 10 -15 31 -14 20 -25 43
-25 51 0 9 -6 13 -15 10 -11 -5 -12 -1 -5 18 7 18 5 28 -5 38 -8 8 -11 17 -8
21 4 3 -2 13 -13 22 -13 11 -15 17 -7 20 7 3 13 14 13 24 0 20 57 80 76 80 6
0 17 6 23 14 7 8 20 13 29 11 9 -1 22 1 27 5 23 18 425 44 425 27 0 -5 8 -7
18 -6 44 6 159 -36 196 -71 22 -22 11 -93 -17 -112 -6 -3 -43 -7 -81 -7 -39 0
-82 -3 -96 -7 -14 -3 -36 -7 -50 -8 -26 -3 -68 -18 -107 -38 -48 -24 -16 -59
82 -89 22 -6 50 -15 63 -20 13 -5 30 -9 39 -9 16 0 78 -25 138 -57 17 -8 53
-27 80 -41 28 -14 53 -30 56 -34 3 -5 15 -10 27 -13 32 -6 122 -67 115 -78 -3
-6 -1 -7 4 -4 12 8 103 -77 103 -97 0 -15 65 -77 74 -69 3 3 12 -1 20 -9 11
-12 12 -18 3 -27 -8 -8 -4 -11 16 -11 20 0 27 -5 27 -19 0 -23 16 -37 23 -19
2 7 13 -7 25 -32 12 -25 21 -37 22 -28 0 10 5 15 14 12 7 -3 12 -16 10 -30 -1
-16 3 -24 12 -24 9 0 12 -5 8 -12 -5 -7 -2 -9 9 -5 11 4 14 2 11 -8 -3 -8 1
-22 10 -30 9 -9 16 -23 16 -31 0 -13 191 -14 1464 -14 l1464 1 16 32 c13 28
16 29 16 10 0 -18 6 -23 26 -23 14 0 23 -4 19 -10 -3 -6 0 -10 8 -10 10 0 13
8 9 25 -3 20 0 25 17 25 12 0 21 6 21 15 0 8 5 15 10 15 6 0 10 7 10 15 0 8 7
15 16 15 9 0 14 6 11 13 -2 6 -9 11 -15 10 -6 -2 -17 7 -23 20 -6 12 -22 31
-36 42 -13 11 -29 31 -36 45 -8 16 -22 25 -37 26 -13 1 -26 7 -28 13 -2 6 -10
11 -17 11 -7 0 -16 6 -18 13 -4 9 -6 9 -6 -1 -1 -13 -33 4 -73 37 -41 35 -79
8 -82 -58 -1 -18 -9 -27 -33 -35 -37 -12 -70 -51 -53 -61 13 -8 -6 -35 -25
-35 -7 0 -15 -7 -19 -15 -3 -9 -18 -15 -36 -15 -17 0 -29 -4 -26 -8 11 -18
-43 -35 -89 -29 -28 4 -45 3 -45 -4 0 -6 -6 -6 -17 -1 -10 5 -23 8 -29 5 -6
-2 -19 6 -29 17 -16 17 -17 24 -7 38 7 9 15 25 18 35 9 24 23 21 50 -8 23 -25
51 -35 38 -13 -4 7 -3 8 4 4 7 -4 27 0 46 9 19 9 39 14 45 11 5 -3 13 8 17 26
10 45 11 87 2 81 -5 -2 -8 -1 -9 4 0 4 -2 17 -4 27 -2 11 5 28 17 38 11 10 22
29 24 44 1 14 10 31 19 38 19 14 24 61 8 77 -11 11 -73 21 -72 11 5 -35 -23
-43 -57 -17 -16 13 -17 16 -4 25 8 5 21 8 29 5 9 -4 11 0 7 11 -3 8 -6 18 -6
20 0 2 -8 4 -18 4 -11 0 -27 9 -37 20 -10 11 -14 20 -10 20 4 0 0 9 -10 20
-12 14 -22 17 -34 11 -22 -12 -71 -2 -71 15 0 7 -6 17 -13 21 -7 4 -23 24 -35
45 -21 33 -21 40 -10 85 7 26 15 50 19 53 10 8 17 60 8 60 -5 0 -9 7 -9 16 0
8 -5 12 -10 9 -6 -3 -10 5 -10 19 0 35 10 56 26 56 8 0 14 5 14 11 0 6 6 9 13
6 6 -2 33 6 59 19 39 20 65 25 140 26 51 1 102 -1 114 -4 88 -25 125 -38 146
-51 12 -8 44 -18 70 -21 26 -4 57 -15 70 -25 23 -18 73 -37 117 -46 13 -2 43
-17 68 -32 25 -15 59 -36 75 -46 16 -9 53 -19 81 -22 68 -6 94 -12 132 -29 16
-8 48 -17 70 -20 68 -9 109 -19 130 -32 11 -7 38 -12 60 -11 22 2 65 -3 95
-11 30 -7 68 -15 83 -18 16 -2 33 -7 39 -10 6 -4 60 -8 119 -10 79 -2 115 -7
131 -18 12 -9 37 -16 55 -16 17 0 34 -4 37 -9 3 -5 23 -12 43 -16 54 -10 91
-32 112 -66 25 -40 18 -61 -30 -90 -39 -24 -39 -25 -37 -79 2 -62 -13 -100
-42 -100 -25 0 -90 -63 -90 -87 0 -11 -5 -24 -12 -31 -7 -7 -8 -12 -3 -12 5 0
-6 -11 -25 -25 -23 -17 -37 -22 -45 -15 -13 11 -40 -12 -28 -23 3 -4 2 -7 -4
-7 -5 0 -16 11 -23 25 -12 23 -15 24 -36 10 -17 -11 -24 -12 -27 -2 -3 9 -9 9
-23 -1 -11 -7 -27 -15 -36 -18 -11 -4 -18 -16 -18 -31 0 -13 4 -22 9 -19 5 4
12 0 14 -6 3 -7 6 1 7 17 l1 30 16 -23 c16 -23 43 -30 43 -11 0 8 6 7 17 -2 9
-8 14 -9 10 -3 -3 6 1 11 9 11 8 0 13 -6 10 -14 -3 -7 -1 -13 5 -13 5 0 2 -9
-8 -19 -13 -14 -28 -19 -55 -16 -21 2 -40 -1 -43 -6 -4 -5 1374 -9 3540 -9
l3546 0 24 25 25 24 -2 3696 -3 3697 -24 19 c-23 19 -140 19 -6647 19 l-6624
0 0 -1281z m5660 1150 c-62 -10 -411 -10 -385 1 11 5 112 8 225 8 135 0 190
-3 160 -9z m2043 -17 c10 -15 17 -621 18 -1682 2 -1280 1 -1411 -9 -1427 -5
-9 -89 -14 -304 -17 l-297 -6 -21 47 c-11 26 -27 55 -35 63 -8 9 -16 29 -17
44 -2 20 -11 31 -35 43 -18 8 -37 21 -44 29 -6 8 -18 14 -27 14 -8 0 -38 11
-66 23 -64 30 -200 50 -274 42 -32 -4 -92 -23 -137 -44 -98 -46 -157 -104
-201 -199 l-31 -66 -1149 -3 c-632 -2 -1537 -4 -2011 -6 l-861 -3 -6 29 c-5
26 -11 2491 -6 2902 1 94 5 173 8 177 4 4 495 10 1092 13 597 4 1090 8 1097
10 7 2 675 7 1485 11 810 4 1475 8 1477 10 8 8 350 4 354 -4z m2774 -154 c2
-17 0 -19 -7 -8 -5 8 -6 18 -4 22 8 12 10 10 11 -14z m363 13 c0 -5 -7 -12
-16 -15 -14 -5 -15 -4 -4 9 14 17 20 19 20 6z m-660 -21 c0 -5 -5 -10 -11 -10
-5 0 -7 5 -4 10 3 6 8 10 11 10 2 0 4 -4 4 -10z m225 0 c-3 -5 -12 -10 -18
-10 -7 0 -6 4 3 10 19 12 23 12 15 0z m175 -10 c0 -5 -5 -10 -11 -10 -5 0 -7
5 -4 10 3 6 8 10 11 10 2 0 4 -4 4 -10z m-125 -20 c3 -5 1 -10 -4 -10 -6 0
-11 5 -11 10 0 6 2 10 4 10 3 0 8 -4 11 -10z m-160 -9 c3 -5 2 -12 -3 -15 -5
-3 -9 1 -9 9 0 17 3 19 12 6z m370 -1 c4 -6 -1 -7 -11 -3 -12 4 -15 3 -10 -5
4 -7 2 -12 -3 -12 -12 0 -14 13 -4 23 9 10 21 9 28 -3z m340 -19 c-6 -5 -25
10 -25 20 0 5 6 4 14 -3 8 -7 12 -15 11 -17z m116 -14 c-6 -15 -17 -27 -26
-27 -19 0 -19 -24 0 -40 8 -7 15 -17 15 -23 0 -5 -8 -1 -18 11 -12 14 -29 20
-50 20 -32 -1 -58 -18 -28 -18 9 0 16 -5 16 -11 0 -7 12 -10 30 -7 17 3 30 1
30 -4 0 -4 -6 -8 -12 -9 -10 0 -10 -2 -1 -5 7 -3 9 -12 6 -20 -3 -8 -1 -14 5
-14 6 0 9 8 8 18 -4 20 11 32 38 32 19 0 19 0 0 -22 -18 -21 -18 -21 0 -15 13
5 17 3 13 -6 -3 -8 3 -21 14 -30 22 -19 28 0 7 22 -11 10 -10 11 5 6 12 -5 17
-2 17 10 0 12 -5 15 -16 11 -13 -5 -15 -2 -11 14 5 19 -3 24 -30 21 -7 -1 -13
3 -13 9 0 6 4 9 8 6 5 -3 25 3 44 14 26 14 35 15 35 5 0 -8 -7 -11 -16 -7 -13
5 -14 3 -4 -10 7 -8 10 -18 6 -22 -4 -4 1 -4 11 0 15 6 17 4 9 -12 -6 -10 -8
-25 -6 -31 3 -7 0 -13 -6 -13 -6 0 -11 -4 -11 -10 0 -22 28 4 34 30 4 20 10
28 20 24 8 -3 17 -1 21 5 3 6 1 11 -5 11 -6 0 -8 5 -5 11 5 6 12 4 22 -8 13
-17 14 -17 9 0 -6 19 18 24 29 6 5 -7 14 -4 28 8 21 18 21 17 7 -1 -14 -18
-13 -18 10 -12 16 5 20 4 12 -2 -10 -6 -6 -15 14 -36 20 -20 29 -23 35 -14 4
7 5 15 0 18 -4 3 1 13 11 23 10 9 18 13 18 8 0 -6 -4 -12 -9 -15 -11 -7 -9
-29 5 -47 6 -8 21 -35 34 -61 13 -27 25 -47 26 -45 7 7 -18 77 -26 77 -6 0
-10 9 -10 20 0 11 4 20 10 20 5 0 7 -6 4 -14 -3 -8 0 -17 6 -21 6 -3 10 -3 9
2 -3 18 1 33 10 33 5 0 8 -8 7 -17 -1 -21 38 -26 40 -5 2 22 4 23 14 17 8 -5
8 -11 1 -19 -6 -7 -7 -17 -3 -21 4 -5 2 -5 -5 -2 -6 4 -13 1 -16 -5 -3 -10 -7
-10 -21 1 -9 8 -20 10 -24 6 -4 -4 -1 -10 6 -12 6 -3 12 -12 13 -21 0 -11 2
-12 6 -4 5 12 33 17 33 6 0 -4 -7 -12 -16 -19 -13 -9 -14 -16 -6 -31 11 -18
11 -18 12 4 0 13 6 22 13 21 6 -1 19 -1 27 0 13 1 12 4 -2 14 -19 15 -8 44 12
32 9 -6 9 -9 -1 -16 -10 -6 -8 -9 7 -9 21 0 29 -27 13 -40 -4 -3 0 -11 9 -19
13 -12 14 -12 10 0 -3 8 2 20 11 27 14 10 13 11 -4 5 -18 -6 -19 -5 -6 11 12
14 12 19 2 25 -7 5 -13 12 -14 17 -1 5 -7 8 -14 6 -12 -3 -10 35 3 47 4 3 4
-2 1 -11 -6 -17 4 -23 28 -18 5 1 7 -2 3 -5 -4 -4 -3 -16 3 -27 10 -18 12 -18
27 -5 16 14 17 12 19 -19 1 -19 -3 -34 -9 -34 -6 0 -7 8 -3 18 5 13 3 14 -6 5
-7 -7 -9 -19 -4 -30 5 -10 7 -22 6 -26 -1 -5 15 -8 36 -7 21 1 43 1 48 0 6 -1
13 -2 17 -2 3 1 9 -5 12 -14 4 -10 2 -13 -6 -8 -7 4 -8 3 -4 -4 4 -8 0 -12
-12 -12 -10 0 -19 -6 -19 -14 0 -7 5 -13 11 -12 17 2 61 50 58 61 -2 6 0 6 4
2 5 -4 9 -18 9 -29 0 -12 7 -23 15 -25 13 -4 13 -3 0 6 -13 9 -13 12 -1 23 10
10 12 10 7 1 -5 -9 0 -13 14 -13 16 0 20 -5 16 -15 -3 -9 0 -15 10 -15 8 0 13
4 10 9 -3 5 1 14 9 21 11 9 15 9 15 1 0 -7 4 -9 10 -6 6 4 7 -1 3 -11 -5 -13
-3 -15 7 -9 10 6 12 4 7 -8 -4 -11 -1 -17 8 -17 8 0 12 -8 10 -20 -3 -13 2
-20 12 -20 9 0 13 6 10 14 -3 8 1 17 10 20 10 4 13 2 10 -8 -7 -16 19 -30 28
-15 4 5 11 7 16 4 11 -7 12 5 1 22 -4 7 -21 10 -40 8 -37 -5 -41 4 -11 23 12
8 18 9 14 3 -3 -7 2 -11 13 -11 27 0 46 -25 37 -47 -5 -10 -8 -21 -7 -25 2 -7
-32 -3 -47 6 -5 3 -15 -2 -22 -11 -10 -12 -10 -14 -1 -9 7 4 12 2 12 -4 0 -6
4 -9 8 -6 5 3 21 7 36 10 25 4 27 3 23 -17 -6 -21 -6 -21 8 -3 17 23 20 40 5
31 -5 -3 -10 -1 -10 4 0 21 21 10 32 -16 9 -23 12 -25 15 -10 3 10 -1 26 -9
35 -11 15 -11 15 3 5 9 -7 18 -10 21 -7 3 3 9 0 14 -7 4 -8 3 -10 -4 -5 -7 4
-12 3 -12 -2 0 -13 39 -22 46 -11 3 5 9 7 14 4 5 -3 7 5 5 17 -4 22 -4 22 10
4 11 -14 18 -16 28 -8 10 8 16 6 26 -11 9 -15 10 -18 1 -10 -14 13 -40 7 -57
-15 -11 -13 -13 -13 -13 -2 0 10 -4 8 -13 -5 -22 -32 -27 -54 -15 -61 6 -4 8
-3 5 3 -4 6 0 14 9 17 26 10 34 7 28 -11 -5 -15 -4 -16 5 -3 6 8 11 11 11 7 0
-5 5 -5 11 -2 6 5 4 12 -8 22 -17 13 -16 13 5 3 12 -6 22 -15 22 -21 0 -6 4
-7 10 -4 7 4 7 -2 0 -19 -6 -17 -6 -27 2 -32 7 -5 8 -3 3 6 -6 10 -2 12 18 8
18 -4 28 0 31 11 2 9 2 -1 -1 -22 -4 -31 -3 -36 11 -31 9 3 16 10 16 16 0 5
-6 6 -12 2 -10 -6 -10 -4 0 8 7 8 9 23 6 33 -5 11 -1 22 9 30 15 11 16 14 2
25 -8 7 -15 17 -15 22 0 6 9 0 20 -13 16 -21 17 -26 5 -35 -20 -15 -19 -31 3
-43 16 -10 16 -10 -1 -11 -10 0 -15 -5 -12 -11 4 -6 14 -7 24 -4 9 4 26 9 39
11 19 4 23 1 20 -15 -2 -11 1 -21 6 -23 6 -2 10 14 11 35 1 20 6 41 10 45 5 4
6 -1 2 -10 -3 -9 0 -19 9 -22 8 -3 14 -11 14 -18 0 -9 -3 -8 -10 2 -6 10 -10
11 -10 3 0 -20 4 -28 13 -25 14 4 -4 -42 -24 -61 -23 -21 -25 -35 -3 -17 19
17 86 20 96 6 5 -7 8 -7 8 2 0 6 7 12 16 12 9 0 12 -5 8 -12 -5 -7 -3 -8 7 -2
26 16 36 12 33 -12 -2 -19 3 -24 19 -24 17 0 19 -2 8 -9 -9 -6 -22 -6 -34 1
-10 5 -21 8 -23 5 -7 -7 7 -37 18 -37 5 0 7 4 4 8 -2 4 4 8 15 8 10 0 19 -3
19 -7 0 -7 -31 -23 -41 -21 -4 1 -4 -9 -1 -21 5 -19 7 -19 10 -4 2 11 9 16 18
13 8 -3 12 -2 9 4 -3 5 8 16 24 25 16 8 32 11 35 7 3 -5 19 -7 36 -6 18 1 33
-3 36 -10 3 -7 11 -13 19 -13 13 0 13 3 -1 18 -9 10 -14 24 -11 31 4 8 6 7 6
-4 1 -10 8 -18 16 -18 14 0 19 -19 18 -59 -1 -19 15 0 19 24 3 22 56 54 76 47
11 -4 11 -6 0 -13 -9 -6 -6 -9 10 -9 16 0 21 4 16 13 -5 9 -4 9 6 0 8 -7 11
-16 7 -19 -11 -11 -51 -11 -66 0 -11 8 -13 8 -8 -1 4 -7 -1 -14 -14 -18 -16
-6 -18 -9 -8 -15 7 -5 18 -6 24 -2 5 3 4 -1 -3 -10 -10 -13 -10 -18 -1 -24 8
-4 9 -3 5 4 -8 13 4 16 19 4 17 -12 17 -35 0 -29 -8 4 -15 2 -15 -3 0 -6 6
-10 14 -10 8 0 18 -5 21 -11 4 -6 0 -9 -11 -7 -11 2 -18 -2 -17 -9 2 -7 -4
-10 -12 -7 -8 4 -15 9 -15 13 0 3 -16 7 -35 7 -19 1 -35 -3 -35 -8 0 -5 4 -7
9 -3 6 3 9 -4 8 -15 -1 -15 -7 -20 -19 -17 -10 3 -16 1 -12 -4 3 -5 -2 -9 -10
-9 -9 0 -16 -4 -16 -10 0 -5 -6 -7 -14 -4 -8 3 -24 -4 -35 -15 -12 -12 -23
-21 -26 -21 -3 0 -10 0 -16 0 -6 0 -8 -7 -5 -16 4 -11 2 -15 -7 -11 -8 3 -14
-1 -14 -8 0 -7 7 -11 16 -8 13 4 13 3 2 -5 -7 -5 -22 -7 -32 -5 -12 4 -19 0
-19 -9 0 -8 -11 -21 -25 -28 -14 -7 -25 -17 -25 -22 0 -5 4 -6 10 -3 6 4 7 -1
3 -11 -4 -12 -8 -14 -11 -6 -5 17 -32 -4 -32 -24 0 -8 -5 -14 -11 -14 -5 0 -7
-5 -4 -10 4 -6 3 -10 -2 -9 -17 3 -36 -1 -31 -7 7 -6 -39 -54 -52 -54 -6 0
-10 -4 -10 -9 0 -5 -13 -23 -30 -41 -16 -18 -30 -38 -30 -45 0 -7 -7 -16 -16
-19 -9 -4 -13 -2 -8 5 4 7 -7 1 -25 -12 -29 -21 -44 -38 -21 -24 6 3 10 1 10
-4 0 -6 -7 -11 -15 -11 -8 0 -15 -4 -15 -10 0 -5 -7 -10 -16 -10 -8 0 -12 -4
-9 -10 3 -5 1 -10 -5 -10 -6 0 -8 -5 -5 -11 4 -6 -2 -13 -13 -16 -14 -3 -19
-10 -15 -21 4 -10 3 -14 -2 -10 -11 11 -35 -11 -29 -26 2 -6 -6 -22 -18 -33
-33 -31 -48 -51 -48 -63 0 -14 -21 -51 -40 -70 -8 -8 -22 -24 -30 -35 -14 -19
-14 -19 3 -6 24 19 22 -4 -3 -29 -23 -23 -26 -34 -7 -25 6 4 4 0 -5 -8 -10 -8
-15 -17 -11 -20 3 -4 1 -7 -5 -7 -6 0 -13 -14 -17 -30 -4 -17 -11 -28 -16 -25
-5 4 -6 -2 -2 -11 3 -10 2 -15 -3 -12 -10 7 -11 -48 -1 -59 13 -12 7 -22 -10
-16 -12 5 -15 2 -10 -10 3 -9 2 -17 -2 -17 -5 0 -7 -13 -5 -29 3 -16 0 -32 -6
-36 -6 -3 -8 -11 -4 -16 9 -16 11 -98 2 -93 -5 3 -6 -6 -2 -20 4 -17 2 -26 -6
-26 -9 0 -9 -4 1 -17 9 -11 10 -14 2 -9 -9 5 -11 -1 -7 -22 3 -16 1 -39 -5
-50 -9 -17 -8 -23 5 -30 14 -8 14 -11 2 -23 -12 -10 -13 -21 -6 -46 5 -20 5
-40 -1 -51 -10 -19 -9 -81 2 -99 3 -5 -2 -15 -13 -23 -13 -9 -16 -20 -12 -39
3 -14 6 -41 6 -58 1 -18 5 -33 9 -33 5 0 5 -4 2 -10 -3 -5 -1 -10 5 -10 6 0 8
-5 5 -10 -4 -6 -10 -8 -15 -5 -4 3 -7 -6 -6 -20 1 -23 2 -24 14 -8 12 16 12
14 5 -12 -12 -45 -5 -187 9 -179 4 3 5 -11 3 -30 -3 -19 0 -38 6 -42 8 -5 8
-9 -1 -14 -9 -5 -9 -13 -2 -27 8 -15 8 -24 -1 -33 -7 -7 -7 -10 -2 -7 7 3 12
-17 13 -55 1 -33 5 -65 9 -72 4 -6 9 -20 10 -31 5 -35 12 -46 24 -39 8 4 8 0
0 -15 -8 -15 -9 -21 -1 -21 6 0 8 -5 5 -10 -4 -6 -1 -17 5 -25 6 -8 9 -19 6
-24 -4 -5 2 -14 11 -20 10 -6 14 -11 9 -11 -4 0 -1 -12 9 -26 9 -14 15 -34 12
-43 -2 -9 2 -22 10 -29 7 -7 13 -24 13 -38 0 -14 4 -23 8 -20 4 2 7 -8 6 -22
-1 -15 3 -38 8 -52 5 -13 11 -56 13 -95 5 -79 7 -95 18 -112 5 -8 4 -13 -3
-13 -13 0 0 -170 17 -225 4 -11 6 -27 5 -36 -2 -9 6 -19 18 -22 13 -3 18 -10
14 -21 -3 -9 -1 -16 5 -16 6 0 11 -9 11 -21 0 -11 8 -33 19 -47 10 -15 22 -43
26 -62 4 -19 14 -44 21 -55 8 -12 12 -31 10 -42 -3 -14 0 -20 7 -17 8 3 12
-11 13 -43 0 -27 4 -79 8 -118 14 -139 14 -163 0 -190 -8 -15 -14 -33 -14 -39
0 -13 -47 -62 -58 -60 -16 2 -42 -9 -42 -18 0 -6 -7 -8 -15 -4 -8 3 -15 1 -15
-4 0 -6 -8 -10 -17 -10 -9 0 -13 -3 -10 -7 4 -4 -12 -18 -36 -32 -24 -14 -52
-34 -61 -43 -10 -10 -24 -18 -32 -18 -8 0 -14 -8 -14 -17 0 -14 -2 -15 -9 -5
-6 10 -20 1 -57 -33 -27 -26 -50 -42 -52 -36 -2 6 -23 -10 -48 -34 -24 -25
-44 -41 -44 -37 0 4 -10 -4 -21 -18 -11 -14 -18 -19 -14 -12 8 16 -3 15 -20
-2 -8 -7 -11 -17 -7 -21 4 -5 -1 -5 -10 -2 -10 4 -18 3 -18 -2 0 -4 -12 -14
-27 -22 -16 -8 -31 -18 -35 -24 -5 -6 -8 -5 -8 3 0 7 -5 10 -10 7 -6 -4 -7
-12 -3 -18 5 -9 3 -9 -8 0 -11 9 -18 8 -31 -1 -10 -7 -15 -15 -13 -18 3 -3 -1
-11 -10 -18 -9 -7 -15 -8 -15 -2 0 5 -9 8 -21 5 -16 -4 -17 -8 -7 -14 9 -6 5
-9 -14 -9 -15 0 -29 -4 -33 -10 -3 -5 -12 -7 -20 -3 -10 3 -13 1 -10 -9 3 -8
-1 -14 -12 -15 -30 -3 -94 -33 -88 -42 3 -5 -5 -7 -17 -3 -14 3 -19 2 -14 -6
4 -7 2 -12 -3 -12 -6 0 -11 6 -11 12 0 7 -7 2 -16 -10 -8 -12 -19 -20 -24 -17
-5 3 -13 -3 -19 -12 -9 -14 -12 -15 -19 -5 -8 11 -10 11 -15 -2 -4 -9 -14 -16
-24 -16 -10 0 -24 -9 -31 -20 -7 -12 -18 -17 -29 -13 -11 4 -14 3 -9 -6 8 -12
-19 -40 -39 -40 -5 0 -1 6 9 14 11 8 17 17 14 20 -2 3 -13 -4 -23 -15 -10 -11
-25 -20 -34 -20 -14 0 -14 -2 -1 -10 13 -8 13 -10 -2 -10 -9 0 -23 -2 -30 -5
-15 -6 -46 86 -74 225 -19 92 -31 112 -91 146 -27 15 -67 47 -89 70 -28 28
-53 44 -75 48 -69 10 -216 20 -276 18 -53 -2 -65 1 -85 21 -28 29 -48 63 -53
88 -2 11 -10 26 -17 33 -7 8 -23 32 -36 53 -13 21 -41 49 -63 63 -23 14 -71
54 -107 90 -69 67 -95 84 -147 95 -16 3 -41 14 -55 23 -35 22 -47 24 -315 37
-114 5 -164 3 -205 -7 -49 -12 -94 -15 -168 -10 -15 1 -21 6 -16 14 4 7 3 8
-5 4 -14 -9 -81 12 -81 25 0 6 -5 7 -10 4 -6 -4 -24 0 -40 9 -19 9 -28 10 -23
3 5 -9 3 -9 -8 -1 -8 6 -22 10 -31 9 -10 -2 -18 0 -18 4 0 11 -181 11 -202 0
-10 -5 -18 -6 -18 -1 0 5 -30 9 -67 10 -136 2 -184 5 -190 15 -3 5 -9 3 -14
-4 -6 -10 -9 -10 -9 -2 0 9 -14 11 -45 9 -25 -2 -48 1 -51 5 -7 13 -21 11 -36
-4 -7 -8 -26 -17 -42 -21 -16 -4 -50 -21 -75 -39 -25 -17 -51 -32 -58 -33 -7
-1 -31 57 -58 138 -77 237 -177 411 -264 463 -43 25 -51 35 -51 60 0 17 -5 37
-10 45 -7 11 -10 5 -10 -22 0 -21 -4 -38 -9 -38 -12 0 -21 53 -20 114 l2 51 7
-40 c4 -22 8 -30 9 -19 0 12 8 28 17 35 13 10 15 24 10 63 -3 27 -10 54 -16
60 -17 17 -11 35 19 50 39 21 69 115 44 140 -8 8 -9 12 -11 57 -4 53 -166 98
-198 54 -23 -31 -17 -97 11 -135 14 -19 25 -40 25 -47 0 -7 14 -28 31 -48 l31
-35 -21 -43 c-27 -55 -27 -102 -1 -124 11 -10 20 -25 20 -34 0 -22 -41 -68
-47 -51 -3 6 -15 12 -28 12 -13 0 -45 11 -72 24 -112 55 -295 127 -308 122
-10 -3 -20 6 -30 27 -8 18 -24 48 -36 67 l-21 35 26 81 c30 92 34 147 11 138
-9 -4 -15 0 -16 7 -1 8 -2 21 -3 29 0 9 -10 14 -22 13 -18 -2 -21 2 -17 18 3
11 2 19 -3 18 -25 -4 -36 2 -31 20 5 21 -30 45 -66 46 -17 0 -26 11 -39 50 -9
28 -14 52 -11 55 2 2 24 -17 48 -43 25 -26 46 -47 48 -47 2 0 30 9 62 20 32
11 59 20 60 20 2 0 6 -11 9 -25 4 -14 13 -25 22 -25 9 0 12 5 8 13 -5 9 -4 9
6 0 7 -6 19 -9 26 -6 8 3 22 2 31 -1 14 -6 15 -9 4 -15 -9 -6 -8 -10 7 -13 16
-5 19 -2 14 11 -5 14 -4 14 11 2 14 -11 20 -11 34 0 12 10 15 10 9 1 -6 -10
22 -12 133 -11 l140 1 10 30 c6 17 11 41 11 53 0 35 59 51 61 18 1 -16 2 -16
6 -2 9 34 103 23 95 -10 -1 -7 2 -10 8 -6 8 5 7 11 -1 21 -9 11 -8 14 7 15 11
1 25 1 33 0 7 -2 11 2 7 7 -3 5 1 9 9 9 8 0 12 -4 9 -8 -2 -4 0 -11 6 -14 6
-4 9 -1 8 7 -2 7 8 14 21 16 13 2 21 0 18 -5 -3 -5 3 -9 14 -9 10 0 19 6 19
14 0 8 -5 10 -12 6 -10 -5 -10 -4 0 7 10 11 16 11 32 1 22 -13 20 -16 26 48 1
19 5 69 9 110 3 41 7 119 7 172 1 53 5 95 8 93 4 -2 6 9 5 26 -1 16 4 41 11
54 7 15 9 27 3 30 -5 4 -9 11 -9 16 0 6 4 8 8 5 5 -3 9 1 9 9 0 8 -3 15 -7 15
-3 0 -7 14 -8 30 -2 23 2 30 15 31 15 0 15 2 3 7 -9 4 -16 20 -17 40 0 32 11
43 20 20 4 -10 6 -10 6 0 1 7 -6 15 -14 18 -12 5 -12 8 0 20 7 8 18 14 23 14
5 0 17 10 28 23 l19 22 -22 -18 c-25 -22 -55 -19 -59 6 -1 9 2 14 8 11 5 -3
16 2 23 12 8 11 15 14 15 8 0 -6 7 -11 15 -11 22 0 18 14 -5 20 -13 3 -18 10
-14 21 4 11 0 16 -12 16 -11 0 -15 -4 -9 -8 6 -4 11 -14 13 -22 3 -11 -2 -9
-16 5 -10 11 -16 22 -13 25 26 22 33 41 20 58 -11 14 -11 15 0 5 7 -6 20 -9
27 -6 8 3 14 -1 15 -8 1 -8 4 -3 8 11 8 26 -10 47 -28 35 -19 -11 -23 36 -5
56 17 19 17 20 -4 26 -20 5 -26 15 -23 36 0 4 -4 7 -10 7 -7 0 0 11 15 25 15
14 32 25 38 25 6 0 9 3 6 6 -4 3 -15 1 -27 -5 -17 -9 -22 -8 -31 9 -7 13 -7
20 0 20 5 0 10 -6 11 -12 0 -10 2 -10 6 0 2 6 9 10 14 6 5 -3 9 -1 9 5 0 6 8
7 17 4 11 -4 8 2 -8 18 -13 13 -26 23 -29 22 -8 -2 -5 45 3 53 4 4 3 12 -1 18
-16 25 -7 61 18 73 14 7 18 12 10 13 -12 0 -12 2 -2 9 11 7 11 9 -2 14 -9 4
-16 2 -16 -3 0 -6 -4 -10 -10 -10 -5 0 -7 7 -3 16 4 11 14 14 32 11 22 -4 23
-4 9 7 -14 10 -15 15 -5 25 9 10 8 15 -5 25 -10 7 -18 17 -18 22 0 4 5 3 11
-3 15 -15 52 -4 45 13 -3 8 1 14 10 14 8 0 12 5 9 10 -5 8 -11 7 -21 -1 -7 -6
-11 -15 -8 -20 3 -5 -2 -9 -10 -9 -10 0 -13 6 -10 15 4 8 10 15 16 15 5 0 7 4
3 9 -3 6 5 8 17 6 19 -4 23 0 25 25 1 17 -3 30 -8 30 -6 0 -9 7 -6 14 4 11 1
13 -11 10 -11 -3 -9 1 6 12 12 9 22 21 22 26 0 6 -6 6 -14 -1 -12 -10 -14 -9
-12 6 2 10 14 21 27 24 13 4 18 7 11 8 -7 1 -10 5 -7 11 3 5 -3 17 -14 26 -19
17 -19 17 5 39 24 22 23 38 -2 28 -19 -7 -18 12 2 32 12 12 13 19 4 30 -10 11
-7 13 12 10 19 -4 23 0 23 19 0 20 -3 22 -17 15 -24 -13 -24 7 -1 20 10 5 15
13 10 17 -4 4 -16 -1 -27 -11 -11 -10 -23 -16 -26 -12 -3 3 7 14 23 23 15 10
31 23 34 27 9 12 -1 47 -12 47 -5 0 -9 5 -9 10 0 6 5 10 11 10 21 0 39 25 39
56 0 10 6 14 15 10 8 -3 15 -1 15 4 0 6 -5 10 -11 10 -7 0 -9 11 -6 27 3 15 1
37 -4 48 -9 18 -9 19 4 3 17 -22 31 -11 15 11 -10 13 -10 14 2 4 8 -7 21 -13
29 -13 14 0 14 1 1 10 -12 8 -11 10 6 10 11 0 26 -6 33 -12 11 -10 11 -8 0 9
-8 13 -20 22 -28 20 -8 -1 -15 4 -17 11 -1 7 0 8 2 3 4 -7 10 -6 18 2 11 10
10 14 -6 25 -18 13 -18 15 -2 33 16 18 16 20 -3 36 -10 10 -13 14 -6 9 16 -11
46 1 38 15 -4 6 -13 8 -21 5 -22 -8 -16 8 7 23 18 11 21 11 17 -1 -3 -7 0 -18
7 -25 10 -9 14 -8 18 8 3 10 10 19 17 19 7 0 9 -9 5 -22 -5 -20 -5 -21 5 -5 9
14 8 24 -4 43 -15 21 -15 24 -1 24 9 0 18 7 21 15 4 8 10 12 15 9 5 -3 9 -3 9
0 0 9 -55 35 -70 33 -8 -1 -17 2 -20 7 -6 12 39 16 46 4 3 -4 13 -8 22 -8 16
1 16 1 0 11 -20 11 -24 39 -6 39 6 0 3 7 -8 15 -10 8 -14 14 -9 14 6 1 21 -8
35 -19 27 -21 45 -26 35 -10 -3 6 -2 10 4 10 5 0 12 -6 14 -12 3 -8 6 -7 6 4
1 9 -3 20 -9 23 -5 3 -10 14 -10 23 1 13 8 8 30 -16 17 -18 30 -28 30 -23 0 6
-4 12 -9 15 -5 3 -7 15 -4 26 5 19 -3 24 -43 23 -6 0 -11 10 -11 23 0 13 3 24
8 24 5 0 9 -6 9 -13 0 -8 14 -13 38 -14 26 0 31 2 17 7 -14 5 -20 17 -20 43
-1 20 2 34 7 31 4 -3 11 2 14 11 4 10 13 14 23 11 13 -5 13 -4 -1 8 -26 19
-22 27 7 16 20 -7 25 -6 25 5 0 9 -6 12 -17 8 -11 -5 -14 -3 -8 6 4 8 2 17 -6
23 -11 7 -9 8 6 6 11 -2 24 -13 30 -26 10 -24 39 -30 51 -10 5 7 2 9 -8 6 -20
-8 -41 25 -25 41 8 8 8 11 -1 11 -6 0 -9 7 -5 16 5 15 7 15 15 0 5 -9 15 -14
21 -10 7 3 1 -4 -13 -15 -29 -24 -15 -28 18 -5 12 8 27 12 33 8 8 -5 10 1 7
20 -3 14 -1 29 4 32 4 3 6 9 3 14 -3 5 0 12 6 16 9 5 10 0 7 -14 -4 -12 -2
-22 3 -22 18 0 24 -2 35 -11 8 -6 14 -4 17 6 4 8 1 14 -5 12 -6 -1 -13 4 -15
11 -4 11 -1 12 15 3 15 -8 23 -6 37 9 10 11 24 16 33 13 11 -5 14 -2 9 10 -8
21 0 22 18 3 8 -7 11 -16 8 -20 -11 -11 21 -5 52 9 17 8 23 14 15 14 -8 -1
-22 -1 -30 0 -13 1 -13 2 0 11 13 8 13 10 -2 10 -9 0 -20 5 -24 11 -4 7 0 9
13 5 12 -4 25 -1 33 9 13 16 34 10 24 -7 -5 -7 -2 -8 5 -4 8 5 11 2 9 -9 -2
-10 3 -20 11 -23 8 -3 11 0 7 6 -3 6 -2 13 4 17 15 10 12 23 -7 28 -14 4 -12
5 5 6 20 1 27 -9 23 -31 0 -5 3 -8 9 -8 5 0 10 7 10 15 0 8 5 15 10 15 6 0 10
-5 10 -11 0 -8 5 -8 15 1 21 18 9 31 -19 20 -24 -9 -36 -5 -36 13 0 5 7 7 15
3 8 -3 15 -1 15 4 0 6 -4 10 -10 10 -5 0 -10 5 -10 12 0 6 9 3 20 -7 18 -16
20 -16 20 -2 0 10 8 17 18 17 14 0 15 -2 2 -10 -11 -7 -12 -12 -3 -21 9 -9 13
-6 19 15 5 21 9 24 20 15 11 -9 14 -8 15 7 1 11 1 22 0 26 -1 8 20 5 37 -6 7
-4 20 -2 30 5 16 13 16 12 1 -6 -9 -11 -20 -27 -24 -35 -7 -12 -6 -13 7 -2 21
17 83 5 68 -13 -8 -9 -8 -15 0 -20 6 -4 9 -1 8 7 -2 8 5 12 19 10 16 -2 21 2
19 15 -2 10 2 22 8 26 7 6 4 7 -6 3 -10 -3 -18 -1 -18 4 0 6 5 10 11 10 5 0 8
3 6 8 -3 4 8 7 24 8 26 1 27 -1 17 -20 -6 -12 -16 -24 -22 -28 -8 -5 -7 -8 2
-8 7 0 15 6 18 14 4 11 12 13 30 6 13 -5 24 -8 24 -5 0 2 14 0 30 -5 19 -5 28
-5 25 1 -4 5 -15 9 -26 9 -10 0 -19 6 -19 13 0 8 -4 7 -10 -3 -7 -11 -10 -11
-10 -2 0 7 -5 10 -11 6 -7 -4 -9 0 -5 14 4 11 2 23 -4 27 -5 3 -10 12 -10 18
0 7 8 1 18 -13 21 -32 56 -29 47 3 -5 20 -5 20 5 4 9 -14 15 -16 26 -6 7 6 11
16 7 22 -4 6 -1 7 6 2 9 -5 10 -10 2 -18 -15 -15 -14 -27 3 -27 8 0 22 10 30
22 9 12 16 18 16 12 0 -5 -5 -15 -12 -22 -8 -8 -8 -15 0 -25 7 -8 10 -16 7
-19 -3 -2 2 -5 10 -5 8 0 12 4 9 8 -2 4 0 10 6 14 14 9 13 42 -2 48 -8 3 -6 6
5 6 10 1 17 -7 18 -19 1 -11 2 -29 3 -40 0 -10 7 -25 15 -32 10 -10 12 -10 7
0 -4 7 -1 15 9 18 9 4 14 12 11 19 -7 20 32 5 51 -19 9 -12 13 -14 10 -5 -3 9
-1 22 4 30 6 10 9 10 9 2 0 -7 5 -13 11 -13 5 0 7 5 3 12 -5 7 -2 9 9 5 9 -3
18 -1 21 6 2 7 5 4 5 -6 1 -10 5 -16 10 -12 5 3 12 -3 14 -12 3 -10 4 -6 4 9
-1 15 -5 24 -9 22 -4 -3 -8 0 -8 5 0 6 2 11 4 11 2 0 11 2 19 5 10 5 13 -2 12
-25 -1 -17 3 -34 8 -37 6 -3 7 -1 3 5 -6 11 13 17 37 13 5 -1 6 3 3 8 -4 5 -2
12 3 15 5 3 14 -8 20 -24 5 -17 15 -30 20 -30 16 0 13 11 -6 32 -9 10 -13 21
-9 25 4 4 11 1 16 -7 9 -14 14 -7 11 13 -1 5 3 6 8 2 6 -3 8 -13 5 -23 -4 -12
1 -10 15 7 12 12 19 26 17 30 -2 3 18 7 44 9 27 2 51 -2 55 -8 4 -6 22 -8 46
-4 28 5 39 3 39 -6 0 -7 -8 -10 -19 -7 -10 2 -25 1 -32 -4 -8 -5 -20 -2 -31 8
-24 22 -23 12 2 -17 11 -13 20 -18 20 -12 0 7 5 12 10 12 6 0 10 -7 10 -15 0
-17 26 -20 35 -5 5 8 11 8 20 0 10 -8 15 -6 20 10 3 11 11 18 16 14 5 -3 7
-10 4 -15 -10 -15 2 -10 16 8 12 14 12 16 0 8 -10 -6 -12 -4 -7 4 6 9 13 8 29
-6 11 -10 17 -13 14 -6 -4 6 -2 15 4 19 7 4 9 3 6 -3 -4 -6 3 -13 15 -16 12
-4 25 -1 29 5 4 6 9 3 13 -10 7 -22 32 -36 47 -26 5 3 7 10 4 15 -8 11 -3 11
29 -1 29 -11 31 -8 15 21 -5 11 -14 17 -20 14 -5 -4 -9 1 -9 11 0 14 2 14 16
3 8 -7 24 -29 35 -48 11 -20 18 -28 15 -19 -3 9 2 19 10 22 11 4 12 10 5 25
-9 16 -8 19 7 16 9 -2 29 -4 45 -4 17 -1 27 -6 27 -16 0 -8 6 -14 13 -12 6 1
11 -4 10 -10 -3 -15 13 -17 21 -4 3 5 15 7 25 4 16 -4 17 -8 8 -18 -7 -7 -16
-10 -22 -6 -5 4 -21 2 -35 -5 -25 -13 -25 -14 -2 -14 12 0 22 5 22 11 0 5 5 7
11 4 6 -4 8 -13 5 -21 -3 -8 1 -14 9 -14 8 0 15 9 15 20 0 11 3 20 6 20 12 0
33 -28 26 -35 -4 -5 -2 -5 5 -2 8 5 5 19 -10 47 -19 35 -26 40 -47 35 -24 -5
-24 -5 -6 10 14 11 23 12 33 4 12 -10 17 -6 15 13 -1 3 6 12 15 20 15 11 16
11 10 -6 -5 -12 -3 -23 5 -28 10 -6 9 -8 -4 -8 -24 0 -28 -12 -11 -35 15 -20
15 -20 8 3 -5 18 -2 22 13 22 20 0 23 -14 9 -38 -9 -13 19 -30 30 -18 4 3 -2
6 -13 6 -18 1 -18 1 -1 11 10 6 14 16 10 22 -3 7 3 4 15 -7 12 -10 19 -22 17
-27 -3 -4 0 -11 6 -14 7 -5 9 3 6 24 -4 22 -1 31 9 31 7 0 18 9 24 20 7 12 16
17 27 13 9 -4 12 -8 6 -10 -8 -3 -8 -14 -3 -34 5 -16 5 -27 1 -25 -4 3 -13 1
-21 -5 -13 -7 -12 -9 3 -10 9 -1 23 -2 30 -3 6 -1 11 -13 10 -26 -1 -14 1 -19
3 -12 3 6 11 9 16 6 7 -4 8 -2 4 4 -4 7 -1 12 8 12 8 0 17 -5 19 -10 3 -6 4
-5 3 2 -1 7 -13 15 -27 18 -15 4 -19 9 -12 13 6 4 19 4 30 1 17 -5 16 -4 -1
10 -11 9 -25 16 -32 16 -7 0 -16 5 -20 11 -10 17 37 0 62 -22 11 -11 26 -19
32 -19 7 0 12 -5 12 -11 0 -8 4 -9 13 0 8 6 17 7 22 3 4 -4 5 7 2 25 -5 25 -3
31 7 27 8 -3 17 0 21 5 3 6 11 9 16 5 6 -3 2 -12 -10 -20 -13 -9 -19 -25 -19
-44 1 -32 12 -40 22 -15 3 8 1 15 -4 15 -6 0 -10 8 -10 18 0 14 2 15 10 2 5
-8 10 -11 10 -6 0 5 10 1 22 -10 12 -10 18 -14 15 -8 -4 7 0 14 8 17 9 4 12 1
8 -9 -6 -16 22 -20 32 -4 3 6 -1 7 -10 4 -9 -4 -15 -2 -13 4 2 6 -6 18 -17 26
-11 8 -15 16 -8 16 6 0 15 -4 18 -10 3 -5 14 -10 23 -10 12 0 8 6 -11 19 -18
11 -25 21 -18 25 6 4 16 4 21 1 6 -3 10 -4 10 -1 0 3 -12 12 -27 21 -23 13
-24 15 -5 10 13 -4 22 -2 22 5 0 6 5 8 10 5 6 -3 10 -1 10 5 0 7 6 5 15 -4 8
-8 15 -19 15 -25 0 -6 5 -11 10 -11 6 0 10 3 10 8 0 4 11 20 25 36 13 16 22
34 18 40 -4 8 -3 8 6 0 8 -8 9 -18 2 -37z m-507 12 c-6 -11 -24 -2 -24 11 0 5
7 7 15 4 8 -4 12 -10 9 -15z m460 8 c-3 -8 -12 -14 -21 -14 -13 0 -13 2 3 14
10 7 19 13 21 13 1 0 0 -6 -3 -13z m-817 -19 c-3 -8 -6 -5 -6 6 -1 11 2 17 5
13 3 -3 4 -12 1 -19z m186 8 c3 -8 0 -16 -6 -19 -7 -3 -13 3 -13 14 0 22 12
25 19 5z m343 -8 c0 -10 -1 -18 -3 -18 -1 0 -7 8 -12 18 -7 13 -6 19 2 19 7 0
13 -9 13 -19z m140 7 c4 -8 10 -12 15 -9 5 3 9 3 9 0 0 -15 -19 -12 -33 5 -9
10 -12 19 -7 19 6 0 13 -7 16 -15z m257 -2 c-5 -12 -3 -14 8 -8 14 9 -18 -34
-36 -47 -14 -11 -25 -10 -25 2 0 6 5 10 11 10 14 0 40 26 33 33 -4 3 -3 10 1
16 10 17 15 13 8 -6z m54 -15 c-3 -8 -6 -5 -6 6 -1 11 2 17 5 13 3 -3 4 -12 1
-19z m-1622 -8 c-3 -5 -1 -10 6 -10 15 0 4 -13 -14 -16 -7 -1 -19 -4 -27 -6
-8 -3 -11 -3 -6 0 4 2 2 9 -5 14 -10 6 -7 7 10 3 15 -5 21 -3 17 3 -3 6 0 13
6 15 19 8 20 8 13 -3z m138 -5 c-3 -9 -8 -14 -10 -11 -3 3 -2 9 2 15 9 16 15
13 8 -4z m742 -6 c-4 -5 -13 -9 -22 -9 -13 0 -13 3 -3 15 13 15 35 11 25 -6z
m-961 -6 c-7 -2 -10 -13 -7 -23 3 -11 1 -20 -4 -20 -11 0 -11 30 1 48 4 7 11
10 15 6 3 -4 1 -9 -5 -11z m1733 -15 c-3 -7 -5 -2 -5 12 0 14 2 19 5 13 2 -7
2 -19 0 -25z m-1187 1 c0 -11 -4 -18 -10 -14 -5 3 -7 12 -3 20 7 21 13 19 13
-6z m686 12 c-4 -5 0 -12 6 -14 8 -3 6 -6 -4 -6 -18 -1 -24 10 -11 22 9 10 15
8 9 -2z m749 0 c3 -5 2 -12 -3 -15 -5 -3 -9 1 -9 9 0 17 3 19 12 6z m-2275
-11 c-8 -5 -19 -10 -25 -10 -5 0 -3 5 5 10 8 5 20 10 25 10 6 0 3 -5 -5 -10z
m1430 0 c0 -5 -4 -10 -10 -10 -5 0 -10 5 -10 10 0 6 5 10 10 10 6 0 10 -4 10
-10z m196 -24 c1 -15 -3 -29 -9 -33 -6 -3 -7 -1 -3 5 4 7 2 12 -3 12 -6 0 -11
5 -11 11 0 5 4 8 8 5 5 -3 9 1 9 8 0 8 -8 11 -20 8 -13 -3 -18 -1 -14 6 13 20
42 6 43 -22z m555 17 c13 -16 12 -17 -3 -4 -17 13 -22 21 -14 21 2 0 10 -8 17
-17z m-2226 -20 c-6 -27 -6 -27 10 -8 9 11 15 14 13 6 -5 -17 -35 -38 -43 -30
-7 7 12 59 21 59 3 0 3 -12 -1 -27z m1060 -1 c-8 -8 -25 10 -19 20 4 6 9 5 15
-3 4 -7 6 -15 4 -17z m995 19 c0 -12 -20 -25 -27 -18 -7 7 6 27 18 27 5 0 9
-4 9 -9z m67 3 c-3 -3 -12 -4 -19 -1 -8 3 -5 6 6 6 11 1 17 -2 13 -5z m-2452
-23 c3 -5 2 -12 -3 -15 -5 -3 -9 1 -9 9 0 17 3 19 12 6z m102 -13 c-3 -8 -6
-5 -6 6 -1 11 2 17 5 13 3 -3 4 -12 1 -19z m68 3 c-3 -6 -11 -11 -16 -11 -5 0
-4 6 3 14 14 16 24 13 13 -3z m2512 -17 c-3 -3 -12 -4 -19 -1 -8 3 -5 6 6 6
11 1 17 -2 13 -5z m-2619 -35 c-3 -8 -7 -3 -11 10 -4 17 -3 21 5 13 5 -5 8
-16 6 -23z m32 21 c0 -5 -4 -10 -10 -10 -5 0 -10 5 -10 10 0 6 5 10 10 10 6 0
10 -4 10 -10z m2555 0 c3 -5 -7 -8 -25 -7 -16 1 -30 5 -30 10 0 11 48 9 55 -3z
m22 -22 c-3 -8 -6 -5 -6 6 -1 11 2 17 5 13 3 -3 4 -12 1 -19z m-2677 -19 c0
-5 -12 -8 -27 -8 -18 1 -21 3 -10 6 9 2 15 9 12 14 -3 5 1 6 9 3 9 -3 16 -10
16 -15z m-117 -36 c-11 -16 -19 -21 -21 -13 -3 7 3 17 12 22 9 5 13 14 10 20
-4 7 -2 8 4 4 9 -5 7 -14 -5 -33z m77 2 c19 -23 8 -25 -14 -4 -11 11 -15 19
-9 19 6 0 16 -7 23 -15z m2905 -25 c3 -5 1 -10 -4 -10 -6 0 -11 5 -11 10 0 6
2 10 4 10 3 0 8 -4 11 -10z m65 -10 c-11 -7 -11 -10 -2 -10 7 0 10 -5 6 -11
-4 -8 -9 -7 -15 2 -9 15 -3 29 14 29 7 0 6 -4 -3 -10z m-40 -25 c0 -13 18 -19
57 -18 6 0 9 -6 6 -13 -3 -9 -10 -11 -21 -5 -10 5 -25 7 -34 6 -10 -2 -18 2
-18 8 0 8 -4 7 -12 -1 -14 -14 -28 -16 -28 -3 0 12 29 41 41 41 5 0 9 -7 9
-15z m144 -21 c3 -8 2 -12 -4 -9 -6 3 -10 10 -10 16 0 14 7 11 14 -7z m-3275
-8 c10 -12 8 -13 -8 -9 -12 3 -18 9 -15 14 7 12 10 11 23 -5z m3241 -12 c0 -8
-5 -12 -10 -9 -6 4 -8 11 -5 16 9 14 15 11 15 -7z m47 -21 c-9 -2 -15 -9 -12
-14 3 -5 -1 -6 -9 -3 -22 8 -10 24 17 23 17 -1 18 -2 4 -6z m83 -37 c-7 -7
-14 -6 -21 1 -9 9 -7 12 9 10 14 -1 18 -5 12 -11z m-3545 -46 c3 -5 1 -10 -4
-10 -6 0 -11 5 -11 10 0 6 2 10 4 10 3 0 8 -4 11 -10z m3809 -82 c-3 -4 -12
-8 -20 -8 -8 0 -14 4 -14 8 0 4 9 8 19 8 11 0 17 -4 15 -8z m193 6 c-3 -3 -12
-4 -19 -1 -8 3 -5 6 6 6 11 1 17 -2 13 -5z m-242 -24 c3 -5 -1 -10 -10 -10 -9
0 -13 5 -10 10 3 6 8 10 10 10 2 0 7 -4 10 -10z m120 -18 c-3 -3 -11 0 -18 7
-9 10 -8 11 6 5 10 -3 15 -9 12 -12z m91 -33 c-32 -9 -56 -1 -36 11 6 4 23 5
38 2 l27 -5 -29 -8z m143 -16 c2 -2 -3 -3 -11 -3 -9 0 -19 7 -22 16 -6 15 -4
15 11 3 10 -7 20 -15 22 -16z m-45 8 c4 -5 -1 -8 -9 -7 -21 3 -31 16 -12 16 9
0 18 -4 21 -9z m-4094 -21 c0 -5 -8 -10 -17 -10 -15 0 -16 2 -3 10 19 12 20
12 20 0z m4197 -15 c0 -8 -4 -15 -9 -15 -10 0 -11 14 -1 23 9 10 10 9 10 -8z
m-106 -27 c-4 -13 -6 -30 -4 -38 3 -12 2 -12 -6 1 -11 17 -4 59 10 59 5 0 5
-10 0 -22z m-4176 2 c3 -5 1 -10 -4 -10 -6 0 -11 5 -11 10 0 6 2 10 4 10 3 0
8 -4 11 -10z m4358 -10 c-3 -11 -7 -20 -9 -20 -2 0 -4 9 -4 20 0 11 4 20 9 20
5 0 7 -9 4 -20z m-131 -18 c-4 -21 -5 -21 -19 -5 -8 10 -12 12 -8 6 3 -7 1
-13 -4 -13 -6 0 -11 8 -11 18 0 11 8 17 23 17 19 0 22 -4 19 -23z m106 -17
c-3 -3 -9 2 -12 12 -6 14 -5 15 5 6 7 -7 10 -15 7 -18z m-11274 -15 c-22 -9
-29 -6 -20 9 4 6 14 7 23 4 15 -6 14 -7 -3 -13z m-59 0 c-3 -5 -12 -10 -18
-10 -7 0 -6 4 3 10 19 12 23 12 15 0z m7025 -7 c0 -3 -7 -3 -15 1 -8 3 -15 1
-15 -5 0 -6 -5 -7 -11 -3 -8 4 -7 9 2 14 12 8 39 3 39 -7z m4332 -31 c-4 -13
-7 -12 -12 4 -4 10 -5 23 -2 28 7 13 21 -16 14 -32z m114 23 c-3 -8 2 -19 12
-24 16 -10 16 -10 0 -11 -9 0 -18 6 -21 13 -4 13 2 37 10 37 3 0 3 -7 -1 -15z
m-11370 -10 c9 -8 11 -15 6 -15 -5 0 -15 7 -22 15 -7 8 -9 15 -6 15 4 0 14 -7
22 -15z m11301 9 c-3 -3 -12 -4 -19 -1 -8 3 -5 6 6 6 11 1 17 -2 13 -5z
m-4412 -24 c3 -5 1 -10 -4 -10 -6 0 -11 5 -11 10 0 6 2 10 4 10 3 0 8 -4 11
-10z m4395 0 c0 -5 -5 -10 -11 -10 -5 0 -7 5 -4 10 3 6 8 10 11 10 2 0 4 -4 4
-10z m42 -12 c-7 -7 -12 -8 -12 -2 0 14 12 26 19 19 2 -3 -1 -11 -7 -17z
m-4479 -1 c3 -8 0 -14 -7 -14 -7 0 -13 6 -13 14 0 7 4 13 8 13 4 0 9 -6 12
-13z m67 -11 c0 -11 -19 -15 -25 -6 -3 5 1 10 9 10 9 0 16 -2 16 -4z m-7327
-41 c-7 -21 -12 -19 -10 4 0 11 5 18 9 15 4 -3 5 -11 1 -19z m90 18 c-7 -2
-19 -2 -25 0 -7 3 -2 5 12 5 14 0 19 -2 13 -5z m512 -11 c-3 -3 -11 0 -18 7
-9 10 -8 11 6 5 10 -3 15 -9 12 -12z m11400 -10 c-3 -3 -11 0 -18 7 -9 10 -8
11 6 5 10 -3 15 -9 12 -12z m-11420 -2 c3 -5 1 -10 -4 -10 -6 0 -11 5 -11 10
0 6 2 10 4 10 3 0 8 -4 11 -10z m11351 -13 c1 -11 -2 -14 -9 -10 -7 4 -20 6
-29 5 -18 -3 -24 9 -12 21 12 12 47 0 50 -16z m109 13 c3 -5 1 -10 -4 -10 -6
0 -11 5 -11 10 0 6 2 10 4 10 3 0 8 -4 11 -10z m-12091 -29 c-5 -5 -18 -5 -29
0 -18 9 -18 9 3 5 12 -2 22 1 22 7 0 6 3 7 7 4 4 -4 2 -11 -3 -16z m12076 3
c0 -2 -9 -4 -21 -4 -11 0 -18 4 -14 10 5 8 35 3 35 -6z m-12034 -3 c-3 -5 1
-11 9 -15 20 -7 19 -28 -2 -24 -18 3 -29 48 -12 48 5 0 8 -4 5 -9z m11980 -15
c-1 -12 -7 -20 -14 -18 -7 1 -12 -3 -12 -9 0 -6 -5 -7 -12 -2 -7 4 -16 8 -20
8 -3 0 -10 3 -14 7 -13 13 24 20 45 8 22 -11 28 -1 11 16 -7 7 -6 11 3 11 8 0
13 -9 13 -21z m-11316 -4 c0 -5 -7 -9 -15 -9 -8 0 -12 4 -9 9 3 4 9 8 15 8 5
0 9 -4 9 -8z m6585 -8 c-9 -9 -19 -13 -23 -10 -3 4 0 11 8 16 24 15 33 11 15
-6z m-7275 -3 c0 -17 -18 -21 -24 -6 -3 9 0 15 9 15 8 0 15 -4 15 -9z m7275
-39 c-3 -3 -11 0 -18 7 -9 10 -8 11 6 5 10 -3 15 -9 12 -12z m-6563 -28 c-3
-18 -7 -22 -13 -13 -6 10 -10 9 -15 -5 -4 -11 -2 -21 7 -27 11 -7 10 -9 -4 -9
-26 0 -20 59 8 71 11 4 21 8 21 8 1 1 -1 -11 -4 -25z m11138 0 c0 -8 -5 -12
-10 -9 -6 4 -8 11 -5 16 9 14 15 11 15 -7z m-12123 -66 c-3 -8 -6 -5 -6 6 -1
11 2 17 5 13 3 -3 4 -12 1 -19z m7483 -3 c14 -19 14 -19 -2 -6 -10 7 -18 18
-18 24 0 6 1 8 3 6 1 -2 9 -13 17 -24z m-6476 -14 c3 -4 3 -11 0 -14 -8 -8
-34 3 -34 14 0 11 27 12 34 0z m6462 -38 c-3 -4 -1 -12 5 -19 7 -9 6 -19 -3
-33 -15 -24 -24 -26 -34 -9 -4 6 -3 8 3 5 16 -10 39 21 25 35 -6 6 -8 17 -5
24 3 8 0 14 -7 14 -6 0 -8 5 -4 11 5 8 10 6 16 -5 6 -10 7 -20 4 -23z m-6399
4 c3 -6 1 -7 -5 -3 -7 4 -12 3 -12 -3 0 -6 -6 -8 -14 -5 -11 4 -13 0 -9 -15 3
-12 1 -21 -6 -21 -6 0 -10 6 -8 13 1 6 -4 11 -11 9 -9 -1 -8 4 3 22 16 24 48
26 62 3z m-1226 -32 c5 4 9 -2 9 -11 0 -14 -3 -15 -11 -7 -9 9 -16 6 -30 -10
-16 -19 -18 -20 -19 -4 0 10 7 20 15 23 8 4 16 16 16 28 2 20 2 20 6 -2 2 -12
9 -20 14 -17z m73 19 c8 -21 8 -24 -3 -24 -5 0 -11 9 -14 20 -6 24 8 27 17 4z
m-35 -147 c-2 -1 -13 -9 -24 -17 -19 -14 -19 -14 -6 3 7 9 18 17 24 17 6 0 8
-1 6 -3z m-168 -70 c-10 -9 -11 -8 -5 6 3 10 9 15 12 12 3 -3 0 -11 -7 -18z
m-23 -12 c-3 -3 -9 2 -12 12 -6 14 -5 15 5 6 7 -7 10 -15 7 -18z m37 -65 c3
-5 1 -10 -4 -10 -6 0 -11 5 -11 10 0 6 2 10 4 10 3 0 8 -4 11 -10z m-195 -14
c0 -2 -7 -7 -16 -10 -8 -3 -12 -2 -9 4 6 10 25 14 25 6z m70 -16 c0 -13 -11
-13 -30 0 -12 8 -11 10 8 10 12 0 22 -4 22 -10z m7778 -95 c-3 -3 -9 2 -12 12
-6 14 -5 15 5 6 7 -7 10 -15 7 -18z m-7743 -45 c3 -5 1 -10 -4 -10 -6 0 -11 5
-11 10 0 6 2 10 4 10 3 0 8 -4 11 -10z m7755 1 c0 -6 -4 -13 -10 -16 -5 -3
-10 1 -10 9 0 9 5 16 10 16 6 0 10 -4 10 -9z m-7870 -32 c0 -6 -4 -7 -10 -4
-5 3 -10 11 -10 16 0 6 5 7 10 4 6 -3 10 -11 10 -16z m7865 -29 c-3 -5 -10
-10 -16 -10 -5 0 -9 5 -9 10 0 6 7 10 16 10 8 0 12 -4 9 -10z m-7844 -30 c6 0
7 5 4 10 -3 6 -1 10 6 10 6 0 9 -8 6 -19 -3 -14 0 -17 15 -13 19 5 19 3 -2
-21 -18 -21 -26 -24 -37 -16 -15 13 -18 23 -3 14 15 -9 12 12 -5 28 -8 8 -11
18 -7 21 4 4 8 2 10 -3 2 -6 8 -11 13 -11z m7809 -30 c0 -5 -2 -10 -4 -10 -3
0 -8 5 -11 10 -3 6 -1 10 4 10 6 0 11 -4 11 -10z m-7860 -40 c0 -5 -2 -10 -4
-10 -3 0 -8 5 -11 10 -3 6 -1 10 4 10 6 0 11 -4 11 -10z m24 -21 c-21 -23 -25
-21 -18 8 4 14 11 20 20 16 13 -5 12 -8 -2 -24z m-106 -237 c-6 -7 -14 -9 -17
-5 -4 4 -10 11 -15 16 -5 4 2 6 17 5 20 -2 24 -5 15 -16z m7927 -32 c3 -5 -1
-10 -10 -10 -9 0 -13 5 -10 10 3 6 8 10 10 10 2 0 7 -4 10 -10z m-6195 -120
c0 -5 -5 -10 -11 -10 -5 0 -7 5 -4 10 3 6 8 10 11 10 2 0 4 -4 4 -10z m85
-250 c3 -5 1 -10 -4 -10 -6 0 -11 5 -11 10 0 6 2 10 4 10 3 0 8 -4 11 -10z m5
-44 c0 -2 -7 -9 -15 -16 -13 -11 -14 -10 -9 4 5 14 24 23 24 12z m-19 -114
c-7 -2 -18 1 -23 6 -8 8 -4 9 13 5 13 -4 18 -8 10 -11z m53 -40 c2 -4 -5 -9
-17 -9 -17 -2 -19 0 -7 7 18 12 18 12 24 2z m-1479 -302 c3 -5 1 -10 -4 -10
-6 0 -11 5 -11 10 0 6 2 10 4 10 3 0 8 -4 11 -10z m6496 -31 c20 -23 63 -108
73 -145 6 -19 -1 -23 -58 -38 -36 -10 -69 -15 -74 -12 -5 3 -17 -3 -26 -12
-13 -16 -24 -17 -68 -10 -29 5 -66 10 -83 12 -41 5 -41 4 -20 20 14 10 17 17
9 27 -14 17 -10 69 7 108 13 30 61 65 73 54 3 -3 6 -2 6 3 0 5 32 11 71 13 62
2 73 0 90 -20z m-4681 -144 c0 -8 -4 -15 -10 -15 -5 0 -10 7 -10 15 0 8 5 15
10 15 6 0 10 -7 10 -15z m4845 -70 c0 -5 -10 -11 -22 -13 -16 -2 -23 2 -23 13
0 11 7 15 23 13 12 -2 22 -7 22 -13z m-88 -21 c-3 -3 -12 -4 -19 -1 -8 3 -5 6
6 6 11 1 17 -2 13 -5z m-4980 -37 c0 -8 -6 -14 -14 -14 -17 0 -17 14 0 20 6 3
12 6 13 6 0 1 1 -5 1 -12z m5073 -36 c0 -23 -7 -32 -36 -46 -40 -19 -81 -13
-53 8 9 7 19 22 23 34 4 14 17 23 34 26 15 2 28 5 30 6 1 0 2 -12 2 -28z
m-4990 -5 c0 -3 -4 -8 -10 -11 -5 -3 -10 -1 -10 4 0 6 5 11 10 11 6 0 10 -2
10 -4z m166 -73 c-10 -10 -19 5 -10 18 6 11 8 11 12 0 2 -7 1 -15 -2 -18z m61
-4 c1 -14 -3 -19 -13 -15 -9 4 -19 -3 -26 -19 -10 -23 -12 -23 -24 -7 -10 13
-13 14 -14 3 0 -12 -3 -12 -12 -3 -16 16 0 31 36 34 15 1 32 8 38 15 14 17 13
17 15 -8z m3803 17 c0 -16 -14 -35 -21 -30 -5 3 -6 10 -3 16 5 8 1 9 -10 5
-10 -4 -15 -3 -11 3 6 10 45 15 45 6z m610 -16 c0 -5 -5 -10 -11 -10 -5 0 -7
5 -4 10 3 6 8 10 11 10 2 0 4 -4 4 -10z m415 0 c-3 -5 -12 -10 -18 -10 -7 0
-6 4 3 10 19 12 23 12 15 0z m92 -12 c-3 -8 -6 -5 -6 6 -1 11 2 17 5 13 3 -3
4 -12 1 -19z m-417 -33 c-7 -9 -15 -13 -17 -11 -7 7 7 26 19 26 6 0 6 -6 -2
-15z m-76 -7 c-4 -6 -9 -29 -10 -50 -1 -24 -13 -53 -29 -74 -15 -19 -24 -41
-22 -49 3 -7 0 -16 -8 -19 -7 -2 -16 2 -19 10 -3 9 -1 12 4 9 6 -3 10 3 10 14
0 12 -5 21 -11 21 -5 0 -7 5 -4 10 3 6 2 10 -4 10 -5 0 -8 9 -6 20 2 11 1 19
-3 19 -18 -3 -35 2 -29 7 3 4 2 15 -3 24 -13 23 3 35 60 48 64 14 83 14 74 0z
m-617 -23 c0 -8 -4 -12 -9 -9 -5 3 -6 10 -3 15 9 13 12 11 12 -6z m785 -60 c3
-14 1 -25 -3 -25 -5 0 -9 6 -9 13 0 9 -3 8 -9 -2 -11 -17 -23 1 -15 23 9 24
31 19 36 -9z m657 -97 l20 -33 -22 -12 c-20 -10 -24 -8 -40 24 -15 29 -16 37
-5 44 20 13 25 11 47 -23z m-2245 -433 c-4 -8 -10 -15 -15 -15 -4 0 -6 7 -3
15 4 8 10 15 15 15 4 0 6 -7 3 -15z m266 -100 c10 -12 8 -16 -15 -25 -46 -17
-53 -13 -35 21 13 23 33 25 50 4z m937 -27 c-3 -8 -6 -5 -6 6 -1 11 2 17 5 13
3 -3 4 -12 1 -19z m-1047 -98 c0 -5 -5 -10 -11 -10 -5 0 -7 5 -4 10 3 6 8 10
11 10 2 0 4 -4 4 -10z m1467 -32 c-3 -8 -6 -5 -6 6 -1 11 2 17 5 13 3 -3 4
-12 1 -19z m-209 -12 c3 -13 -1 -17 -14 -14 -11 2 -20 11 -22 22 -3 13 1 17
14 14 11 -2 20 -11 22 -22z m232 -94 c0 -20 -4 -31 -10 -27 -5 3 -10 25 -10
48 0 31 3 38 10 27 5 -8 10 -30 10 -48z m81 -177 c51 -14 74 -29 142 -91 45
-42 93 -97 107 -122 45 -81 80 -133 122 -178 29 -32 38 -47 31 -56 -6 -7 -18
-36 -27 -64 -26 -81 -35 -88 -90 -80 -33 5 -57 16 -75 35 -15 15 -33 25 -40
23 -8 -3 -11 0 -8 6 4 5 0 15 -8 22 -8 7 -12 16 -10 21 8 12 -34 31 -60 27
-16 -3 -22 -1 -18 8 3 8 -20 20 -69 35 -40 12 -86 32 -103 43 -16 12 -33 21
-37 21 -3 0 -10 3 -14 8 -11 10 -1 9 121 -18 60 -13 112 -22 114 -19 3 2 -5
13 -17 24 -12 12 -22 26 -22 32 0 7 -5 6 -15 -2 -13 -10 -15 -9 -15 10 0 19
-2 21 -15 10 -13 -11 -20 -9 -39 9 -13 12 -34 21 -47 20 -48 -4 -65 1 -66 20
-3 37 102 36 182 -2 40 -19 85 -29 85 -19 0 10 -161 92 -182 92 -53 0 -109 50
-71 64 24 10 113 7 134 -4 15 -9 19 -7 19 7 0 12 3 14 8 6 19 -31 112 -78 112
-57 0 3 -19 25 -41 49 -28 30 -60 51 -98 65 -31 11 -63 24 -71 29 -10 5 -19 3
-27 -8 -9 -12 -16 -13 -28 -6 -32 19 -18 38 38 50 16 3 27 12 28 23 1 15 2 15
6 1 2 -10 27 -23 64 -34z m-305 -154 c-4 -6 -16 -11 -27 -11 -21 0 -27 35 -6
43 16 6 41 -18 33 -32z m3614 -1030 c0 -20 -25 -47 -33 -34 -7 12 11 53 23 53
5 0 10 -8 10 -19z m-83 -58 c-4 -3 1 -12 11 -19 13 -10 14 -15 5 -24 -8 -9
-14 -7 -23 9 -10 20 -7 41 7 41 4 0 3 -3 0 -7z m-5591 -89 c-7 -19 6 -25 22
-11 13 9 14 9 8 0 -4 -7 -2 -13 3 -13 6 0 11 4 11 8 0 5 6 9 13 9 11 0 11 -5
3 -23 -6 -12 -14 -20 -17 -18 -4 2 -5 -4 -3 -13 7 -28 -11 -49 -28 -35 -11 9
-19 8 -36 -3 -13 -10 -23 -12 -27 -5 -3 5 -13 10 -21 10 -9 0 -12 -5 -8 -11 5
-8 1 -8 -13 0 -11 6 -23 7 -27 4 -3 -3 -6 -1 -6 5 0 12 9 15 43 15 13 0 15 3
6 13 -6 8 -15 12 -19 9 -5 -3 -11 -1 -14 3 -3 5 11 16 30 25 19 10 32 22 29
27 -4 6 1 7 11 3 10 -4 15 -2 11 3 -3 5 3 10 14 10 11 0 17 -5 15 -12z m120
-40 c18 -14 18 -14 -6 -3 -31 14 -36 19 -24 19 6 0 19 -7 30 -16z m-31 -14 c3
-5 1 -10 -4 -10 -6 0 -11 5 -11 10 0 6 2 10 4 10 3 0 8 -4 11 -10z m-2772
-247 c-46 -2 -120 -2 -165 0 -46 1 -9 3 82 3 91 0 128 -2 83 -3z m147 -38 c0
-15 -18 -30 -27 -22 -2 3 -2 15 2 26 7 23 25 19 25 -4z m-22 -62 c-10 -2 -26
-2 -35 0 -10 3 -2 5 17 5 19 0 27 -2 18 -5z m305 -32 l57 -1 0 -50 c0 -27 -4
-50 -9 -50 -14 0 -19 23 -11 45 7 19 -4 45 -20 45 -4 0 -10 -11 -12 -25 -3
-14 -1 -25 3 -25 14 0 10 -17 -7 -34 -14 -15 -13 -17 12 -27 24 -9 30 -7 45
13 10 12 17 25 17 28 -1 3 2 18 7 34 5 20 4 31 -6 37 -9 5 26 9 89 9 111 0
126 -8 104 -53 -10 -20 -11 -19 -11 11 -1 31 -3 33 -33 30 -31 -3 -33 -6 -39
-48 l-6 -45 -3 45 c-2 35 -4 38 -7 15 -8 -68 -11 -72 -43 -67 -22 3 -30 0 -30
-11 0 -8 -3 -23 -7 -33 -4 -12 -3 -15 5 -10 7 4 12 2 12 -6 0 -15 -97 -23
-115 -11 -21 15 -59 77 -49 80 28 10 33 21 27 56 -7 45 -23 49 -23 7 0 -28 -2
-30 -20 -20 -11 6 -20 17 -20 26 0 8 -8 18 -17 21 -15 6 -14 7 3 13 10 4 26 6
34 4 8 -1 41 -3 73 -3z m-207 -12 c10 -8 12 -23 8 -49 l-6 -38 56 -7 c51 -7
62 -13 101 -54 l45 -46 0 -127 c0 -74 -4 -129 -10 -133 -5 -3 -10 -3 -10 2 0
12 -63 47 -79 44 -7 -1 -10 2 -6 8 5 10 -8 15 -19 9 -2 -2 -12 4 -22 12 -22
18 -62 38 -84 42 -8 2 -17 5 -20 8 -7 8 -111 57 -139 65 -12 4 -39 18 -59 31
-19 14 -46 27 -59 30 -13 4 -23 10 -23 15 0 5 -7 9 -17 9 -9 0 -13 3 -9 7 3 4
-14 19 -39 35 -25 15 -45 33 -45 39 0 5 -5 7 -10 4 -6 -4 -28 12 -50 35 -39
41 -45 51 -35 62 3 2 120 6 261 7 182 1 260 -2 270 -10z m362 -141 c-4 -29
-38 -38 -38 -10 0 19 11 29 33 31 5 1 7 -9 5 -21z m2016 -276 c14 18 64 29 73
15 4 -6 1 -7 -7 -2 -10 6 -12 3 -8 -13 4 -14 1 -22 -10 -24 -15 -3 -15 -5 -1
-18 9 -8 14 -23 11 -34 -4 -14 -1 -17 7 -11 18 10 -2 -27 -23 -44 -12 -10 -14
-9 -9 8 3 12 1 21 -6 21 -6 0 -11 -5 -11 -11 0 -7 -11 -9 -27 -7 -46 8 -55 12
-79 36 -14 14 -29 20 -37 16 -9 -6 -9 -5 0 7 10 12 6 21 -17 46 -27 28 -28 33
-15 47 14 13 23 11 82 -16 57 -27 67 -29 77 -16z m113 -65 c-1 -5 -6 -8 -10
-8 -4 1 -13 1 -21 1 -9 0 -12 7 -9 19 4 17 8 18 24 8 11 -7 18 -16 16 -20z
m-249 -80 c-23 -32 -41 -42 -63 -33 -13 5 -13 9 -3 28 18 31 29 38 60 36 l26
-2 -20 -29z m-3328 -67 c0 -5 -4 -10 -10 -10 -5 0 -10 5 -10 10 0 6 5 10 10
10 6 0 10 -4 10 -10z m3484 -15 c3 -9 0 -15 -9 -15 -16 0 -27 14 -18 24 10 10
21 7 27 -9z m-213 -83 c-9 -33 -50 -38 -67 -8 -14 23 -8 46 12 46 8 0 14 7 14
15 0 12 5 10 24 -6 19 -16 22 -26 17 -47z m631 41 c14 -16 36 -36 49 -45 12
-10 23 -29 25 -43 3 -32 -12 -33 -20 0 l-6 25 -21 -21 c-16 -16 -23 -18 -35
-9 -15 14 -21 5 -27 -40 -3 -18 -11 -26 -30 -28 -17 -2 -27 2 -27 9 0 7 -3 9
-7 6 -3 -4 -17 0 -30 8 -13 9 -28 13 -33 10 -6 -3 -10 5 -10 18 0 24 22 42 48
38 6 -1 12 5 12 13 0 8 16 23 35 35 19 11 35 24 34 28 -5 32 11 30 43 -4z
m-592 -65 c-12 -5 -25 -6 -28 -3 -3 3 0 5 7 5 7 0 10 4 7 9 -4 5 4 7 16 3 l22
-5 -24 -9z m385 -18 c-3 -4 -1 -10 4 -12 4 -1 11 -14 15 -28 6 -23 6 -23 -7
-7 -15 17 -33 24 -23 8 3 -5 -1 -11 -9 -15 -8 -3 -14 0 -12 7 1 7 -6 11 -15
11 -9 -1 -19 5 -22 13 -3 8 -1 11 4 8 5 -3 19 4 30 15 19 19 47 19 35 0z
m-353 -32 c-7 -7 -12 -8 -12 -2 0 14 12 26 19 19 2 -3 -1 -11 -7 -17z"/>
<path d="M11010 7069 c-8 -5 -13 -9 -10 -10 3 0 13 -2 23 -4 9 -2 17 1 17 5 0
15 -15 19 -30 9z"/>
<path d="M9877 7052 c-19 -21 -22 -42 -7 -42 6 0 10 6 10 13 0 18 36 19 51 1
6 -8 17 -14 23 -14 6 0 3 5 -6 10 -10 6 -15 19 -13 30 2 13 -2 20 -11 20 -10
0 -12 -5 -8 -12 6 -10 5 -10 -8 -1 -12 11 -18 10 -31 -5z"/>
<path d="M10390 7041 c8 -6 10 -11 4 -11 -6 0 -11 -6 -11 -14 0 -11 6 -12 23
-6 12 5 24 6 27 3 3 -2 4 3 3 14 -2 12 -13 19 -32 21 -22 2 -26 0 -14 -7z"/>
<path d="M9364 7028 c-4 -6 -3 -8 4 -4 5 3 13 0 15 -6 3 -8 6 -6 6 5 1 19 -14
23 -25 5z"/>
<path d="M10703 7026 c4 -10 1 -13 -9 -9 -9 3 -14 -1 -14 -12 0 -12 5 -15 16
-11 9 3 18 6 20 6 2 0 4 9 4 20 0 11 -5 20 -11 20 -6 0 -9 -7 -6 -14z"/>
<path d="M9096 7013 c-9 -10 -7 -53 3 -53 5 0 7 10 3 22 -3 14 -2 19 6 14 7
-4 12 -3 12 3 0 13 -15 22 -24 14z"/>
<path d="M9420 7010 c0 -5 5 -10 10 -10 6 0 10 5 10 10 0 6 -4 10 -10 10 -5 0
-10 -4 -10 -10z"/>
<path d="M9890 7011 c0 -12 39 -25 47 -17 4 3 -1 6 -10 6 -9 0 -17 5 -17 10 0
6 -4 10 -10 10 -5 0 -10 -4 -10 -9z"/>
<path d="M10120 7006 c0 -2 7 -9 15 -16 13 -11 14 -10 9 4 -5 14 -24 23 -24
12z"/>
<path d="M10221 6993 c7 -12 15 -20 18 -17 3 2 -3 12 -13 22 -17 16 -18 16 -5
-5z"/>
<path d="M10283 6990 c-1 -13 4 -20 15 -19 10 0 12 3 5 5 -7 3 -9 12 -6 20 3
8 1 14 -4 14 -5 0 -9 -9 -10 -20z"/>
<path d="M11276 6990 c-16 -10 -33 -17 -38 -14 -10 6 -11 -10 -1 -19 3 -4 14
0 24 9 17 15 18 14 15 -17 -2 -19 -1 -24 1 -12 4 19 8 21 29 13 17 -7 23 -7
19 0 -3 6 -13 10 -21 10 -18 0 -18 14 1 30 13 11 14 10 9 -3 -4 -12 -1 -14 16
-10 14 4 20 1 18 -7 -2 -7 3 -15 11 -18 10 -3 12 0 8 12 -4 10 -7 21 -7 25 0
4 -6 8 -12 8 -7 0 -20 3 -28 6 -8 3 -28 -3 -44 -13z"/>
<path d="M10027 6987 c-3 -8 -1 -20 4 -28 6 -9 9 -10 9 -2 0 7 7 10 18 7 16
-5 16 -5 -1 6 -9 6 -15 15 -12 21 4 5 2 9 -3 9 -6 0 -12 -6 -15 -13z"/>
<path d="M10087 6994 c-3 -3 1 -13 9 -21 8 -9 18 -12 21 -9 4 4 0 13 -8 21 -8
9 -18 13 -22 9z"/>
<path d="M9435 6979 c-11 -16 -1 -19 13 -3 7 8 8 14 3 14 -5 0 -13 -5 -16 -11z"/>
<path d="M9766 6971 c-3 -5 0 -11 8 -14 8 -3 13 -14 12 -24 -2 -10 -1 -13 1
-6 2 6 12 14 21 16 15 4 15 5 0 6 -10 0 -18 8 -18 16 0 16 -16 20 -24 6z"/>
<path d="M9050 6960 c0 -5 4 -10 8 -10 5 0 9 -7 9 -15 0 -8 -4 -15 -9 -15 -4
0 -8 -8 -8 -17 1 -17 1 -17 11 0 5 9 17 17 24 17 20 0 19 20 -2 36 -22 16 -33
17 -33 4z"/>
<path d="M9323 6955 c0 -8 4 -12 9 -9 5 3 6 10 3 15 -9 13 -12 11 -12 -6z"/>
<path d="M9376 6955 c4 -8 8 -15 10 -15 2 0 4 7 4 15 0 8 -4 15 -10 15 -5 0
-7 -7 -4 -15z"/>
<path d="M9121 6947 c-9 -12 -7 -16 9 -20 21 -5 25 0 11 21 -6 10 -10 10 -20
-1z"/>
<path d="M11038 6948 c9 -9 9 -15 -1 -27 -7 -10 -3 -9 10 3 24 20 22 36 -5 36
-12 0 -13 -3 -4 -12z"/>
<path d="M9297 6943 c-4 -3 -7 -11 -7 -17 0 -6 5 -5 12 2 6 6 9 14 7 17 -3 3
-9 2 -12 -2z"/>
<path d="M10017 6939 c7 -7 15 -10 18 -7 3 3 -2 9 -12 12 -14 6 -15 5 -6 -5z"/>
<path d="M11393 6908 c0 -24 2 -37 4 -30 3 6 11 12 18 12 7 0 15 -6 18 -12 4
-10 7 -10 18 0 8 7 10 13 4 12 -17 -3 -55 12 -55 22 0 6 7 8 15 4 11 -4 15 1
15 17 0 18 -2 19 -10 7 -6 -10 -10 -11 -10 -2 0 6 -4 12 -8 12 -5 0 -9 -19 -9
-42z"/>
<path d="M10330 6930 c-9 -6 -10 -10 -3 -10 6 0 15 5 18 10 8 12 4 12 -15 0z"/>
<path d="M10620 6930 c0 -5 5 -10 11 -10 5 0 7 5 4 10 -3 6 -8 10 -11 10 -2 0
-4 -4 -4 -10z"/>
<path d="M10924 6928 c-3 -4 1 -8 10 -8 8 0 17 -6 19 -12 3 -7 6 -4 6 8 1 20
-24 29 -35 12z"/>
<path d="M11251 6924 c0 -11 3 -14 6 -6 3 7 2 16 -1 19 -3 4 -6 -2 -5 -13z"/>
<path d="M11080 6915 c-6 -8 -10 -19 -8 -26 2 -6 9 0 16 15 13 29 10 33 -8 11z"/>
<path d="M11137 6913 c-12 -12 -7 -22 8 -17 8 4 15 10 15 15 0 11 -14 12 -23
2z"/>
<path d="M8873 6896 c0 -8 6 -12 14 -9 7 3 10 9 7 14 -8 14 -21 11 -21 -5z"/>
<path d="M11293 6895 c-3 -9 -3 -19 1 -22 3 -4 6 -1 6 6 0 7 4 10 8 7 5 -3 9
1 9 9 0 20 -16 19 -24 0z"/>
<path d="M10275 6891 c-3 -5 -2 -12 3 -15 5 -3 9 1 9 9 0 17 -3 19 -12 6z"/>
<path d="M11265 6890 c-4 -6 -11 -7 -17 -4 -7 4 -8 2 -4 -5 6 -9 11 -9 22 0
14 11 18 19 10 19 -3 0 -8 -5 -11 -10z"/>
<path d="M11197 6865 c-4 -8 -1 -17 6 -21 7 -4 9 -4 5 1 -4 4 -3 14 3 22 7 8
8 13 1 13 -5 0 -12 -7 -15 -15z"/>
<path d="M8770 6841 c-14 -4 -24 -13 -22 -19 1 -7 -2 -12 -6 -12 -4 0 -9 -10
-9 -22 -1 -13 1 -18 5 -13 10 15 47 42 40 30 -4 -6 -3 -17 2 -25 5 -9 4 -20
-3 -29 -10 -12 -9 -12 10 0 16 9 19 16 10 21 -7 4 -9 8 -5 8 4 0 3 11 -2 25
-7 19 -6 27 8 34 20 12 8 12 -28 2z"/>
<path d="M8838 6833 c7 -3 16 -2 19 1 4 3 -2 6 -13 5 -11 0 -14 -3 -6 -6z"/>
<path d="M8965 6830 c-3 -5 -1 -10 4 -10 6 0 11 5 11 10 0 6 -2 10 -4 10 -3 0
-8 -4 -11 -10z"/>
<path d="M8667 6793 c-3 -5 3 -14 13 -20 15 -10 18 -9 16 4 -3 19 -21 29 -29
16z"/>
<path d="M8885 6789 c-4 -6 -5 -12 -2 -15 2 -3 7 2 10 11 7 17 1 20 -8 4z"/>
<path d="M8746 6753 c-6 -14 -5 -15 5 -6 7 7 10 15 7 18 -3 3 -9 -2 -12 -12z"/>
<path d="M8610 6750 c-14 -4 -18 -8 -9 -9 9 -1 21 -11 28 -23 8 -15 10 -16 6
-4 -3 10 0 25 6 32 13 15 7 16 -31 4z"/>
<path d="M8651 6724 c0 -11 3 -14 6 -6 3 7 2 16 -1 19 -3 4 -6 -2 -5 -13z"/>
<path d="M11790 6713 c8 -3 24 -10 35 -15 20 -9 20 -9 1 6 -11 9 -27 16 -35
15 -14 0 -14 -1 -1 -6z"/>
<path d="M11921 6693 c7 -12 15 -20 18 -17 3 2 -3 12 -13 22 -17 16 -18 16 -5
-5z"/>
<path d="M8586 6688 c3 -5 10 -6 15 -3 13 9 11 12 -6 12 -8 0 -12 -4 -9 -9z"/>
<path d="M8493 6648 c0 -7 -4 -21 -8 -30 -4 -11 -3 -18 4 -18 6 0 11 6 11 14
0 8 3 21 6 30 3 9 2 16 -3 16 -5 0 -10 -6 -10 -12z"/>
<path d="M12030 6620 c0 -5 7 -7 15 -4 8 4 15 8 15 10 0 2 -7 4 -15 4 -8 0
-15 -4 -15 -10z"/>
<path d="M12147 6605 c-8 -8 -17 -12 -20 -9 -2 3 -7 -2 -10 -11 -10 -24 16
-17 36 10 20 28 17 33 -6 10z"/>
<path d="M12118 6553 c7 -3 16 -2 19 1 4 3 -2 6 -13 5 -11 0 -14 -3 -6 -6z"/>
<path d="M12380 6478 c-8 -13 -13 -26 -12 -30 1 -5 -2 -8 -8 -8 -5 0 -10 -6
-10 -12 0 -7 11 -1 24 12 13 14 21 29 18 34 -2 5 1 6 9 4 8 -3 13 -12 11 -21
-1 -8 3 -19 9 -23 8 -4 9 -3 5 4 -5 8 2 12 19 12 15 0 24 4 20 10 -4 6 -11 8
-16 4 -13 -7 -41 15 -33 27 12 20 -22 7 -36 -13z"/>
<path d="M8375 6479 c-4 -6 -5 -13 -2 -16 7 -7 27 6 27 18 0 12 -17 12 -25 -2z"/>
<path d="M12255 6470 c3 -5 8 -10 11 -10 2 0 4 5 4 10 0 6 -5 10 -11 10 -5 0
-7 -4 -4 -10z"/>
<path d="M12595 6400 c-3 -5 1 -10 10 -10 9 0 13 5 10 10 -3 6 -8 10 -10 10
-2 0 -7 -4 -10 -10z"/>
<path d="M12511 6384 c0 -11 3 -14 6 -6 3 7 2 16 -1 19 -3 4 -6 -2 -5 -13z"/>
<path d="M12570 6389 c0 -5 -4 -8 -8 -5 -4 2 -14 1 -22 -5 -9 -5 -10 -9 -3 -9
6 0 18 -6 26 -14 12 -12 14 -10 14 15 0 16 -2 29 -4 29 -1 0 -3 -5 -3 -11z"/>
<path d="M8390 6380 c0 -5 5 -10 11 -10 5 0 7 5 4 10 -3 6 -8 10 -11 10 -2 0
-4 -4 -4 -10z"/>
<path d="M12700 6320 c11 -7 11 -10 2 -10 -7 0 -10 -4 -7 -10 3 -5 13 -10 21
-10 12 0 12 4 4 20 -6 11 -16 20 -23 20 -7 0 -6 -4 3 -10z"/>
<path d="M12756 6301 c-3 -5 3 -11 13 -14 14 -3 18 -1 14 9 -6 16 -19 18 -27
5z"/>
<path d="M8318 6263 c7 -3 16 -2 19 1 4 3 -2 6 -13 5 -11 0 -14 -3 -6 -6z"/>
<path d="M8237 6103 c-4 -3 -7 -13 -7 -21 0 -18 13 -7 16 13 2 17 1 18 -9 8z"/>
<path d="M8276 6077 c3 -10 9 -15 12 -12 3 3 0 11 -7 18 -10 9 -11 8 -5 -6z"/>
<path d="M8255 6040 c-3 -6 1 -7 9 -4 18 7 21 14 7 14 -6 0 -13 -4 -16 -10z"/>
<path d="M8225 5991 c-3 -5 0 -13 6 -17 7 -4 9 -3 5 4 -3 5 0 13 6 15 9 4 10
6 1 6 -6 1 -14 -3 -18 -8z"/>
<path d="M8233 5905 c0 -8 4 -12 9 -9 5 3 6 10 3 15 -9 13 -12 11 -12 -6z"/>
<path d="M8190 5891 c0 -11 4 -22 9 -25 5 -3 8 5 7 19 -1 29 -16 34 -16 6z"/>
<path d="M8167 5795 c3 -8 9 -12 14 -9 12 7 11 11 -5 17 -10 4 -13 1 -9 -8z"/>
<path d="M8210 5801 c0 -5 5 -13 10 -16 6 -3 10 -2 10 4 0 5 -4 13 -10 16 -5
3 -10 2 -10 -4z"/>
<path d="M8146 5437 c3 -10 9 -15 12 -12 3 3 0 11 -7 18 -10 9 -11 8 -5 -6z"/>
<path d="M8114 5413 c3 -4 1 -12 -5 -20 -7 -8 -8 -13 -1 -13 5 0 13 7 16 16 5
13 9 14 20 5 10 -8 16 -9 21 -1 3 5 0 10 -7 11 -7 0 -21 2 -31 4 -11 2 -16 1
-13 -2z"/>
<path d="M8115 5359 c-4 -6 -5 -12 -2 -15 2 -3 7 2 10 11 7 17 1 20 -8 4z"/>
<path d="M8066 5268 l-17 -33 20 24 c18 20 27 41 18 41 -1 0 -11 -15 -21 -32z"/>
<path d="M8080 5255 c-8 -9 -9 -19 -4 -25 12 -11 34 14 25 29 -6 9 -11 8 -21
-4z"/>
<path d="M8109 5223 c-13 -16 -12 -17 4 -4 16 13 21 21 13 21 -2 0 -10 -8 -17
-17z"/>
<path d="M8084 5185 c-4 -8 -11 -12 -18 -8 -6 4 -5 -1 3 -10 7 -9 18 -17 24
-17 6 0 7 3 4 7 -4 3 1 11 10 18 15 11 14 12 -1 18 -10 4 -19 1 -22 -8z"/>
<path d="M8080 5070 c-8 -5 -10 -10 -5 -10 6 0 17 5 25 10 8 5 11 10 5 10 -5
0 -17 -5 -25 -10z"/>
<path d="M8085 4840 c-3 -5 1 -10 10 -10 9 0 13 5 10 10 -3 6 -8 10 -10 10 -2
0 -7 -4 -10 -10z"/>
<path d="M8033 4445 c0 -8 4 -12 9 -9 5 3 6 10 3 15 -9 13 -12 11 -12 -6z"/>
<path d="M7190 3808 c0 -3 9 -6 20 -5 11 1 20 5 20 9 0 3 -9 6 -20 5 -11 -1
-20 -5 -20 -9z"/>
<path d="M10004 3082 c-17 -12 -24 -40 -10 -45 23 -9 41 9 30 32 -5 11 -14 17
-20 13z"/>
<path d="M6760 3670 c0 -5 5 -10 10 -10 6 0 10 5 10 10 0 6 -4 10 -10 10 -5 0
-10 -4 -10 -10z"/>
<path d="M5145 140 c3 -5 8 -10 11 -10 2 0 4 5 4 10 0 6 -5 10 -11 10 -5 0 -7
-4 -4 -10z"/>
<path d="M1482 6347 c-6 -7 -9 -17 -5 -20 3 -4 1 -7 -5 -7 -7 0 -12 -5 -12
-11 0 -8 4 -8 13 -1 6 5 20 11 30 13 16 4 16 6 4 22 -11 16 -15 17 -25 4z"/>
<path d="M1226 6341 c-4 -5 3 -7 16 -3 14 3 19 2 14 -6 -4 -7 -2 -12 4 -12 17
0 6 24 -12 28 -9 2 -19 -1 -22 -7z"/>
<path d="M1356 6335 c4 -8 7 -15 9 -15 2 0 5 7 9 15 3 9 0 15 -9 15 -9 0 -12
-6 -9 -15z"/>
<path d="M1223 6305 c0 -8 4 -15 9 -15 4 0 8 4 8 9 0 6 -4 12 -8 15 -5 3 -9
-1 -9 -9z"/>
<path d="M1073 6295 c-15 -16 -16 -25 -5 -25 4 0 13 9 20 20 14 23 3 26 -15 5z"/>
<path d="M1560 6280 c0 -5 5 -10 11 -10 5 0 7 5 4 10 -3 6 -8 10 -11 10 -2 0
-4 -4 -4 -10z"/>
<path d="M1082 6264 c-10 -12 -10 -14 2 -14 17 0 30 16 19 23 -5 3 -14 -1 -21
-9z"/>
<path d="M1572 6240 c0 -14 2 -19 5 -12 2 6 2 18 0 25 -3 6 -5 1 -5 -13z"/>
<path d="M1593 6246 c0 -8 4 -13 8 -10 4 2 10 -2 13 -8 3 -7 5 -4 3 6 -2 23
-24 33 -24 12z"/>
<path d="M860 6228 c0 -9 -6 -18 -12 -21 -10 -3 -10 -8 -2 -16 9 -10 13 -6 18
14 4 15 5 30 1 33 -3 3 -5 -2 -5 -10z"/>
<path d="M950 6200 c0 -8 5 -22 10 -30 9 -13 10 -13 10 0 0 8 -5 22 -10 30 -9
13 -10 13 -10 0z"/>
<path d="M1510 6199 c0 -5 5 -7 10 -4 6 3 10 8 10 11 0 2 -4 4 -10 4 -5 0 -10
-5 -10 -11z"/>
<path d="M1570 6200 c0 -5 5 -10 11 -10 5 0 7 5 4 10 -3 6 -8 10 -11 10 -2 0
-4 -4 -4 -10z"/>
<path d="M923 6180 c1 -11 5 -20 9 -20 4 0 8 9 8 20 0 11 -4 20 -9 20 -6 0 -9
-9 -8 -20z"/>
<path d="M878 6163 c6 -2 10 -9 7 -14 -4 -5 1 -6 9 -3 9 3 16 1 16 -5 0 -6 8
-11 18 -11 12 0 8 6 -13 20 -16 11 -34 20 -40 19 -5 0 -4 -3 3 -6z"/>
<path d="M1596 6123 c-6 -14 -5 -15 5 -6 7 7 10 15 7 18 -3 3 -9 -2 -12 -12z"/>
<path d="M884 6122 c3 -5 0 -13 -6 -15 -9 -4 -10 -6 -1 -6 17 -1 25 16 12 25
-7 4 -9 3 -5 -4z"/>
<path d="M1528 6123 c7 -3 16 -2 19 1 4 3 -2 6 -13 5 -11 0 -14 -3 -6 -6z"/>
<path d="M1605 6101 c-6 -11 9 -23 19 -14 9 9 7 23 -3 23 -6 0 -12 -4 -16 -9z"/>
<path d="M760 6086 c0 -2 7 -7 16 -10 8 -3 12 -2 9 4 -6 10 -25 14 -25 6z"/>
<path d="M770 6049 c0 -5 5 -7 10 -4 6 3 10 8 10 11 0 2 -4 4 -10 4 -5 0 -10
-5 -10 -11z"/>
<path d="M936 6048 c3 -5 10 -6 15 -3 13 9 11 12 -6 12 -8 0 -12 -4 -9 -9z"/>
<path d="M675 6039 c-4 -6 -4 -13 0 -17 4 -4 10 -1 12 6 4 10 9 8 20 -5 13
-17 13 -16 3 5 -12 24 -25 28 -35 11z"/>
<path d="M1591 6041 c-7 -5 -9 -11 -5 -14 5 -3 15 1 22 9 14 16 5 18 -17 5z"/>
<path d="M667 5983 c-4 -24 -4 -24 14 -4 23 24 23 28 5 28 -8 0 -16 -11 -19
-24z"/>
<path d="M858 5993 c7 -3 16 -2 19 1 4 3 -2 6 -13 5 -11 0 -14 -3 -6 -6z"/>
<path d="M633 5970 c1 -11 5 -20 9 -20 11 0 10 28 -1 35 -6 3 -9 -4 -8 -15z"/>
<path d="M665 5940 c-3 -5 -1 -10 4 -10 6 0 11 5 11 10 0 6 -2 10 -4 10 -3 0
-8 -4 -11 -10z"/>
<path d="M1717 5921 c3 -12 11 -17 19 -14 8 3 14 0 14 -6 0 -6 -5 -11 -12 -11
-6 0 -8 -3 -5 -7 9 -8 48 27 41 38 -2 4 -11 6 -19 2 -9 -3 -22 0 -29 6 -12 10
-13 8 -9 -8z"/>
<path d="M740 5908 c0 -4 4 -8 9 -8 6 0 12 4 15 8 3 5 -1 9 -9 9 -8 0 -15 -4
-15 -9z"/>
<path d="M1666 5895 c-3 -8 -1 -15 4 -15 6 0 10 7 10 15 0 8 -2 15 -4 15 -2 0
-6 -7 -10 -15z"/>
<path d="M625 5891 c-3 -5 -2 -12 3 -15 5 -3 9 1 9 9 0 17 -3 19 -12 6z"/>
<path d="M1745 5850 c-4 -6 -3 -16 3 -22 13 -13 23 4 13 21 -7 10 -10 10 -16
1z"/>
<path d="M515 5829 c-4 -6 -13 -8 -21 -5 -17 6 -19 -10 -3 -20 7 -4 16 1 21
10 5 9 13 14 19 11 5 -4 9 -1 9 4 0 14 -17 14 -25 0z"/>
<path d="M597 5782 c4 -10 8 -11 13 -2 6 9 9 9 13 -1 4 -10 6 -9 6 3 1 11 -6
16 -18 15 -12 -1 -17 -6 -14 -15z"/>
<path d="M503 5773 c1 -17 4 -19 14 -11 15 12 18 22 4 14 -5 -4 -11 0 -14 6
-3 7 -4 3 -4 -9z"/>
<path d="M610 5750 c-9 -6 -10 -10 -3 -10 6 0 15 5 18 10 8 12 4 12 -15 0z"/>
<path d="M386 5715 c20 -30 20 -30 27 -6 3 14 1 18 -9 14 -8 -3 -14 0 -14 6 0
6 -5 11 -10 11 -6 0 -3 -11 6 -25z"/>
<path d="M1750 5730 c0 -5 5 -10 11 -10 5 0 7 5 4 10 -3 6 -8 10 -11 10 -2 0
-4 -4 -4 -10z"/>
<path d="M490 5726 c0 -9 30 -14 35 -6 4 6 -3 10 -14 10 -12 0 -21 -2 -21 -4z"/>
<path d="M560 5719 c0 -5 5 -7 10 -4 6 3 10 8 10 11 0 2 -4 4 -10 4 -5 0 -10
-5 -10 -11z"/>
<path d="M505 5681 c-3 -5 -1 -12 5 -16 5 -3 10 1 10 9 0 18 -6 21 -15 7z"/>
<path d="M1730 5656 c0 -2 7 -7 16 -10 8 -3 12 -2 9 4 -6 10 -25 14 -25 6z"/>
<path d="M410 5628 c0 -4 4 -8 9 -8 5 0 12 -8 14 -17 3 -12 5 -9 6 8 1 17 -4
26 -14 26 -8 0 -15 -4 -15 -9z"/>
<path d="M380 5536 c7 -7 13 -7 20 0 6 6 3 10 -10 10 -13 0 -16 -4 -10 -10z"/>
<path d="M1760 5536 c0 -2 7 -7 16 -10 8 -3 12 -2 9 4 -6 10 -25 14 -25 6z"/>
<path d="M418 5523 c6 -2 10 -9 6 -14 -3 -5 0 -9 5 -9 6 0 11 7 11 15 0 8 -8
15 -17 14 -11 0 -13 -3 -5 -6z"/>
<path d="M1776 5494 c-8 -22 -4 -25 11 -9 7 8 9 16 4 19 -5 3 -12 -1 -15 -10z"/>
<path d="M301 5442 c-7 -14 -6 -19 4 -19 7 0 13 9 12 19 -1 10 -2 18 -4 18 -1
0 -7 -8 -12 -18z"/>
<path d="M258 5313 c7 -3 16 -2 19 1 4 3 -2 6 -13 5 -11 0 -14 -3 -6 -6z"/>
<path d="M318 5313 c7 -3 16 -2 19 1 4 3 -2 6 -13 5 -11 0 -14 -3 -6 -6z"/>
<path d="M1828 5172 c-4 -15 -2 -22 9 -22 8 0 11 -4 8 -10 -4 -6 1 -7 11 -3
15 5 15 8 2 17 -8 6 -17 18 -20 26 -3 10 -6 8 -10 -8z"/>
<path d="M126 5061 c-4 -5 3 -7 14 -4 23 6 26 13 6 13 -8 0 -17 -4 -20 -9z"/>
<path d="M1830 4920 c0 -5 5 -10 10 -10 6 0 10 5 10 10 0 6 -4 10 -10 10 -5 0
-10 -4 -10 -10z"/>
<path d="M127 4878 c-16 -12 -15 -13 7 -13 13 0 22 3 20 7 -2 3 2 9 8 11 9 4
8 6 -3 6 -8 1 -23 -5 -32 -11z"/>
<path d="M79 4843 c-13 -16 -12 -17 4 -4 9 7 17 15 17 17 0 8 -8 3 -21 -13z"/>
<path d="M35 4840 c-3 -6 1 -7 9 -4 18 7 21 14 7 14 -6 0 -13 -4 -16 -10z"/>
<path d="M10 4810 c13 -24 17 -25 17 -5 0 8 -6 16 -14 19 -11 4 -11 1 -3 -14z"/>
<path d="M240 4799 c0 -5 5 -7 10 -4 6 3 10 8 10 11 0 2 -4 4 -10 4 -5 0 -10
-5 -10 -11z"/>
<path d="M0 4759 c0 -5 5 -7 10 -4 5 3 10 8 10 11 0 2 -4 4 -10 4 -5 0 -10 -5
-10 -11z"/>
<path d="M1850 4658 c0 -7 4 -19 9 -26 7 -11 9 -11 13 0 3 7 -1 19 -8 26 -11
10 -14 10 -14 0z"/>
<path d="M1865 4561 c-3 -5 -1 -12 5 -16 5 -3 10 1 10 9 0 18 -6 21 -15 7z"/>
<path d="M545 4413 c4 -10 10 -26 12 -35 3 -10 8 -18 12 -18 9 0 7 43 -3 58
-11 19 -29 14 -21 -5z"/>
<path d="M1935 4422 c-13 -9 -13 -33 0 -29 5 1 9 7 7 14 -1 6 5 14 15 16 13 3
13 5 3 6 -8 0 -20 -3 -25 -7z"/>
<path d="M2247 3853 c-10 -10 -8 -33 2 -33 6 0 9 9 8 20 -1 23 -1 22 -10 13z"/>
<path d="M2190 3537 c0 -21 37 -51 45 -37 3 6 1 9 -7 8 -7 -2 -14 7 -16 20 -4
24 -22 31 -22 9z"/>
<path d="M2422 1778 c2 -24 8 -33 21 -32 9 1 41 3 70 4 39 1 46 4 27 9 -14 4
-26 12 -26 19 -1 7 -2 17 -3 22 0 6 -22 10 -47 10 -45 0 -45 0 -42 -32z"/>
<path d="M2450 1451 c0 -6 5 -13 10 -16 6 -3 10 1 10 9 0 9 -4 16 -10 16 -5 0
-10 -4 -10 -9z"/>
<path d="M2490 1349 c-19 -4 -39 -5 -44 -2 -5 3 -7 0 -4 -7 2 -7 16 -14 31
-14 15 -1 31 -6 36 -11 5 -6 6 -76 2 -165 -4 -85 -5 -162 -3 -171 2 -9 23 -21
50 -28 41 -11 48 -10 59 5 18 25 16 35 -7 41 -23 6 -27 23 -5 23 10 0 15 11
16 38 1 20 3 62 5 92 1 30 0 88 -2 128 -5 62 -8 72 -25 72 -10 0 -19 -4 -19
-10 0 -5 -4 -10 -10 -10 -5 0 -10 6 -10 13 0 14 -20 16 -70 6z m73 -36 c-7 -2
-19 -2 -25 0 -7 3 -2 5 12 5 14 0 19 -2 13 -5z"/>
<path d="M2442 1254 c1 -9 9 -19 16 -22 9 -3 13 2 10 14 -1 9 -9 19 -16 22 -9
3 -13 -2 -10 -14z"/>
<path d="M4946 730 c-56 -11 -71 -44 -40 -88 8 -12 23 -21 32 -20 25 4 81 90
69 106 -5 6 -12 11 -16 11 -3 -1 -23 -5 -45 -9z"/>
<path d="M5076 691 c-4 -7 -5 -15 -2 -18 9 -9 19 4 14 18 -4 11 -6 11 -12 0z"/>
<path d="M5265 570 c-3 -5 1 -10 10 -10 9 0 13 5 10 10 -3 6 -8 10 -10 10 -2
0 -7 -4 -10 -10z"/>
<path d="M5026 561 c-9 -13 4 -41 18 -41 18 0 35 21 29 36 -6 16 -39 19 -47 5z"/>
<path d="M5230 550 c0 -19 11 -26 23 -14 8 8 -3 34 -14 34 -5 0 -9 -9 -9 -20z"/>
<path d="M5541 481 c-24 -18 -24 -19 -4 -29 26 -15 57 6 47 31 -8 21 -13 21
-43 -2z"/>
<path d="M5315 400 c-3 -5 -1 -10 4 -10 6 0 11 5 11 10 0 6 -2 10 -4 10 -3 0
-8 -4 -11 -10z"/>
<path d="M5681 350 c-33 -29 -35 -30 -55 -13 -20 18 -20 17 -6 -2 25 -34 52
-55 71 -55 10 0 21 -4 24 -10 9 -15 25 -12 19 4 -3 9 3 17 15 21 12 3 21 9 21
13 0 4 3 18 7 31 5 20 3 22 -16 16 -15 -4 -21 -3 -19 6 6 25 -27 19 -61 -11z"/>
<path d="M6101 300 c-7 -17 -11 -37 -8 -44 4 -10 -6 -15 -34 -19 -21 -3 -46
-13 -56 -22 -16 -17 -16 -19 11 -42 28 -24 76 -29 77 -8 0 6 5 15 11 22 5 7 7
16 4 21 -5 9 2 11 53 14 28 1 28 3 18 32 -9 28 -45 75 -57 76 -3 0 -11 -14
-19 -30z"/>
<path d="M5572 304 c-9 -10 -30 -14 -65 -12 -29 1 -62 -2 -74 -6 -12 -4 -24
-2 -28 4 -9 15 -25 12 -25 -5 0 -8 18 -23 40 -32 22 -10 40 -21 40 -25 0 -12
39 -10 79 5 37 12 80 53 81 75 0 17 -32 15 -48 -4z"/>
<path d="M5913 313 c-30 -6 -29 -18 1 -21 13 -1 27 5 30 13 3 8 2 14 -2 14 -4
-1 -17 -4 -29 -6z"/>
<path d="M5339 278 c-7 -29 -5 -36 7 -31 16 6 18 19 4 28 -5 3 -10 5 -11 3z"/>
<path d="M5724 204 c-12 -8 -34 -17 -50 -20 -39 -7 -40 -11 -5 -19 17 -4 29
-11 26 -16 -4 -5 1 -6 9 -3 9 3 16 2 16 -4 0 -25 59 -21 63 4 1 5 7 8 14 6 7
-2 13 6 13 17 0 11 3 28 6 38 4 11 3 14 -3 7 -12 -17 -47 -21 -58 -8 -8 10
-15 9 -31 -2z"/>
<path d="M5595 150 c6 -9 -8 -14 -27 -11 -5 0 -8 -3 -8 -8 0 -5 -10 -11 -22
-15 -23 -6 -23 -6 5 -24 15 -10 25 -22 22 -25 -3 -4 -2 -5 1 -2 4 2 16 -2 28
-10 32 -23 44 -18 41 15 -1 17 -5 33 -8 37 -4 3 1 11 10 18 14 11 12 13 -16
23 -18 6 -29 7 -26 2z"/>
<path d="M5913 89 c3 -10 1 -19 -4 -19 -5 0 -8 -13 -7 -28 2 -24 6 -29 27 -28
28 1 38 24 25 54 -4 9 -7 20 -6 23 1 4 -8 9 -19 12 -17 5 -20 2 -16 -14z"/>
<path d="M5369 55 c-15 -8 -29 -23 -32 -35 -5 -19 -1 -20 76 -20 61 1 77 3 65
11 -10 5 -18 16 -18 24 0 15 -30 35 -52 35 -7 -1 -25 -7 -39 -15z"/>
</g>
</svg>
