<svg id="Recorem_2.0_logoColor" data-name="Recorem #2.0 logoColor" xmlns="http://www.w3.org/2000/svg" xmlns:xlink="http://www.w3.org/1999/xlink" width="455.617" height="78.025" viewBox="0 0 455.617 78.025">
  <defs>
    <linearGradient id="linear-gradient" x1="0.882" y1="0.756" x2="0.366" y2="-0.204" gradientUnits="objectBoundingBox">
      <stop offset="0" stop-color="#3f3672"/>
      <stop offset="1" stop-color="#6963aa"/>
    </linearGradient>
    <linearGradient id="linear-gradient-2" x1="0.127" y1="0.955" x2="1.196" y2="0.38" gradientUnits="objectBoundingBox">
      <stop offset="0" stop-color="#dd9505"/>
      <stop offset="1" stop-color="#ffbf40"/>
    </linearGradient>
    <linearGradient id="linear-gradient-3" x1="0.762" y1="0.125" x2="-0.151" y2="0.586" gradientUnits="objectBoundingBox">
      <stop offset="0" stop-color="#028c9e"/>
      <stop offset="1" stop-color="#47bfa8"/>
    </linearGradient>
    <linearGradient id="linear-gradient-4" x1="-0.26" y1="0.23" x2="0.795" y2="1.299" gradientUnits="objectBoundingBox">
      <stop offset="0" stop-opacity="0.502"/>
      <stop offset="1" stop-opacity="0"/>
    </linearGradient>
    <linearGradient id="linear-gradient-5" x1="0.841" y1="-0.047" x2="0.25" y2="0.753" xlink:href="#linear-gradient-4"/>
    <linearGradient id="linear-gradient-6" x1="0.306" y1="-0.062" x2="0.53" y2="0.898" xlink:href="#linear-gradient-4"/>
    <linearGradient id="linear-gradient-7" x1="0.197" y1="0.054" x2="0.522" y2="0.804" xlink:href="#linear-gradient-4"/>
    <linearGradient id="linear-gradient-8" x1="0.84" y1="-0.144" x2="0.323" y2="0.667" xlink:href="#linear-gradient-4"/>
    <linearGradient id="linear-gradient-9" x1="0.693" y1="-0.098" x2="0.417" y2="0.683" xlink:href="#linear-gradient-4"/>
    <linearGradient id="linear-gradient-10" x1="0.923" y1="0.694" x2="0.261" y2="0.38" xlink:href="#linear-gradient-4"/>
  </defs>
  <g id="Layer_1" data-name="Layer 1">
    <path id="Path_152" data-name="Path 152" d="M13.445,86.68A5.026,5.026,0,0,1,9.9,78.1l9.278-9.272L1.611,51.276a5.026,5.026,0,0,1,7.106-7.082l18.44,18.416a8.8,8.8,0,0,1,0,12.438L16.995,85.209A5.008,5.008,0,0,1,13.445,86.68Zm6.606-16.964Z" transform="translate(-0.361 -16.742)" fill="#47bfa8"/>
    <path id="Path_153" data-name="Path 153" d="M45.017,38.886A8.759,8.759,0,0,1,38.8,36.318L11.059,8.575a5.025,5.025,0,1,1,7.106-7.106l26.84,26.84,9.363-9.321a5.02,5.02,0,1,1,7.088,7.106L51.239,36.318a8.772,8.772,0,0,1-6.222,2.568Z" transform="translate(-3.959 0.003)" fill="#6963aa"/>
    <path id="Path_154" data-name="Path 154" d="M110.338,88.281a5.008,5.008,0,0,1-3.55-1.47L88.257,68.28a8.808,8.808,0,0,1,0-12.438l28.151-28.151a5.026,5.026,0,0,1,7.106,7.106L96.247,62.064,113.895,79.7a5.026,5.026,0,0,1-3.556,8.576Z" transform="translate(-33.639 -10.255)" fill="#ffbf40"/>
    <ellipse id="Ellipse_57" data-name="Ellipse 57" cx="4.929" cy="4.929" rx="4.929" ry="4.929" transform="translate(34.769 47.355)" fill="#6963aa"/>
    <path id="Path_155" data-name="Path 155" d="M59.036,46.42l-6.9,7.3L45.47,47.085Z" transform="translate(-17.954 -18.102)" opacity="0.5" fill="url(#linear-gradient)"/>
    <path id="Path_156" data-name="Path 156" d="M98.234,75.585,90.78,68.833l7.863-7.863Z" transform="translate(-35.625 -23.777)" opacity="0.5" fill="url(#linear-gradient-2)"/>
    <path id="Path_157" data-name="Path 157" d="M31.19,85.39l7.064,7.186-6.856,6.8Z" transform="translate(-12.385 -33.301)" opacity="0.5" fill="url(#linear-gradient-3)"/>
    <path id="Path_158" data-name="Path 158" d="M201.47,17.779a5.112,5.112,0,0,1,5.124-5.039h14.768c11.382,0,19.111,8.168,19.111,18.245,0,8.339-5.209,14.073-11.291,15.549l-1.129.085L244.212,65.9a4.837,4.837,0,0,1,1.22,3.392,5.039,5.039,0,0,1-5.038,5.039,4.941,4.941,0,0,1-4-1.909L216.061,48.278a6.551,6.551,0,0,1-1.562-4,4.575,4.575,0,0,1,4.605-4.6h1.909A8.74,8.74,0,1,0,220.99,22.2h-9.272v47a5.124,5.124,0,1,1-10.248,0Z" transform="translate(-78.795 -4.967)" fill="#a2acab"/>
    <path id="Path_159" data-name="Path 159" d="M206.594,12.73a5.112,5.112,0,0,0-5.124,5.039V69.2a5.124,5.124,0,1,0,10.248,0V22.228h0v-9.5Z" transform="translate(-78.795 -4.963)" fill="#a2acab"/>
    <path id="Path_160" data-name="Path 160" d="M218.282,12.73l9.284,9.467h-9.3Z" transform="translate(-85.347 -4.963)" opacity="0.15" fill="url(#linear-gradient-4)"/>
    <path id="Path_161" data-name="Path 161" d="M279.77,60.971a23.187,23.187,0,0,1,38.045-17.635A5.044,5.044,0,0,1,319.56,47a4.971,4.971,0,0,1-1.391,3.477L304.786,66.357a4.014,4.014,0,0,1-3.3,1.568,4.27,4.27,0,0,1-4.5-4.325,3.922,3.922,0,0,1,1.043-2.873L308.525,48.35a10.773,10.773,0,0,0-5.734-1.562c-7.472,0-13.377,6.252-13.377,14.158s5.819,14.164,13.377,14.164a12.45,12.45,0,0,0,9.2-3.886c1.391-1.128,2.348-2.172,4.172-2.172a4.5,4.5,0,0,1,4.691,4.605,5.008,5.008,0,0,1-1.391,3.123c-3.3,4-9.3,7.21-16.677,7.21A22.677,22.677,0,0,1,279.77,60.971Z" transform="translate(-109.333 -14.799)" fill="#a2acab"/>
    <path id="Path_162" data-name="Path 162" d="M324.43,53.666l10.98-2.086a5.35,5.35,0,0,1,0,1.5,5.587,5.587,0,0,1-.744,2.062l-6.984,8.113-7.131-5.209Z" transform="translate(-125.237 -20.115)" opacity="0.35" fill="url(#linear-gradient-5)"/>
    <path id="Path_163" data-name="Path 163" d="M355.62,61.181A22.625,22.625,0,0,1,378.641,38.16c7.32,0,13.377,3.123,16.677,7.033a5.49,5.49,0,0,1,1.4,3.306,4.405,4.405,0,0,1-4.691,4.429c-1.909,0-2.867-.958-4.081-2a12.663,12.663,0,0,0-9.3-3.91c-7.472,0-13.377,6.259-13.377,14.164,0,7.814,5.9,14.158,13.377,14.158a12.621,12.621,0,0,0,9.211-3.91c1.22-1.043,2.257-2.172,4.166-2.172a4.5,4.5,0,0,1,4.691,4.605,5.026,5.026,0,0,1-1.391,3.129c-3.3,4-9.29,7.21-16.677,7.21A22.621,22.621,0,0,1,355.62,61.181Z" transform="translate(-138.915 -14.881)" fill="#a2acab"/>
    <path id="Path_164" data-name="Path 164" d="M356.55,82.063l9.15-3.843a14.414,14.414,0,0,0,3.361,8.113l-11.535-.994c-.183-.445-.366-.939-.531-1.476C356.824,83.222,356.66,82.618,356.55,82.063Z" transform="translate(-139.278 -30.505)" opacity="0.35" fill="url(#linear-gradient-6)"/>
    <path id="Path_165" data-name="Path 165" d="M434.39,61.181a23.021,23.021,0,1,1,46.042,0,23.021,23.021,0,1,1-46.042,0Zm36.4,0c0-7.82-5.734-14.164-13.377-14.164s-13.377,6.344-13.377,14.164c0,7.729,5.728,14.158,13.377,14.158S470.788,68.91,470.788,61.181Z" transform="translate(-169.636 -14.881)" fill="#a2acab"/>
    <path id="Path_166" data-name="Path 166" d="M437,87.507l8.717-4.2a14.243,14.243,0,0,0,5.045,7.131l-11.742.97c-.317-.488-.64-1.025-.958-1.61A21.6,21.6,0,0,1,437,87.507Z" transform="translate(-170.654 -32.49)" opacity="0.35" fill="url(#linear-gradient-7)"/>
    <path id="Path_167" data-name="Path 167" d="M570.86,62.725A23.187,23.187,0,0,1,608.905,45.1a4.843,4.843,0,0,1,.354,7.119l-13.383,15.9a4.008,4.008,0,0,1-3.3,1.562,4.27,4.27,0,0,1-4.514-4.343,3.9,3.9,0,0,1,1.043-2.867l10.51-12.334a10.717,10.717,0,0,0-5.734-1.568c-7.472,0-13.377,6.259-13.377,14.158s5.819,14.164,13.377,14.164a12.462,12.462,0,0,0,9.2-3.91c1.391-1.128,2.348-2.172,4.172-2.172a4.5,4.5,0,0,1,4.691,4.605,5.008,5.008,0,0,1-1.391,3.123c-3.3,4-9.3,7.216-16.677,7.216A22.682,22.682,0,0,1,570.86,62.725Z" transform="translate(-222.861 -15.486)" fill="#a2acab"/>
    <path id="Path_168" data-name="Path 168" d="M615.523,55.462,626.5,53.37a5.49,5.49,0,0,1-.75,3.562l-6.984,8.113-7.119-5.191Z" transform="translate(-238.769 -20.813)" opacity="0.35" fill="url(#linear-gradient-8)"/>
    <path id="Path_169" data-name="Path 169" d="M525.092,58.485c0-12.334,8.253-20.325,19.52-20.325a4.392,4.392,0,0,1,4.435,4.429,4.447,4.447,0,0,1-4.435,4.429c-5.728,0-9.986,3.825-9.986,11.468v20.74a4.782,4.782,0,1,1-9.559,0Z" transform="translate(-205 -14.881)" fill="#a2acab"/>
    <path id="Path_170" data-name="Path 170" d="M525.138,80.056l9.516-3.5V69.436q-4.593-2.562-9.15-5.136c-.055.317-.11.647-.152.988-.085.653-.14,1.275-.177,1.83q-.055,2.2-.073,4.453Q525.028,75.933,525.138,80.056Z" transform="translate(-205.003 -25.076)" opacity="0.35" fill="url(#linear-gradient-9)"/>
    <path id="Path_171" data-name="Path 171" d="M651.986,55.618c0-10.858,7.32-17.458,16.506-17.458,5.3,0,9.729,1.83,12.6,6.429,2.7-4.605,7.387-6.429,12.511-6.429,9.211,0,16.506,6.6,16.506,17.458V79.249a4.782,4.782,0,1,1-9.559,0V55.533c0-5.734-3.215-8.54-7.381-8.54s-7.32,2.782-7.32,8.54V79.249a4.837,4.837,0,0,1-4.776,4.88,4.782,4.782,0,0,1-4.776-4.88V55.533c0-5.734-3.3-8.54-7.387-8.54s-7.381,2.782-7.381,8.54V79.249a4.782,4.782,0,1,1-9.559,0Z" transform="translate(-254.492 -14.881)" fill="#a2acab"/>
    <path id="Path_172" data-name="Path 172" d="M693.172,45.494l-4.795,10.37a7.973,7.973,0,0,0-2.172-5.813,7.485,7.485,0,0,0-3.276-1.934l4.758-7.637a12.761,12.761,0,0,1,5.49,5Z" transform="translate(-266.569 -15.786)" opacity="0.35" fill="url(#linear-gradient-10)"/>
  </g>
</svg>
